<?xml version="1.0" encoding="UTF-8"?>
<svg id="Layer_2" data-name="Layer 2" xmlns="http://www.w3.org/2000/svg" viewBox="0 0 302.58 131.12">
  <defs>
    <style>
      .cls-1 {
        fill: #ffdcf6;
      }

      .cls-2 {
        fill: #faa501;
      }

      .cls-3 {
        fill: #003;
      }

      .cls-4 {
        fill: #c06;
      }
    </style>
  </defs>
  <g id="middle">
    <g>
      <path class="cls-4" d="M14.13,93.34c-.89,5.61-3.38,10.89-6.1,15.86-4.85,9.22-11.24,16.63-1.54,20.21,4.9,1.64,10.55,1.77,15.5,1.71,34.71-.3,68-.22,113.75-.33,44.29-.19,86.81.16,121.6-.27,3.1-.14,6.17-.43,9.18-1.03,11.62-1.96,21.09-10.35,24.46-21.35,2.37-7.35,1.9-12.26,1.98-21.84,0-6.22,0-14.36,0-22.37,0-8.59,0-17,0-22.86.39-11.65-1.19-23.12-10.12-31.75C276.18,3.04,266.41-.29,258.13.02c-26.14.04-147.45-.03-202.82,0C40.3-.05,23.25,5.02,11.71,16,2.69,24.82-2.41,39.07,1.13,51.31c3.89,14.1,15.66,26.36,13.03,41.84l-.03.18Z"/>
      <g>
        <g>
          <path class="cls-1" d="M69.65,48.84c-6.04-24.72-39.7-19.24-44.16-12-2.29,3.72,3.73,8.02,11.38,26.42,7.37,17.82,6.43,24.32,10.56,25.61,8.24,3.05,28.75-14.94,22.22-40.02ZM53.21,62.18c-3.53-.51-9.03-9.11-5.84-11.75,2.23-1.85,5.29-.67,6.93,3.06,2.03,4.6,1.85,9.12-1.1,8.7Z"/>
          <path class="cls-4" d="M49.45,90.7c-.91,0-1.76-.14-2.54-.43-3.04-.95-3.86-3.76-5.5-9.36-1.17-4-2.77-9.47-5.92-17.08-3.38-8.12-6.39-13.39-8.59-17.24-2.85-4.98-4.42-7.72-2.68-10.54,2.76-4.47,14.25-8.15,25.51-6.38,11.25,1.77,18.85,8.45,21.38,18.8,4.27,16.4-2.51,29.75-10.28,36.78-3.88,3.51-8.01,5.44-11.38,5.44ZM43.9,32.23c-8.26,0-15.54,2.82-17.13,5.4-.77,1.25.22,3.08,2.73,7.48,2.24,3.92,5.31,9.28,8.76,17.58,3.21,7.77,4.84,13.33,6.03,17.39,1.49,5.1,2.09,6.89,3.59,7.36,2.61.96,6.97-.82,10.94-4.4,7.12-6.44,13.32-18.71,9.38-33.81,0,0,0-.01,0-.02-2.85-11.67-11.87-15.45-18.94-16.56-1.8-.28-3.6-.41-5.36-.41ZM53.58,63.71c-.19,0-.39-.01-.59-.04h0c-3.17-.46-6.71-4.98-7.76-8.71-.69-2.46-.27-4.48,1.18-5.68,1.27-1.05,2.82-1.43,4.36-1.07,2.01.47,3.79,2.18,4.9,4.68,1.32,2.99,2.25,7.28.54,9.54-.64.85-1.56,1.29-2.64,1.29ZM53.42,60.7c.3.04.36-.03.41-.09.5-.66.57-3.19-.9-6.51-.71-1.61-1.77-2.72-2.84-2.97-.62-.15-1.22,0-1.76.46-.68.56-.37,1.97-.2,2.56.86,3.05,3.76,6.33,5.3,6.56h0Z"/>
        </g>
        <g>
          <path class="cls-1" d="M61.37,29.1c-3.01,4.56,1.78,9.95,4.87,21.07,4.39,15.79.44,25.35,5.66,27.75,2.09.96,2.95-.47,10.07-1.86,11.5-2.23,15.39.32,17.7-2.56,3.48-4.32-.86-15.63-6.08-16.78-1.63-.36-2.28.51-8.43,2-4.96,1.2-7.27,1.3-7.27,1.27-.01-.06,11.33-.26,12.82-4.91.58-1.8-.43-3.93-1.68-5.14-4.03-3.94-13.21-.89-13.2-.85,0,.02,3.12-.21,5.84-.89,1.83-.46,7.6-1.89,10.01-5.55,3.9-5.92-.7-18.12-8.21-20.68-3.97-1.36-7.99.24-14.44,2.78-4.33,1.71-6.49,2.57-7.66,4.34Z"/>
          <path class="cls-4" d="M73.22,79.74c-.62,0-1.24-.13-1.94-.45-3.65-1.68-3.82-5.71-4.06-11.3-.2-4.59-.44-10.31-2.42-17.41-1.06-3.81-2.31-6.89-3.41-9.61-2.13-5.26-3.66-9.06-1.27-12.69,1.43-2.17,3.75-3.08,8.36-4.91,6.61-2.62,10.98-4.34,15.47-2.81,4.13,1.41,7.81,5.55,9.6,10.79,1.58,4.61,1.34,9.15-.62,12.13-1.17,1.78-2.97,3.08-4.81,4.02.71.35,1.37.8,1.96,1.38,1.51,1.48,2.72,3.97,2.16,6.32.54-.08,1.06-.07,1.67.07,3.61.79,6.24,4.88,7.5,8.44,1.54,4.37,1.33,8.38-.57,10.74-1.68,2.09-3.95,2.09-7.09,2.08-2.64,0-6.24,0-11.5,1.01-2.9.56-4.72,1.13-6.05,1.55-1.16.36-2.08.65-3,.65ZM80.43,22.99c-2.82,0-6.12,1.3-10.84,3.17-4.03,1.59-6.05,2.39-6.96,3.77h0c-1.46,2.21-.52,4.78,1.55,9.91,1.07,2.66,2.41,5.96,3.52,9.93,2.07,7.43,2.33,13.59,2.52,18.09.22,5.26.42,7.83,2.32,8.7.65.3.96.24,2.79-.34,1.39-.44,3.3-1.03,6.37-1.63,5.54-1.08,9.31-1.07,12.07-1.07,2.96,0,4.01-.04,4.75-.96,1.2-1.5,1.23-4.58.08-7.86-1.2-3.41-3.39-6.09-5.31-6.51-.5-.11-.78-.04-2.28.44-.74.24-1.73.56-3.09.93-2.31,1-5.51,1.64-9.57,1.9l-.26.02v-.03c-.47,0-.82-.07-1.01-.2-.35-.23-.59-.6-.66-1.01s.04-.84.3-1.17c.42-.53.94-.57,1.44-.6.23-.02.45-.03.67-.05,1.08-.13,3.08-.45,6-1.16.77-.19,1.45-.36,2.05-.53,1.82-.83,2.3-1.71,2.43-2.11.37-1.16-.39-2.73-1.3-3.61-1.21-1.18-3.13-1.57-5.07-1.59-.35.09-.65.17-.89.23-.06.01-6.01,1.4-7.06.67-.34-.24-.57-.61-.63-1.03-.09-.63.24-1.26.81-1.55.05-.03,3.53-1.27,7.37-1.33,3.98-1.14,6.63-2.68,7.89-4.59,1.46-2.22,1.57-5.77.29-9.51-1.5-4.39-4.46-7.81-7.73-8.92-.83-.28-1.67-.41-2.56-.41ZM77.89,60.01h0,0ZM61.37,29.11h0,0Z"/>
        </g>
        <g>
          <path class="cls-1" d="M108.51,34.87c-1.36.43-3.04-7.72-8.64-9.64-3.88-1.33-9.42.4-11.5,3.93-2.62,4.47,2.39,8.25,4.03,19.76,1.52,10.66-1.8,14.31,1.49,18.09,4.65,5.34,16.64,4.25,18.56.2,1.16-2.44-1.98-4.6-3.81-13.2-1.07-5.04-.83-8.23-.68-8.25.26-.03-.35,10.1,4.65,12.79,2.41,1.3,6.07.83,7.74-1.16,3.42-4.08-2.14-13.89-1.86-13.99.15-.06,2.04,2.81,2.97,7.46,1.53,7.61-1.18,11.49.78,13.11,2.28,1.88,9.34-.59,12.05-5.54,1.97-3.59.6-8.08-2.22-16.92-3.42-10.74-5.22-16.15-9.74-18.2-4.07-1.85-9.89-1.42-12.32,1.59-2.84,3.52-.29,9.59-1.5,9.98Z"/>
          <path class="cls-4" d="M103.67,72.13c-3.8,0-8.23-1.06-10.91-4.14-2.22-2.55-1.99-5.13-1.7-8.39.23-2.6.52-5.83-.14-10.48-.71-4.97-2.06-8.43-3.15-11.22-1.4-3.58-2.51-6.42-.69-9.51,2.38-4.06,8.59-6.2,13.28-4.59,3.31,1.14,5.35,3.99,6.75,6.43-.05-2.05.21-4.41,1.74-6.3,3.08-3.8,9.72-4.01,14.11-2.01,5.21,2.37,7.11,8.32,10.55,19.11,2.85,8.94,4.42,13.87,2.1,18.09-2.09,3.82-6.26,6.15-9.46,6.77-2.07.4-3.75.12-4.86-.79-1.58-1.3-1.36-3.23-1.11-5.45,0-.05.01-.11.02-.16-2.27,1.5-5.65,1.75-8.2.43.35.86.68,1.6.98,2.25.96,2.13,1.72,3.8.83,5.68-.99,2.09-3.73,3.59-7.5,4.11-.82.11-1.71.18-2.64.18ZM96.99,26.27c-2.9,0-6.04,1.45-7.33,3.65-1.04,1.77-.48,3.39.89,6.9,1.08,2.77,2.57,6.57,3.32,11.89.71,5,.39,8.56.16,11.17-.29,3.24-.35,4.62.98,6.15,2.39,2.75,7.19,3.47,10.88,2.96,2.99-.41,4.76-1.51,5.19-2.42.27-.57.01-1.24-.86-3.15-.9-2-2.14-4.73-3.07-9.09-.79-3.73-1.19-8.4-.45-9.43.25-.34.64-.58,1.06-.62.41-.05.83.08,1.14.35.54.46.57.95.62,2.02.11,2.18.45,8.81,3.76,10.59,1.84,1,4.7.6,5.88-.8,2.14-2.55-.72-9.15-1.66-11.32-.53-1.22-.71-1.63-.43-2.29.16-.38.48-.68.87-.83.41-.15.89-.11,1.28.1,1.05.59,2.85,4.33,3.69,8.46.83,4.14.48,7.21.23,9.45-.16,1.36-.29,2.53.03,2.8.28.23,1.08.42,2.39.17,2.43-.47,5.78-2.32,7.39-5.27,1.63-2.97.46-6.97-2.33-15.74-3.42-10.73-5.09-15.55-8.93-17.29-3.67-1.67-8.69-1.11-10.53,1.17-1.36,1.69-1.11,4.4-.93,6.38.16,1.75.33,3.57-1.29,4.08,0,0,0,0,0,0-1.7.54-2.58-1.12-3.61-3.04-1.27-2.36-3.01-5.6-5.97-6.62-.74-.25-1.55-.37-2.38-.37ZM108.51,34.87h0,0Z"/>
        </g>
        <g>
          <path class="cls-1" d="M149.07,19.39c-6.67-1.06-16.07,2.36-21.39,6.83-7.85,8.8.99,29.81,10.28,34.31,8.03,2.74,19.37-2.8,24.02-12.26,2.18-9.99-3.33-25.02-12.91-28.89ZM144.07,46.79c-2.81-2.77-5.65-9.13-3.44-12.99,1.65-2.89,4.73,1.6,6.27,5.92,1.54,4.31-.26,9.74-2.83,7.07Z"/>
          <path class="cls-4" d="M142.37,62.74c-1.69,0-3.34-.25-4.89-.78-.06-.02-.11-.04-.17-.07-5.95-2.88-11.8-11.94-13.61-21.07-1.29-6.54-.28-12.07,2.86-15.59.05-.05.1-.1.15-.15,5.29-4.45,15.19-8.34,22.6-7.17.11.02.22.05.33.09,10.43,4.22,16.09,20.19,13.82,30.6-.03.12-.07.23-.12.34-4.05,8.21-12.98,13.79-20.96,13.79ZM138.53,59.15c7.35,2.43,17.78-2.95,22.02-11.36,1.9-9.19-3.16-23.27-11.89-26.94-5.75-.83-14.62,2.04-19.94,6.45-2.44,2.81-3.18,7.39-2.08,12.93,1.61,8.12,6.82,16.4,11.89,18.92ZM145.37,48.99c-.67,0-1.51-.26-2.37-1.15-3.17-3.14-6.3-10.2-3.68-14.79.9-1.58,2.15-1.73,2.81-1.66,3.32.29,5.73,6.56,6.17,7.82,1.32,3.68.62,8.06-1.5,9.37-.23.14-.75.41-1.43.41ZM145.47,46h0,0ZM141.99,34.44s-.04.06-.07.11c-1.76,3.08.76,8.77,3.2,11.18,0,0,.02.02.03.03.08.08.14.14.19.18.51-.65,1.04-3.18.14-5.7-1.19-3.33-2.8-5.41-3.49-5.79Z"/>
        </g>
        <g>
          <path class="cls-1" d="M109.67,94.37c-4.53-5.26,7.95-2.32,3.7-15.92-3.37-10.77-11.13-12.39-19.75-12.54-5.33-.09-10.66.67-15.65,2.54s-8.92,4.16-10.7,6.22c-2.13,2.97,1.41,6.19,2.87,10.11,3.5,9.39,2.44,23.16,5.27,32.03,3.85,3.04,14.76.45,18.02-2.21,3.88-3.03-2.61-16.67-1.15-17.26,1.21-.5,4.13,10.05,11.62,14.17,3.79,2.2,9.77,2.03,11.61-.5,2.33-3.6-2.78-13.07-5.86-16.65ZM88.57,86.81c-2.87-1.12-3.93-5.35-1.87-7.59,3.01-3.25,9.61-1.58,10.13,1.12.53,2.74-4.04,8.11-8.26,6.47Z"/>
          <path class="cls-4" d="M80.87,119.68c-2.54,0-4.85-.48-6.37-1.69-.23-.18-.41-.44-.5-.72-1.37-4.3-1.85-9.5-2.35-15-.54-5.97-1.11-12.14-2.9-16.96-.41-1.1-1.03-2.18-1.62-3.23-1.45-2.55-3.09-5.44-1.06-8.28.03-.04.05-.07.08-.11,1.92-2.22,6.15-4.71,11.3-6.64,4.92-1.85,10.37-2.73,16.2-2.64,8.83.15,17.5,1.9,21.15,13.59,2.8,8.96-1.14,11.79-3.5,13.49-.42.3-1.04.75-1.15.96.02,0,.1.3.65.94,3.01,3.5,9,13.77,5.98,18.44-2.55,3.49-9.52,3.37-13.63.99-3.51-1.93-6.06-5.12-7.91-8.05,1.09,4.39,1.74,8.97-.89,11.02-2.38,1.94-8.4,3.89-13.5,3.89ZM76.71,115.88c3.37,1.98,12.9-.08,15.79-2.43,1.68-1.31-.08-7.78-.93-10.88-1.07-3.92-1.61-5.89.17-6.6,1.65-.68,2.54.95,3.87,3.41,1.69,3.13,4.52,8.36,9.03,10.84,3.43,1.99,8.43,1.64,9.68-.07,1.56-2.42-2.48-10.95-5.78-14.79h0c-.66-.76-1.51-1.93-1.35-3.29.17-1.42,1.29-2.23,2.37-3,2.13-1.53,4.54-3.26,2.38-10.16-2.92-9.35-9.18-11.33-18.34-11.48-5.46-.1-10.53.73-15.09,2.45-4.52,1.7-8.45,3.95-10.04,5.74-.77,1.14-.2,2.41,1.27,4.99.65,1.15,1.33,2.34,1.83,3.67,1.93,5.19,2.52,11.57,3.08,17.74.47,5.12.91,9.97,2.07,13.88ZM90.2,88.62c-.74,0-1.47-.13-2.18-.41-1.84-.72-3.24-2.41-3.72-4.52-.47-2.04.01-4.09,1.3-5.48,2.32-2.51,6-2.58,8.44-1.89,2.35.67,3.94,2.07,4.26,3.74.38,2-.93,4.72-3.2,6.6-1.54,1.29-3.25,1.95-4.9,1.95ZM91.29,78.94c-1.3,0-2.62.37-3.49,1.31-.61.66-.82,1.69-.58,2.77.26,1.13.98,2.05,1.89,2.4,0,0,0,0,0,0,1.73.67,3.42-.51,4.07-1.05,1.6-1.33,2.3-3.05,2.17-3.73-.07-.36-.78-1.03-2.14-1.42-.59-.17-1.26-.27-1.92-.27Z"/>
        </g>
        <g>
          <path class="cls-1" d="M121.32,84.72s2.06-2.22,5.4-3.51c1.72-.66,3.92-1.52,6.25-.68,2.88,1.03,5.3,4.39,4.58,7.29-.47,1.91-2.17,3.03-2.52,3.27-1.68,1.12-3.63,1.23-3.65,1.14-.04-.17,6.84-3.72,11.43-1.64,4.64,2.11,7.42,10.24,5.1,15.83-4.43,10.69-25.8,8.07-26.71,7.95-4.39-.58-6.9-.92-9.14-2.98-4.62-4.27-1.64-10.01-4.35-24.12-1.6-8.33-3.3-9.78-1.95-13.28,2.53-6.56,11.3-8.8,14.3-9.57,4.08-1.04,8.52-2.18,12.45.38,3.95,2.57,6.41,8.21,4.72,11.15-1.49,2.59-5.13,1.19-11.32,5.09-2.86,1.8-4.6,3.68-4.59,3.69Z"/>
          <path class="cls-4" d="M127.7,116.24c-3.66,0-6.37-.34-6.69-.39-4.44-.59-7.37-.98-9.96-3.37-3.16-2.92-3.28-6.5-3.45-11.45-.12-3.46-.26-7.75-1.36-13.49-.56-2.92-1.13-4.96-1.58-6.59-.83-2.99-1.34-4.8-.29-7.51,2.8-7.28,12.23-9.69,15.33-10.48,4.29-1.1,9.15-2.34,13.64.58,4.21,2.74,7.47,9.22,5.2,13.16-1,1.73-2.59,2.2-4.45,2.66,3.13,1.44,5.82,5.21,4.93,8.81-.02.09-.05.18-.07.27,1.54-.06,3.1.14,4.5.77,5.51,2.51,8.47,11.48,5.86,17.77-3.27,7.88-14.31,9.25-21.61,9.25ZM126.96,64.74c-2.13,0-4.34.57-6.52,1.12-2.73.7-11.02,2.82-13.27,8.65-.69,1.79-.4,2.83.38,5.63.45,1.6,1.06,3.79,1.64,6.83,1.15,5.96,1.29,10.39,1.41,13.95.16,4.69.24,7.27,2.49,9.35,1.89,1.74,4.03,2.03,8.32,2.6.21.03,21.09,2.69,25.13-7.04,1.94-4.68-.37-12.08-4.33-13.89-1.62-.74-3.73-.59-5.59-.17-.23.19-.48.37-.74.55-1.72,1.14-4.16,1.64-5.02,1.29-.46-.18-.81-.59-.92-1.07-.12-.55.11-1.17.55-1.53.43-.35,2.3-1.31,4.67-1.96.49-.5.82-1.05.96-1.61.49-1.95-1.31-4.68-3.63-5.51-1.8-.64-3.61.05-5.21.67-2.48.96-4.21,2.51-4.84,3.13-.31.3-.78.5-1.2.48-.42-.03-.81-.23-1.08-.57-.26-.33-.37-.76-.3-1.18.04-.23.21-.51.47-.82l-.02-.02c.06-.05.12-.12.19-.18,1.27-1.41,4.03-3.3,4.64-3.69,3.35-2.11,6.01-2.76,7.95-3.24,1.82-.45,2.49-.66,2.87-1.32,1.14-1.99-.74-6.87-4.24-9.15-1.48-.96-3.09-1.31-4.74-1.31Z"/>
        </g>
        <g>
          <path class="cls-1" d="M151.51,78.45s2.06-2.22,5.4-3.51c1.72-.66,3.92-1.52,6.25-.68,3.1,1.11,5.44,4.83,4.58,7.29-.17.48-.53,1.12-3.31,2.84-3.49,2.16-6.64,3.46-6.61,3.54.06.16,11.62-7.22,17.34-3.52,4.3,2.78,5.26,11.8,1.45,17.36-2.85,4.17-7.54,5.17-12.1,6.15-4.18.89-16.2,3.46-22.26-2.81-4.25-4.4-.55-7.97-4.35-24.12-1.8-7.67-3.32-9.74-1.95-13.28,2.53-6.56,11.3-8.8,14.3-9.57,4.08-1.04,8.52-2.18,12.45.38,3.95,2.57,6.41,8.21,4.72,11.15-1.49,2.59-5.13,1.19-11.32,5.09-2.86,1.8-4.6,3.68-4.59,3.69Z"/>
          <path class="cls-4" d="M154.36,110.69c-4.68,0-9.75-.99-13.18-4.53-2.64-2.73-2.69-5.29-2.78-9.17-.08-3.42-.18-8.11-1.96-15.65-.5-2.12-.99-3.85-1.38-5.23-1.08-3.81-1.67-5.92-.51-8.93,2.8-7.28,12.23-9.69,15.32-10.48,4.3-1.1,9.16-2.34,13.65.58,4.21,2.74,7.47,9.22,5.2,13.16-1,1.73-2.59,2.2-4.44,2.66,3.56,1.62,5.93,5.83,4.9,8.9,2.44-.33,4.85-.11,6.8,1.15,2.06,1.33,3.55,3.82,4.19,6.99.87,4.34-.01,9.12-2.31,12.48-3.19,4.67-8.42,5.79-13.03,6.77-2.04.44-6.09,1.3-10.47,1.3ZM157.14,58.48c-2.13,0-4.34.57-6.52,1.12-2.73.7-11.03,2.82-13.27,8.65-.8,2.08-.39,3.53.6,7.03.4,1.41.9,3.17,1.41,5.36,1.85,7.84,1.96,12.71,2.04,16.27.08,3.62.12,5.26,1.94,7.15,5.48,5.67,17.06,3.2,20.87,2.38,4.46-.95,8.67-1.85,11.18-5.53,1.86-2.72,2.56-6.62,1.85-10.2-.47-2.34-1.52-4.18-2.88-5.06-1.69-1.09-5.17-1.55-12.34,1.82-.98.52-1.84.94-2.47,1.24-.1.05-.2.11-.31.17-.87.47-1.27.68-1.93.44-.41-.15-.73-.47-.88-.88-.49-1.31.65-1.86,1.56-2.3.06-.03.12-.06.19-.09.72-.39,1.7-.9,2.83-1.44.82-.44,1.72-.95,2.65-1.52,2.33-1.44,2.65-1.94,2.69-2.06.53-1.51-1.22-4.5-3.67-5.38-1.8-.64-3.61.06-5.21.67-2.48.96-4.21,2.51-4.84,3.13-.31.3-.78.5-1.2.48-.42-.03-.8-.23-1.07-.55-.26-.32-.38-.74-.32-1.16.03-.24.21-.53.47-.86l-.02-.02c.07-.07.15-.14.23-.22,1.42-1.56,4.55-3.62,4.59-3.64,3.35-2.11,6.01-2.76,7.95-3.24,1.82-.45,2.49-.66,2.87-1.32,1.14-1.99-.74-6.87-4.24-9.15-1.48-.96-3.09-1.31-4.74-1.31Z"/>
        </g>
        <g>
          <path class="cls-1" d="M169.35,56.17c-2.91,4.26,1.54,8.03,2.75,20.11,1.41,13.99-3.4,20.47,1.1,24.66,2.29,2.13,5.57,2.35,11.8,2.77,6.05.41,10.17-.74,11.2-1.04,3.84-1.13,6.58-1.93,8.37-4.42,3.42-4.75,1.94-16.31-1.58-17.61-4.53-1.68-12.44,7.01-15.25,5.32-1.11-.67.82-17.03.82-24.02,0-5.38-.03-6.35-.91-7.43-3.46-4.3-14.69-3.6-18.29,1.66Z"/>
          <path class="cls-4" d="M187.57,105.29c-.85,0-1.74-.03-2.67-.09-6.47-.43-10.04-.67-12.72-3.17-3.07-2.86-2.62-6.41-2-11.33.46-3.68,1.04-8.25.44-14.28-.51-5.12-1.61-8.66-2.5-11.51-1.19-3.83-2.05-6.6,0-9.6h0c2.43-3.55,7.31-4.97,11.08-5.11,4.2-.17,7.8,1.09,9.62,3.36,1.23,1.53,1.23,2.84,1.24,8.37,0,2.83-.31,7.14-.6,11.31-.29,4.08-.68,9.49-.53,11.42,1.01-.21,3.11-1.49,4.45-2.3,3.3-2.01,7.04-4.28,10.14-3.14,1.56.58,2.8,2.28,3.61,4.93,1.36,4.47,1.36,11.23-1.33,14.97-2.1,2.91-5.22,3.82-9.17,4.98-1.63.48-4.77,1.19-9.05,1.19ZM170.59,57.02c-1.19,1.73-.76,3.31.39,7.02.88,2.82,2.07,6.67,2.62,12.1.64,6.36.04,11.13-.44,14.95-.61,4.82-.8,7.02,1.07,8.75,1.9,1.77,4.9,1.97,10.88,2.37,5.19.35,8.92-.46,10.68-.98,3.66-1.07,6.08-1.78,7.58-3.86,1.96-2.72,2.04-8.57.9-12.34-.55-1.82-1.29-2.81-1.78-2.99-1.74-.64-4.95,1.32-7.54,2.89-3.15,1.92-5.87,3.57-7.96,2.31-1.3-.78-1.35-2.37-.51-14.21.29-4.12.6-8.37.6-11.1,0-5.19-.06-5.86-.57-6.49-1.21-1.51-3.96-2.38-7.17-2.24-3.82.15-7.24,1.64-8.72,3.81h0Z"/>
        </g>
      </g>
      <g>
        <path class="cls-3" d="M212.74,72.52v36.87c0,1.85,1.51,3.36,3.36,3.36h21.07s15.8,0,15.8,0h22.75c1.85,0,3.36-1.51,3.36-3.36v-36.87c0-1.85-1.51-3.36-3.36-3.36h-22.75s-15.8,0-15.8,0h-21.07c-1.85,0-3.36,1.51-3.36,3.36ZM275.94,104.85v3.81h-3.81v-3.81h3.81ZM268.04,104.85v3.81h-3.81v-3.81h3.81ZM260.14,104.85v3.81h-3.81v-3.81h3.81ZM252.24,104.85v3.81h-3.81v-3.81h3.81ZM244.34,104.85v3.81h-3.81v-3.81h3.81ZM233.81,104.85h2.63v3.81h-2.63s-1.18,0-1.18,0v-3.81h1.18ZM228.54,104.85v3.81h-3.81v-3.81h3.81ZM220.64,104.85v3.81h-3.81v-3.81h3.81ZM273.31,81.15v19.61h-14.35v-19.61h14.35ZM252.24,81.15v19.61h-14.35v-19.61h14.35ZM231.18,81.15v19.61h-14.35v-19.61h14.35ZM275.94,73.25v3.81h-3.81v-3.81h3.81ZM268.04,73.25v3.81h-3.81v-3.81h3.81ZM260.14,73.25v3.81h-3.81v-3.81h3.81ZM252.24,73.25v3.81h-3.81v-3.81h3.81ZM244.34,73.25v3.81h-3.81v-3.81h3.81ZM233.81,73.25h2.63v3.81h-2.63s-1.18,0-1.18,0v-3.81h1.18ZM228.54,73.25v3.81h-3.81v-3.81h3.81ZM220.64,73.25v3.81h-3.81v-3.81h3.81Z"/>
        <g>
          <path class="cls-2" d="M275.77,60.11c-.76,1.02-1.08,2.28-.9,3.55.38,2.61,2.81,4.42,5.42,4.04,1.26-.18,2.38-.85,3.14-1.87.76-1.02,1.08-2.28.9-3.55-.19-1.26-.85-2.38-1.87-3.14-.83-.62-1.82-.95-2.84-.95-.23,0-.47.02-.7.05-1.26.18-2.38.85-3.14,1.87Z"/>
          <path class="cls-2" d="M297.46,109.99c.1-.56-.03-1.13-.35-1.6l-9.14-13.79c-.11-.17-.25-.32-.4-.45l-1.08-.92.7-3.6c.08-.43.11-.87.1-1.31l-.58-14.43c-.05-1.1-.56-2.14-1.41-2.84-.85-.7-1.96-1.01-3.05-.86l-5.03.74c-.6.09-1.14.43-1.48.94l-.29.45h0s-5.52,8.41-5.52,8.41c-.22.34-.35.73-.35,1.13l-.21,10.7c-.01.57.2,1.11.6,1.52.4.41.93.65,1.5.66h.04c1.16,0,2.12-.93,2.14-2.1l.2-10.08,2.13-3.24.98,10.59c.05.56.32,1.07.74,1.43l6.92,5.94,8.99,13.57c.33.47.82.78,1.38.88.56.1,1.13-.03,1.6-.35.47-.33.78-.82.88-1.38Z"/>
          <path class="cls-4" d="M279.6,68.74c.28,0,.56-.02.84-.06,1.53-.22,2.88-1.03,3.8-2.27s1.31-2.76,1.08-4.29-1.03-2.88-2.27-3.8c-1.24-.92-2.76-1.3-4.29-1.08-1.53.22-2.88,1.03-3.8,2.27-.92,1.24-1.31,2.76-1.08,4.29.42,2.87,2.89,4.94,5.71,4.94ZM279.61,58.19c1.02,0,2.01.33,2.84.95,1.02.76,1.69,1.88,1.87,3.14.18,1.26-.13,2.52-.9,3.55-.76,1.02-1.88,1.69-3.14,1.87-2.61.38-5.04-1.43-5.42-4.04-.19-1.26.13-2.52.9-3.55.76-1.02,1.88-1.69,3.14-1.87.23-.04.47-.05.7-.05Z"/>
          <path class="cls-4" d="M288.8,94.05c-.16-.24-.35-.46-.58-.65l-.64-.54.59-3.03c.1-.5.13-1.02.11-1.53l-.58-14.43c-.06-1.38-.7-2.69-1.77-3.57-1.07-.88-2.47-1.28-3.83-1.08l-5.03.74c-.71.1-1.36.45-1.84.96l-.04-.03-6.11,9.3c-.33.5-.51,1.07-.52,1.66l-.21,10.7c-.02.84.29,1.63.88,2.24s1.36.95,2.2.96c1.72,0,3.17-1.35,3.2-3.08l.19-9.79.4-.61.72,7.75c.08.82.47,1.57,1.09,2.1l6.78,5.79,8.88,13.39.09.14c.48.69,1.2,1.15,2.03,1.29.18.03.37.05.55.05.64,0,1.26-.2,1.79-.57.69-.48,1.15-1.2,1.29-2.03.15-.83-.04-1.66-.51-2.33l-9.13-13.78ZM294.98,111.73c-.56-.1-1.05-.41-1.38-.88l-8.99-13.57-6.92-5.94c-.43-.36-.69-.87-.74-1.43l-.98-10.59-2.13,3.24-.2,10.08c-.02,1.17-.98,2.1-2.14,2.1h-.04c-.57-.01-1.1-.24-1.5-.66-.4-.41-.61-.95-.6-1.52l.21-10.7c0-.4.13-.79.35-1.13l5.52-8.41h0s.29-.44.29-.44c.33-.51.87-.85,1.48-.94l5.03-.74c1.09-.16,2.2.15,3.05.86.85.7,1.36,1.74,1.41,2.84l.58,14.43c.02.44-.02.88-.1,1.31l-.7,3.6,1.08.92c.15.13.29.29.4.45l9.14,13.79c.33.47.45,1.04.35,1.6-.1.56-.41,1.05-.88,1.38-.47.33-1.04.45-1.6.35Z"/>
          <path class="cls-2" d="M278.01,94.59l.72,4.94-6.61,11.81c-.71,1.27-.26,2.88,1.02,3.59.41.23.85.34,1.29.34.93,0,1.82-.49,2.31-1.35l7.05-12.59c.15-.27.25-.56.3-.87l-1.18-1.69-4.89-4.17Z"/>
          <path class="cls-2" d="M301.55,79.31c-.19-1.31-1.32-2.26-2.61-2.26-.13,0-.26,0-.39.03l-5.01.73-4.49-3.34v.24s.24,6.52.24,6.52l1.97,1.47h0c.46.34,1.01.52,1.58.52.13,0,.26,0,.38-.03l6.1-.89c1.44-.21,2.44-1.55,2.23-2.99Z"/>
          <path class="cls-4" d="M302.54,79.17c-.26-1.77-1.81-3.11-3.6-3.11-.18,0-.35.01-.53.04l-4.6.67-4.15-3.09-1.72-1.28.12,2.14v.24s.24,6.5.24,6.5l.02.48.39.29.78.58,1.18.88c.62.47,1.4.72,2.18.72.18,0,.35-.01.53-.04l6.1-.89c1.99-.29,3.36-2.14,3.07-4.13ZM292.85,83.22c-.57,0-1.12-.18-1.58-.52h0s-1.97-1.47-1.97-1.47l-.23-6.52v-.24s4.47,3.34,4.47,3.34l5.01-.73c.13-.02.26-.03.39-.03,1.29,0,2.42.94,2.61,2.26.21,1.44-.79,2.78-2.23,2.99l-6.1.89c-.13.02-.26.03-.38.03Z"/>
          <path class="cls-4" d="M283.72,98.19l-.07-.11-.1-.08-4.89-4.17-2.02-1.73.39,2.63.67,4.6-6.44,11.51c-.98,1.75-.35,3.97,1.4,4.95.54.3,1.16.46,1.77.46,1.32,0,2.54-.71,3.18-1.86l7.05-12.59c.21-.38.34-.77.41-1.18l.07-.4-.23-.34-1.18-1.69ZM283.77,101.32l-7.05,12.59c-.48.87-1.38,1.35-2.31,1.35-.44,0-.88-.11-1.29-.34-1.27-.71-1.73-2.32-1.02-3.59l6.61-11.81-.72-4.94,4.89,4.17,1.18,1.69c-.05.3-.15.6-.3.87Z"/>
        </g>
      </g>
      <path class="cls-3" d="M236.93,19.13c-1.04,1.65-1.5,4.66-1.76,8.31-.32,4.95-.31,11.4.58,16.07,1.32,8.98,10.23,2.99,15.16.76,5.24-3.07,18.61-8.77,13.73-14.01-2.72-3.02-7.21-5.39-11.18-7.56-4.3-2.02-13.64-8.08-16.46-3.67l-.06.1Z"/>
    </g>
  </g>
</svg>