<?xml version="1.0" encoding="UTF-8"?>
<svg id="Layer_2" data-name="Layer 2" xmlns="http://www.w3.org/2000/svg" viewBox="0 0 309.16 131.12">
  <defs>
    <style>
      .cls-1 {
        fill: #faa501;
      }

      .cls-2 {
        fill: #0c9;
      }

      .cls-3 {
        fill: #003;
      }

      .cls-4 {
        fill: #e3fff2;
      }

      .cls-5 {
        fill: #c06;
      }
    </style>
  </defs>
  <g id="middle">
    <g>
      <path class="cls-2" d="M295.02,37.79c.89-5.61,3.38-10.89,6.1-15.86,4.85-9.22,11.24-16.63,1.54-20.21-4.9-1.64-10.55-1.77-15.5-1.71-34.71.3-68,.22-113.75.33-44.29.19-86.81-.16-121.6.27-3.1.14-6.17.43-9.18,1.03-11.62,1.96-21.09,10.35-24.46,21.35-2.37,7.35-1.9,12.26-1.98,21.84,0,6.22,0,14.36,0,22.37,0,8.59,0,17,0,22.86-.39,11.65,1.19,23.12,10.12,31.75,6.67,6.27,16.43,9.6,24.72,9.29,26.14-.04,147.45.03,202.82,0,15.01.07,32.05-5,43.59-15.98,9.02-8.83,14.12-23.08,10.58-35.31-3.89-14.1-15.66-26.36-13.03-41.84l.03-.18Z"/>
      <g>
        <g>
          <g>
            <path class="cls-3" d="M55.17,35.03c-7.93-4.61-18.01-3.65-26.87-1.07-10.32,3.01-20.26,8.59-26.31,12.82-1.13.79-1.7,2.18-1.45,3.54l14.18,76.39c.36,1.92,2.2,3.18,4.12,2.83.5-.09.97-.29,1.38-.58,5.61-3.91,14.86-9.09,24.24-11.83,9.6-2.8,18.1-2.73,23.51,1.94,1.48,1.27,3.71,1.11,4.98-.37.17-.2.31-.41.44-.63,3.38-6.3,11.28-9.41,21.25-10.24,9.75-.81,20.24.7,26.88,2.34,1.89.47,3.81-.68,4.28-2.58.12-.49.14-1,.04-1.49l-14.18-76.39c-.25-1.36-1.28-2.45-2.62-2.78-7.17-1.78-18.45-3.42-29.16-2.53-9.2.77-18.95,3.49-24.7,10.64"/>
            <path class="cls-3" d="M71.15,119.84c.77-.41,1.51-1.17,2.03-2.2.14-.27.26.3.36.02,2.73-8,9.41-13.84,17.92-18.44,8.33-4.5,17.36-6.8,23.08-7.51,1.63-.2,3.24-2.15,3.6-4.35.09-.57.09-1.12,0-1.61l-14.18-76.39c-.25-1.36-1.16-2.14-2.32-2-6.19.77-15.89,3.22-25.04,8.16-7.86,4.24-16.14,10.79-20.87,20.58"/>
            <path class="cls-5" d="M70.91,119.84c.62-.49,1.2-1.35,1.59-2.44.1-.29.19-.59.26-.89,1.96-8.42,7.23-15.47,14.04-21.01,6.67-5.41,13.98-8.66,18.65-9.96,1.33-.37,2.58-2.51,2.8-4.79.06-.59.04-1.15-.06-1.64L94.02,2.72c-.25-1.36-1.02-2.07-1.97-1.8-5.04,1.4-12.91,4.87-20.23,10.82-6.29,5.11-12.85,12.6-16.4,23.04"/>
          </g>
          <path class="cls-2" d="M57.42,93.59c-.88-1.72-2.45-2.67-4.44-2.69-1.48-.01-2.97-.01-4.42,0-.62,0-1.24,0-1.85,0-.22,0-.46,0-.61,0-.09-.11-.22-.3-.35-.46-.42-.58-.3-1.44.27-1.87.03-.03.07-.05.1-.08.24-.18.54-.4.81-.74,1.1-1.39,1.32-3.02.61-4.59-.72-1.61-2.14-2.5-3.99-2.52-.89,0-1.8,0-2.68,0-.39,0-.78,0-1.17,0h-1.31c-.86,0-1.71,0-2.57,0-.77,0-1.49.18-2.14.54-1.88,1.05-2.66,3.14-1.94,5.19.17.5.04.9-.1,1.15-.22.39-.61.68-1.05.77-1.96.42-3.65,1.57-4.75,3.24-1.07,1.62-1.49,3.58-1.2,5.52.3,1.96,1.21,3.64,2.64,4.86,1.42,1.21,3.22,1.84,5.21,1.85.64,0,1.29,0,1.93,0,.84,0,1.7,0,2.56,0,1.03,0,2.08,0,3.11-.01,2.44-.02,4.52-1.01,6.03-2.85,2.21,0,4.57.02,6.98,0,1.61-.01,2.96-.71,3.89-2.02,1.16-1.63,1.3-3.49.4-5.26Z"/>
          <path class="cls-1" d="M87.68,22.77c-.42-.15-.86-.23-1.31-.23h-6.22c-.18,0-.37.01-.55.04-.14,0-.27-.01-.39-.01h-6.22c-1.14,0-2.25.25-3.28.74-1.87.88-3.28,2.44-3.98,4.39-.7,1.95-.6,4.05.28,5.92,1.27,2.71,4.02,4.46,7,4.46h6.22c1.14,0,2.25-.25,3.29-.74,2.42-1.14,4.11-3.51,4.39-6.19.06-.51.39-.95.87-1.13,1.05-.41,1.85-1.22,2.24-2.3.72-2.01-.32-4.23-2.32-4.95Z"/>
          <path class="cls-3" d="M88.16,65.54s0-.01,0-.02c0-.02,0-.03,0-.05,0-.01,0-.02,0-.03,0-.01,0-.02,0-.03,0-.03-.02-.05-.03-.08,0,0,0-.01,0-.02-.02-.03-.04-.05-.07-.08,0,0-.01-.01-.02-.02-.01-.01-.02-.02-.04-.03l-1.03-.62s0,0,0,0l-4.79-2.86s0,0,0,0l-.63-.38s-.01,0-.02,0c0,0-.01-.01-.02-.01-.01,0-.03,0-.04-.01-.02,0-.03-.01-.05-.01-.02,0-.05,0-.07,0-.02,0-.03,0-.05,0-.03,0-.05.01-.07.02-.01,0-.03,0-.04.01-.04.02-.07.04-.1.07l-1.9,1.91-2.1,2.11s0,0,0,0l-.85.86s-.05.07-.07.1c0,0,0,.01-.01.02-.02.04-.03.08-.03.12,0,0,0,0,0,0l-.29,6.2s0,.01,0,.02c0,.02,0,.03,0,.05,0,.01,0,.02,0,.03,0,.01,0,.02,0,.03,0,.03.02.05.03.08,0,0,0,.01,0,.02.02.03.04.05.07.08,0,0,.01.01.02.02.01.01.02.02.04.03l1.04.62s0,0,0,0l4.79,2.86s0,0,0,0l.63.38s.02,0,.02.01c0,0,.01,0,.02.01.01,0,.02,0,.04.01,0,0,.02,0,.03,0,.03,0,.06.01.09.01.05,0,.1,0,.15-.03s.09-.05.13-.08l1.73-1.74s0,0,0,0l2.86-2.88h0s0,0,0,0l.25-.26s.05-.07.07-.1c0,0,0-.01.01-.02.02-.04.03-.08.03-.12,0,0,0,0,0,0l.02-.36s0,0,0,0l.16-3.39s0,0,0,0l.11-2.44Z"/>
          <path class="cls-5" d="M52.21,64.92s.03-.05.04-.08c0-.01,0-.02,0-.03,0-.04.01-.08,0-.12l-.08-.58s0,0,0,0l-.74-5.19-.04-.27-.4-2.82s-.02-.08-.04-.12c0,0,0,0,0-.01-.02-.03-.05-.06-.08-.09,0,0,0,0,0,0,0,0,0,0,0,0,0,0-.01-.01-.02-.01l-.58-.34-.87-.51h0s0,0,0,0l-1.1-.64s-.06-.03-.1-.04c0,0-.01,0-.02,0-.04,0-.07,0-.11,0,0,0-.01,0-.02,0l-8.74,1.58s0,0-.02,0c-.03,0-.07.02-.1.04,0,0-.01,0-.02,0,0,0,0,0,0,0-.03.02-.06.05-.08.08,0,0-.01.02-.02.03-.02.03-.03.05-.04.08,0,.01,0,.02,0,.03,0,.04-.01.08,0,.12l.42,2.92.75,5.31s0,0,0,0l.09.63s.02.08.04.12c0,0,0,0,0,.01.02.03.05.06.08.09,0,0,0,0,0,0,0,0,0,0,.01,0,0,0,.01,0,.02.01l2.55,1.49s.03.01.05.02c.01,0,.02,0,.03.01.03,0,.07.02.1.02.02,0,.04,0,.06,0l6.94-1.25,1.22-.22s0,0,0,0l.58-.11s0,0,.01,0c.03,0,.07-.02.1-.04,0,0,.01,0,.02,0,0,0,0,0,0,0,.03-.02.06-.05.08-.08,0,0,.01-.02.02-.03Z"/>
        </g>
        <path class="cls-5" d="M35.71,32.85c-12.08,2.13-23.33,7.77-33.36,14.68-1.33.87-1.63,2.42-1.2,3.89,0,0,.47,2.41.47,2.41l.93,4.82c4.17,21.99,8.99,45.58,12.94,67.55.16,1.54.71,2.5,2.1,2.91,1.02.27,1.95-.18,2.76-.79,3.1-2.04,6.33-3.91,9.67-5.53,5.91-2.91,12.15-5.19,18.64-6.35,0,0,.04.18.04.18-6.31,1.67-12.36,4.19-18.08,7.33-3.38,1.86-6.7,3.84-9.83,6.08-2.95,2.19-6.9.07-7.15-3.49C9.45,104.64,5.49,80.85,1.49,58.85c0,0-.86-4.84-.86-4.84-.09-.67-.58-2.95-.62-3.7-.07-1.38.68-2.8,1.84-3.52,4.76-3.23,9.83-6,15.07-8.37,6-2.66,12.27-4.83,18.77-5.77l.03.19h0Z"/>
      </g>
      <g>
        <g>
          <path class="cls-4" d="M106.23,35.03c-.52,1.27.46,2.57,1.27,4.4,1.46,2.84,3.18,7.36,4.71,9.89.42.35.7-.22.97-.58,1.58-2.49,5.55-7.7,11.35-9.15,2.2-.61,8.57-1.25,8.68,1.75-.34,1.29-2.68,2.56-5.71,4.73-2.53,1.86-5.16,3.63-6.9,5.91-3.4,4.66-6.24,16.52-2.45,24.73.75,1.83,2.49,2.66,4.35,2.06,9.53-2.64,19.95-4.78,29.52-7.57,1.48-.46,1.97-1.57,1.75-2.99-.58-3.14-.77-7.48-2.13-9.96-.37-.36-.87-.33-1.39-.26-3.07.56-10.48,2.57-14.34,3.83-.6.17-1.37.33-1.66-.26-.45-.89.48-3.51,1.48-5.07,2.7-4.44,7.95-6.11,11.66-9.41,4.68-4.83,1.23-13.91-3.55-19.09-8.41-8.75-26.85-5.02-37.55,6.87l-.07.17Z"/>
          <path class="cls-2" d="M121.32,79.97c-1.77,0-3.36-1.06-4.1-2.88-3.88-8.4-1.13-20.64,2.57-25.7,1.64-2.14,3.97-3.83,6.22-5.47l.9-.65c.73-.53,1.42-.99,2.04-1.42,1.5-1.02,2.92-2,3.24-2.63-.04-.2-.15-.35-.35-.5-1.38-1.01-5.31-.65-7.04-.17-5.64,1.41-9.41,6.57-10.77,8.72l-.15.21c-.24.34-.59.85-1.25.93-.38.05-.76-.07-1.07-.34-.08-.07-.15-.15-.21-.25-.93-1.53-1.9-3.73-2.85-5.86-.67-1.51-1.3-2.93-1.89-4.08-.2-.45-.39-.83-.56-1.18-.68-1.36-1.32-2.65-.74-4.06,0,0,0,0,0,0l.07-.17c.04-.11.1-.2.18-.29,6.53-7.26,16.15-11.86,25.11-12,5.8-.12,10.6,1.67,13.91,5.11,5.49,5.95,8.4,15.46,3.54,20.48-1.5,1.34-3.16,2.38-4.77,3.39-2.67,1.68-5.19,3.26-6.76,5.84-.92,1.43-1.49,3.28-1.46,3.96.1-.01.26-.04.51-.11,3.68-1.2,11.23-3.27,14.43-3.85.56-.08,1.52-.21,2.27.53.07.07.13.15.18.24,1.06,1.94,1.44,4.73,1.81,7.43.14,1.01.27,1.97.43,2.83.31,2.06-.58,3.55-2.44,4.13-5.26,1.53-10.81,2.88-16.18,4.18-4.45,1.08-9.05,2.2-13.37,3.39-.48.16-.97.23-1.44.23ZM128.64,38.08c1.65,0,3.32.25,4.37,1.03.75.55,1.16,1.31,1.19,2.2,0,.1,0,.2-.03.29-.35,1.34-1.84,2.36-4.09,3.9-.62.42-1.29.88-2,1.39l-.89.65c-2.23,1.62-4.34,3.16-5.79,5.05-3.31,4.53-5.88,16.04-2.34,23.71.56,1.38,1.79,1.96,3.14,1.53,4.39-1.22,9.01-2.34,13.47-3.42,5.35-1.3,10.88-2.64,16.08-4.16.65-.2,1.24-.58,1.04-1.89-.16-.88-.3-1.85-.44-2.89-.33-2.41-.66-4.89-1.47-6.52-.07,0-.22,0-.49.03-3.08.56-10.5,2.59-14.16,3.79-1.47.41-2.42.15-2.87-.78-.77-1.54.73-4.8,1.54-6.05,1.8-2.96,4.64-4.75,7.39-6.48,1.61-1.01,3.13-1.96,4.45-3.14,3.99-4.12,1.24-12.39-3.62-17.66-2.9-3.01-7.2-4.55-12.42-4.48-8.37.14-17.37,4.43-23.54,11.22h0c-.22.55.1,1.24.68,2.42.19.38.39.78.57,1.2.59,1.15,1.24,2.6,1.92,4.14.74,1.67,1.5,3.38,2.21,4.72,1.58-2.43,5.65-7.74,11.74-9.26.93-.26,2.63-.54,4.36-.54Z"/>
        </g>
        <g>
          <path class="cls-4" d="M216.71,30.69c-1.08,1.87,0,4.63.28,6.87.48,1.45.6,5.95,2.72,4.05,2.53-2.08,8.42-5.72,12.51-4.89,1.53.25,2.6,1.49,2.31,3.01-1.46,7.52-11.68,14.79-21.01,18.43-.93.36-1.94.81-2.58,1.5-.55.57-.84,1.31-1.01,2.09-.41,2.47-.96,5.11-1.79,7.72-.41,1.24-.9,3.15.92,3.27,8.2,1.18,23.34,3.12,32.25,3.48,1.17.08,1.86-.73,2.14-1.84.57-2,1.6-5.44,2.34-7.66.57-1.6.14-2.31-1.62-2.37-3.01-.27-6.75-.32-9.61-.89-.86-.34.23-.96.93-1.54,30-20,6.78-57.26-18.66-31.38l-.11.17Z"/>
          <path class="cls-2" d="M241.46,77.21c-.08,0-.15,0-.23,0-8.22-.33-22.56-2.08-32.32-3.49-.95-.06-1.49-.55-1.76-.95-.68-1.01-.37-2.4.04-3.62.69-2.16,1.25-4.56,1.76-7.57.25-1.13.66-1.97,1.27-2.61.75-.81,1.86-1.32,2.94-1.74,8.84-3.45,18.99-10.45,20.39-17.68.08-.4,0-.78-.22-1.1-.27-.38-.73-.65-1.26-.73-3.52-.72-9.05,2.49-11.72,4.68-.87.78-1.62.76-2.09.6-1.31-.45-1.65-2.28-1.95-3.91-.09-.48-.18-.94-.26-1.2-.02-.06-.03-.12-.04-.19-.07-.54-.19-1.12-.32-1.74-.39-1.89-.83-4.04.16-5.75,0-.01.01-.02.02-.03l.11-.17c.04-.06.08-.12.13-.17,10.33-10.5,18.89-9.73,23.08-8.33,6,2,10.31,7.6,11.25,14.61,1.31,9.77-4.05,19.71-14.33,26.59,1.58.22,3.34.33,5.06.43,1.07.07,2.12.13,3.09.22.72.02,1.82.16,2.41,1.03.59.87.32,1.94.06,2.67-.7,2.12-1.72,5.51-2.32,7.6-.41,1.62-1.5,2.57-2.94,2.57ZM230.97,35.59c.5,0,.99.04,1.46.14,1.02.16,1.96.73,2.54,1.55.53.76.73,1.69.55,2.63-1.56,8.03-11.99,15.41-21.63,19.17-.86.34-1.72.72-2.21,1.25-.37.38-.61.91-.77,1.62-.51,3.05-1.09,5.55-1.82,7.81-.47,1.44-.33,1.81-.28,1.89.01.02.09.07.31.08,9.8,1.4,24.05,3.15,32.22,3.48.23.01.85.06,1.13-1.08.61-2.15,1.64-5.57,2.36-7.73.24-.67.18-.88.17-.91h0s-.2-.13-.88-.15c-1.01-.09-2.04-.15-3.08-.22-2.3-.14-4.67-.29-6.69-.69-.06-.01-.11-.03-.17-.05-.72-.29-.9-.8-.94-1.08-.12-.85.6-1.4,1.24-1.88.12-.09.24-.19.36-.28.03-.02.05-.04.08-.06,9.68-6.45,14.74-15.69,13.53-24.71-.83-6.24-4.63-11.22-9.9-12.97-6.44-2.15-13.88.61-20.94,7.76l-.04.06c-.6,1.06-.26,2.72.08,4.33.12.6.25,1.21.33,1.8.11.37.2.84.3,1.37.12.62.34,1.84.61,2.29.04-.03.1-.07.17-.14,2.39-1.97,7.6-5.27,11.92-5.27Z"/>
        </g>
        <g>
          <path class="cls-4" d="M176.45,29.87c-4.76-5.75-14.26-6.64-20.69-3.86-11.28,4.08-8.97,32.38-2.93,43.54,7.18,12.07,24.58,7.37,28.31-4.26,2.8-9.63,1.72-26.95-4.56-35.27l-.12-.15ZM168.7,55.86c-.35,2.71-4.1,6.74-5.92,3.02-1.7-3.85-.55-14.68,1.45-15.37,1.37-.14,2.11,1.44,2.84,2.59,1.43,2.62,2.32,6.5,1.69,9.49l-.06.26Z"/>
          <path class="cls-2" d="M165.08,77.62c-5.5,0-10.2-2.68-13.1-7.56-4.75-8.78-7.17-27.07-3.18-37.55,1.48-3.89,3.71-6.39,6.62-7.45,6.62-2.85,16.63-2.09,21.8,4.17l.12.15c6.33,8.38,7.72,26.01,4.75,36.19-2.04,6.36-8.07,11.14-15.03,11.94-.67.08-1.34.11-1.99.11ZM163.48,25.51c-2.62,0-5.19.5-7.32,1.42-2.4.87-4.23,2.98-5.49,6.3-3.74,9.83-1.39,27.65,3.05,35.85,2.8,4.71,7.6,7.08,13.13,6.45,6.19-.7,11.55-4.94,13.34-10.53,2.82-9.7,1.54-26.48-4.41-34.36l-.09-.11h0c-2.88-3.48-7.62-5-12.21-5ZM164.7,61.38c-.83,0-1.99-.36-2.83-2.06-1.53-3.45-1.01-11.6.46-14.98.43-.98.94-1.56,1.56-1.77.07-.02.15-.04.22-.05,1.83-.2,2.8,1.42,3.51,2.6.09.16.19.31.28.46,1.45,2.64,2.55,6.79,1.82,10.23l-.05.23c-.31,2.17-2.32,4.95-4.5,5.31-.14.02-.3.04-.48.04ZM164.48,44.51c-1.07,1.08-2.4,10.33-.8,13.96.49,1,.98.92,1.17.9,1.13-.19,2.65-2.12,2.85-3.64,0-.03,0-.06.02-.09l.06-.26c.53-2.5-.13-6.11-1.59-8.79-.07-.1-.17-.27-.27-.44-.54-.9-.98-1.55-1.44-1.64Z"/>
        </g>
        <g>
          <path class="cls-4" d="M184.36,39.02c-.69-.21-1.15-.97-1.44-1.66-2.32-5.64-.69-12.47,3.77-16.76,17.1-14.53,43.81,10.95,12.41,34.44-.67.87.77.63,1.28.6,2.08.11,9.46-2.81,9.69.21,0,3.14-.92,6.53-1.24,9.67-.15,2.3-1.83,3.15-3.99,3.01-8.18,0-15.01,0-23.22,0-.86,0-1.98-.04-2.58-.5-.55-.4-.66-1.17-.57-2.24.19-1.98.52-4.7.82-6.83.15-9.25,10.35-11.07,17.54-17.82,9.05-7.99.11-15.84-3.19-9.59-.81,2.4-2.16,4.52-4.56,5.55-1.61.87-3.36,2.26-4.57,1.97l-.14-.04Z"/>
          <path class="cls-2" d="M205.28,69.54c-.17,0-.34,0-.51-.02h-4.11c-6.43,0-12.27.01-19.04.01-1.11,0-2.35-.07-3.19-.71-1.02-.75-1.05-2.06-.96-3.12.19-1.96.51-4.63.82-6.83.14-6.67,5.09-9.77,10.33-13.04,2.56-1.6,5.21-3.25,7.52-5.43,4.19-3.7,3.77-6.71,3.4-7.83-.42-1.28-1.44-2.19-2.52-2.28-.97-.09-1.84.51-2.47,1.65-1.06,3.07-2.72,5.05-5.08,6.07-.3.17-.69.4-1.08.64-1.38.83-2.8,1.7-4.12,1.39l-.18-.05h-.03c-.87-.28-1.57-1.03-2.07-2.24-2.43-5.91-.79-13.26,4-17.87,5.19-4.42,11.81-5.68,17.74-3.43,5.77,2.19,9.88,7.32,10.73,13.39.68,4.85-.19,14.36-13.09,24.7.51-.09,1.14-.22,1.75-.36,2.73-.59,5.55-1.21,7.05-.1.54.4.85.98.9,1.68,0,2.1-.35,4.19-.7,6.21-.22,1.27-.42,2.46-.54,3.63-.07,1.17-.53,2.18-1.31,2.86-.79.7-1.9,1.06-3.23,1.06ZM204.83,67.52c.77.05,1.75,0,2.36-.55.39-.34.59-.84.64-1.53.13-1.28.35-2.56.57-3.81.33-1.94.68-3.95.68-5.8,0-.09-.06-.13-.1-.16-.76-.57-3.68.07-5.43.45-1.33.29-2.39.53-3.15.5h-.13c-.7.08-1.75.17-2.2-.65-.15-.28-.32-.84.23-1.57.06-.07.12-.14.19-.19,13.68-10.23,14.63-19.51,13.98-24.12-.75-5.34-4.37-9.86-9.46-11.79-5.32-2.02-11.04-.91-15.69,3.04-4.17,4.01-5.62,10.45-3.5,15.62.29.7.6,1.02.8,1.08l.12.03c.49.11,1.7-.62,2.59-1.16.42-.25.84-.51,1.25-.73,1.91-.83,3.22-2.45,4.08-4.99.02-.05.04-.1.06-.15,1.01-1.92,2.63-2.92,4.44-2.78,1.9.16,3.57,1.59,4.25,3.65.5,1.5,1.11,5.48-3.95,9.94-2.43,2.29-5.17,4-7.81,5.65-5.19,3.24-9.29,5.8-9.39,11.44,0,.04,0,.08,0,.12-.31,2.14-.63,4.87-.82,6.79-.09,1.03.08,1.28.16,1.34.39.3,1.56.3,2,.31,6.77,0,12.6,0,19.03,0h4.17Z"/>
        </g>
        <g>
          <path class="cls-4" d="M101.84,88.46c-.23-1.64-.81-5.88-4.2-8.27-4.48-3.16-11.68-1.59-15.11,2.31-2.05,2.33-1.98,7.08-1.74,16.48.29,11.52,1.42,12.92,2.49,13.65,3.51,2.41,10.3.37,11.47-2.88,1.06-2.97-2.94-5.87-1.55-8.38,1.06-1.91,3.67-.74,6.16-2.91,3.45-3.02,2.63-8.98,2.49-10ZM92.16,92.05c-1.55.06-1.67-2.91-.12-2.98s1.67,2.91.12,2.98Z"/>
          <path class="cls-2" d="M87.13,114.67c-1.54,0-3.12-.34-4.42-1.22-1.48-1.01-2.63-2.72-2.92-14.45-.24-9.34-.37-14.49,1.99-17.17,3.61-4.1,11.4-6.02,16.44-2.46,3.74,2.64,4.38,7.23,4.61,8.95l-.99.14.99-.14c.31,2.26.66,7.84-2.82,10.89-1.44,1.26-2.89,1.54-4.06,1.77-1.14.23-1.6.36-1.88.86-.42.76-.02,1.69.7,3.14.75,1.51,1.59,3.23.92,5.1-.61,1.71-2.47,3.22-4.97,4.02-1.05.34-2.31.57-3.58.57ZM91.95,79.5c-3.31,0-6.75,1.47-8.66,3.65-1.84,2.09-1.71,7.25-1.49,15.8.29,11.65,1.48,12.46,2.06,12.85,1.46,1,3.91,1.16,6.25.4,1.88-.61,3.3-1.68,3.7-2.79.38-1.07-.21-2.27-.83-3.54-.75-1.53-1.61-3.27-.65-4.99.76-1.37,2.08-1.63,3.24-1.86,1.03-.2,2.1-.42,3.13-1.32,2.75-2.4,2.42-7.17,2.15-9.11h0c-.21-1.49-.75-5.45-3.79-7.59-1.48-1.04-3.28-1.5-5.12-1.5ZM92.11,93.05c-1.21,0-2.11-.99-2.17-2.4-.06-1.44.81-2.53,2.06-2.58,1.25-.03,2.2.96,2.26,2.4.06,1.44-.81,2.52-2.06,2.58h0s-.06,0-.09,0ZM92.1,90.07c-.08.03-.17.21-.16.5.01.28.12.46.16.48l.06,1-.04-1s.02,0,.02,0c.04-.03.13-.21.12-.5-.01-.28-.12-.46-.16-.48Z"/>
        </g>
        <g>
          <path class="cls-4" d="M121.7,80.28c-3.93-3.75-13.23-2.29-17.27,2.64-1.58,1.93-1.93,6.09-2.55,14.34-.77,10.13-.12,11.31.49,12.05,3.56,4.29,14.09,3.6,18.51-1.72,1.85-2.23,2.05-5.89,2.36-13.13.35-8.13.52-12.2-1.55-14.17ZM113.2,98.91c-1.19.05-1.48-7.1-.29-7.15s1.48,7.1.29,7.15Z"/>
          <path class="cls-2" d="M109.95,113.11h0c-3.63,0-6.67-1.15-8.34-3.16-.91-1.09-1.49-2.65-.72-12.76.62-8.18.96-12.69,2.77-14.9,2.36-2.88,6.49-4.83,10.79-5.09,3.31-.2,6.13.64,7.94,2.36,2.4,2.29,2.22,6.52,1.85,14.94-.31,7.22-.48,11.19-2.59,13.73-2.5,3.01-6.99,4.88-11.7,4.88ZM115.38,79.17c-.27,0-.54,0-.81.03-3.7.23-7.38,1.94-9.37,4.36-1.41,1.72-1.76,6.26-2.33,13.78-.76,10.09-.07,10.93.27,11.33,1.27,1.52,3.81,2.44,6.8,2.44h0c4.08,0,8.07-1.63,10.17-4.16,1.61-1.94,1.82-5.24,2.13-12.53.33-7.58.5-11.75-1.24-13.41h0c-1.24-1.18-3.26-1.84-5.63-1.84ZM113.18,99.91c-1.22,0-1.9-1.51-2.02-4.49-.12-3.04.45-4.6,1.71-4.65,1.27-.05,1.96,1.46,2.08,4.49.12,3.04-.45,4.6-1.71,4.65h0s-.04,0-.06,0ZM113.2,98.91h0,0Z"/>
        </g>
        <g>
          <path class="cls-4" d="M148.81,81.81c-4.19-6.38-17.3-5.65-22.02.07-1,1.2-1,1.88-2.42,13.9-1.13,9.59-1.44,11.76.16,13.46.56.59,3,2.89,9.95,1.28-.81-6.89-1.03-10.37-.67-10.43.37-.06,1.34,3.41,2.92,10.42,3.86-.08,7.72-.15,11.57-.23-.01-1.34-.18-3.06-.77-4.96-1.35-4.36-4.12-7.07-5.57-8.3,1.34-.07,3.55-.42,5.39-1.99,3.75-3.2,3.81-9.64,1.46-13.22ZM139,89.53c-2.14.09-2.27-3.12-.13-3.21s2.27,3.12.13,3.21Z"/>
          <path class="cls-2" d="M130.02,112.09c-3.55,0-5.37-1.25-6.23-2.16-1.88-2-1.61-4.21-.51-13.55l.4-3.35c1.16-9.85,1.23-10.44,2.33-11.78,2.72-3.29,8.02-5.22,13.5-4.91,4.55.25,8.24,2.05,10.13,4.93,2.61,3.98,2.58,10.93-1.64,14.53-1.07.91-2.38,1.56-3.85,1.92,1.63,1.71,3.35,4.12,4.34,7.31.52,1.69.8,3.45.81,5.24,0,.55-.43,1-.98,1.01l-11.57.23h-.02c-.47,0-.87-.32-.98-.78-.18-.78-.34-1.5-.49-2.16.06.57.13,1.18.21,1.83.06.51-.27.98-.77,1.09-1.82.42-3.36.59-4.67.59ZM138.41,78.3c-4.45,0-8.73,1.64-10.86,4.21-.71.86-.81,1.58-1.89,10.74l-.4,3.35c-1.04,8.77-1.21,10.67-.02,11.95.68.72,2.79,2.21,8.12,1.18-1.19-10.38-.81-10.44.26-10.63,1.09-.18,1.47-.25,3.89,10.39l9.74-.2c-.09-1.26-.31-2.49-.68-3.68-1.17-3.78-3.51-6.35-5.26-7.83-.31-.26-.43-.69-.3-1.08.13-.39.49-.66.89-.68,1.33-.07,3.25-.43,4.79-1.75,3.28-2.8,3.38-8.71,1.27-11.92h0c-1.54-2.35-4.66-3.82-8.57-4.03-.33-.02-.66-.03-.99-.03ZM138.91,90.53c-1.61,0-2.53-1.27-2.58-2.5-.05-1.26.81-2.64,2.5-2.71,1.73-.07,2.66,1.23,2.71,2.5.05,1.26-.81,2.64-2.5,2.71h0s-.09,0-.13,0ZM139,89.53h0,0ZM138.95,87.32s-.03,0-.04,0c-.53.02-.59.4-.58.63,0,.23.09.58.63.58h0c.53-.02.59-.41.58-.63,0-.22-.1-.58-.59-.58Z"/>
        </g>
        <g>
          <path class="cls-4" d="M160.65,91.05c-.64.58-4.85,4.3-7.57,2.45-3.23-2.19-3.79-10.83-.59-14.5,1.47-1.69,2.73-1.16,10.85-2.08,8.26-.93,9.66-1.78,11.27-.23,2.56,2.46,3.52,8.92.49,12.08-2.44,2.54-6.54,1.2-7.1,1,.53,6.44,1.06,12.88,1.58,19.32-3.44.55-6.89,1.09-10.33,1.64.47-6.56.93-13.12,1.4-19.69Z"/>
          <path class="cls-2" d="M159.26,111.74c-.25,0-.49-.09-.68-.26-.23-.21-.34-.5-.32-.81l1.24-17.43c-1.92,1.31-4.74,2.62-6.97,1.1-1.55-1.05-2.65-3.31-3.03-6.2-.5-3.81.39-7.65,2.24-9.78,1.32-1.51,2.52-1.61,6.07-1.9,1.39-.11,3.11-.26,5.41-.52,2.19-.25,3.89-.49,5.26-.68,3.85-.55,5.29-.75,6.82.73,3.06,2.94,3.86,10.02.52,13.5-2.02,2.11-4.93,1.98-6.71,1.63l1.47,17.91c.04.52-.32.99-.84,1.07l-10.33,1.64c-.05,0-.1.01-.16.01ZM160.65,90.05c.15,0,.3.03.44.1.37.18.59.56.56.97l-1.31,18.43,8.18-1.3-1.51-18.4c-.03-.34.12-.67.38-.87.27-.21.62-.26.94-.16.67.23,4.1,1.28,6.05-.75,2.72-2.83,1.63-8.65-.47-10.67-.78-.75-1.37-.72-5.15-.19-1.38.2-3.09.44-5.31.69-2.33.26-4.08.41-5.48.52-3.38.28-3.97.35-4.73,1.22-1.48,1.7-2.19,5-1.77,8.21.3,2.29,1.11,4.08,2.17,4.8,1.57,1.06,4.39-.61,6.34-2.37.19-.17.43-.26.67-.26Z"/>
        </g>
        <g>
          <path class="cls-4" d="M178.73,80.85c-2.09,3.15-1.69,7.25-.89,15.45.51,5.16,1.37,9.41,2.1,12.43,2.97.44,5.94.89,8.9,1.33.04-3.99.07-7.99.11-11.98,3.81-.58,7.61-1.16,11.42-1.75-.38-3.72-.75-7.45-1.13-11.17-4.02,1.37-8.03,2.73-12.05,4.1,4.02-1.37,8.03-2.73,12.05-4.1.2-1.53.57-5.78-1.98-8.37-4.33-4.37-14.73-1.65-18.53,4.06Z"/>
          <path class="cls-2" d="M188.84,111.06s-.1,0-.15-.01l-8.9-1.33c-.4-.06-.73-.36-.82-.75-.99-4.12-1.71-8.35-2.12-12.57-.83-8.42-1.24-12.65,1.05-16.1h0c2.32-3.48,7.09-6.13,11.87-6.6,3.44-.33,6.35.52,8.2,2.39,2.63,2.66,2.57,6.78,2.28,9.08l1.12,11.06c.05.53-.32,1.01-.84,1.09l-10.57,1.62-.1,11.13c0,.29-.13.56-.35.75-.18.16-.41.24-.65.24ZM180.76,107.84l7.1,1.06.1-10.83c0-.49.36-.91.85-.98l10.48-1.6-.91-8.98-10.86,3.69c-.52.18-1.09-.1-1.27-.62-.04-.11-.05-.22-.05-.32,0-.42.26-.81.68-.95l11.45-3.89c.19-1.98.1-5.03-1.77-6.92-1.42-1.44-3.76-2.08-6.58-1.8-4.22.41-8.4,2.7-10.4,5.71-1.9,2.85-1.51,6.84-.73,14.79.38,3.91,1.03,7.83,1.92,11.64Z"/>
        </g>
        <g>
          <path class="cls-4" d="M219.99,75.97c-4.02-3.85-12.94-2.57-16.94,2.34-2.13,2.62-2.24,6.1-2.44,13.08-.27,9.16-.41,13.73,2.47,16,3.71,2.91,10.46.73,14.11-2.74,3.6-3.42,3.96-7.99,4.51-15.1.55-7.04.86-11.11-1.71-13.58ZM211.8,94.51c-1.17.05-1.48-7.65-.31-7.7s1.48,7.65.31,7.7Z"/>
          <path class="cls-2" d="M207.5,109.75c-1.88,0-3.63-.48-5.03-1.58-3.28-2.57-3.14-7.33-2.86-16.81.21-7.19.32-10.8,2.67-13.68,2.28-2.79,6.22-4.69,10.3-4.94,3.33-.2,6.21.68,8.11,2.5,2.92,2.8,2.58,7.16,2.02,14.38-.56,7.26-.94,12.06-4.82,15.75-2.73,2.59-6.77,4.38-10.39,4.38ZM213.48,74.71c-.26,0-.52,0-.78.02-3.54.22-6.93,1.83-8.87,4.2-1.92,2.35-2.02,5.74-2.22,12.48-.26,8.81-.39,13.23,2.09,15.18,3.13,2.46,9.34.62,12.8-2.68,3.32-3.16,3.65-7.41,4.2-14.45.53-6.86.83-10.64-1.41-12.78h0c-1.33-1.27-3.42-1.97-5.82-1.97ZM211.79,95.51c-.3,0-.81-.11-1.2-.73-.94-1.49-1.15-6.58-.33-8.14.36-.69.9-.82,1.19-.83.28-.02.83.07,1.25.73.94,1.49,1.15,6.58.33,8.14-.36.69-.9.82-1.19.83h0s-.03,0-.05,0Z"/>
        </g>
        <g>
          <path class="cls-4" d="M223.86,74.32c.17,5.27.14,10.99-.19,17.1-.31,5.61-.83,10.87-1.49,15.73,7.04-.41,14.09-.81,21.13-1.22,2.48-7.08.66-13.01-2.54-14.31-.39-.16-2.36-.88-5.62,1.02,3.92-9.47,5.04-17.33,2.21-19.21-1.22-.81-3.31-.61-7.13-.24-2.65.25-4.83.74-6.36,1.15Z"/>
          <path class="cls-2" d="M222.17,108.14c-.28,0-.54-.12-.73-.32-.2-.22-.3-.52-.26-.81.7-5.17,1.2-10.44,1.48-15.65.31-5.64.37-11.36.19-17.01-.02-.46.29-.88.74-1,2.14-.57,4.33-.97,6.53-1.18,4.04-.39,6.26-.6,7.78.4,4.11,2.73,1.07,12.77-.94,18.13,2.11-.66,3.55-.28,4.17-.03,3.61,1.47,5.82,7.84,3.11,15.57-.13.38-.48.64-.89.67l-21.13,1.22s-.04,0-.06,0ZM224.88,75.09c.15,5.45.08,10.95-.22,16.38-.27,4.86-.72,9.77-1.34,14.6l19.25-1.11c1.94-6.14.49-11.34-2.19-12.43-.43-.17-2.04-.62-4.74.95-.37.22-.84.17-1.16-.11s-.43-.74-.27-1.14c4.2-10.15,4.48-16.74,2.58-18-.92-.61-3.02-.41-6.48-.08-1.82.17-3.65.49-5.43.92Z"/>
        </g>
        <g>
          <path class="cls-4" d="M246.85,76.02c-.7,10.02-1.4,20.05-2.11,30.07,3.09.28,6.17.57,9.26.85,8.65-20.59,11.04-32.4,7.18-35.41-2.39-1.86-7.17-.37-14.33,4.49Z"/>
          <path class="cls-2" d="M254,107.94s-.06,0-.09,0l-9.26-.85c-.54-.05-.94-.52-.91-1.07l2.1-30.07c.02-.31.18-.58.44-.76,7.64-5.18,12.72-6.63,15.51-4.45,2.74,2.14,5.02,8.27-6.88,36.59-.16.37-.52.61-.92.61ZM245.81,105.18l7.55.7c10.72-25.7,9.13-32.06,7.21-33.56-1.35-1.05-4.66-1.15-12.76,4.26l-2,28.61Z"/>
        </g>
        <g>
          <path class="cls-4" d="M284.73,76.28c-5.29-6.11-16.23-6.76-20.39-2.46-2.23,2.31-.84,4.31-2.51,15.28-1.29,8.46-2.47,9.62-1.33,11.93,2.71,5.45,13.85,8.09,20.59,3.45,4.69-3.23,5.65-8.88,6.25-12.46.62-3.64,1.8-10.63-2.62-15.73ZM274.79,92.59c-2.29.09-2.59-7.34-.3-7.43s2.59,7.34.3,7.43Z"/>
          <path class="cls-2" d="M272.75,107.87c-1.59,0-3.23-.2-4.84-.62-3.96-1.03-6.99-3.13-8.3-5.78-.89-1.78-.61-3.06-.01-5.85.33-1.53.78-3.63,1.24-6.67.69-4.51.85-7.46.97-9.6.17-3.07.25-4.6,1.81-6.22,1.98-2.05,5.34-3.15,9.23-3.06,5.01.14,9.73,2.21,12.63,5.56h0c4.73,5.46,3.46,12.95,2.85,16.55-.61,3.61-1.63,9.65-6.67,13.12-2.46,1.69-5.6,2.58-8.91,2.58ZM272.36,72.06c-3.1,0-5.81.9-7.3,2.45-1,1.04-1.09,1.88-1.25,4.94-.12,2.19-.28,5.19-.99,9.79-.47,3.1-.93,5.24-1.27,6.79-.59,2.74-.71,3.43-.15,4.54,1.04,2.1,3.66,3.87,7.01,4.73,4.35,1.12,8.99.49,12.12-1.67,4.34-2.99,5.24-8.29,5.83-11.8.6-3.55,1.72-10.16-2.39-14.91h0c-2.54-2.93-6.71-4.75-11.17-4.87-.15,0-.29,0-.44,0ZM274.74,93.59c-1.6,0-2.7-1.79-2.82-4.6-.12-2.87.87-4.76,2.52-4.83,1.67-.02,2.79,1.74,2.91,4.6.12,2.87-.87,4.76-2.52,4.83h0s-.06,0-.09,0ZM274.53,86.16c-.2.07-.68,1.04-.6,2.78.08,1.7.63,2.6.82,2.65l.04,1-.04-1h0c.19-.07.68-1.04.6-2.78-.08-1.7-.63-2.6-.82-2.65Z"/>
        </g>
      </g>
    </g>
  </g>
</svg>