<?xml version="1.0" encoding="UTF-8"?>
<svg id="Layer_2" data-name="Layer 2" xmlns="http://www.w3.org/2000/svg" viewBox="0 0 453.09 130.61">
  <defs>
    <style>
      .cls-1 {
        fill: #ff9100;
      }

      .cls-2 {
        fill: #fff1dc;
      }

      .cls-3 {
        fill: #003;
      }
    </style>
  </defs>
  <g id="middle">
    <g>
      <path class="cls-1" d="M431.15,124.06c-11.05,5.76-27.98,6.42-45.26,6.52-16.53.06-33.09,0-50.13.02-57.66,0-120.08,0-178.53,0-25.47,0-50.36,0-75.2,0-29.84-.62-61.58,3.15-73.23-20.12C.12,92.14-.96,71.53.59,52.15,3.5,32.31,5.71,8.37,33.43,2.76c5.37-1.17,11.56-1.9,18.51-2.26,77.81-1.07,202.18-.04,294.68-.39,9.12,0,17.02,0,25.53,0,20.21.18,33.06-.57,49.08,3,15.85,3.2,23.71,14.8,27.07,27.02,2.24,7.46,3.63,15.32,4.35,23.26,1.46,19.09.48,59.41-21.38,70.61l-.12.06Z"/>
      <g>
        <g>
          <path class="cls-2" d="M263.64,48.02c3.44-3.18,6.86-2.26,25.02-4.7,16.73-2.24,19.39-3.76,22.87-1.62,7.37,4.54,7.68,18.91.96,23.53-6.92,4.76-21.4-.76-21.45-.52-.02.12,3.36.81,5.99,1.36,6.69,1.39,7.03,1.52,7.42,1.77,4.31,2.84,3.62,14.03-2.54,17.48-5.76,3.22-15.3-.9-15.33-.78-.02.06,2.74,1.02,8.61,1.92,12.06,1.84,14.78-.03,18.5,2.26,5.18,3.17,5.78,10.36,5.06,14.61-1.25,7.4-7.44,11.5-8.64,12.26-6.67,4.23-14.19,3.64-22.64,2.87-13.47-1.23-24.26-2.22-29.49-8.87-6.48-8.24,3.68-14.84,3.57-39.65-.05-12.37-2.6-17.58,2.09-21.91Z"/>
          <path class="cls-1" d="M296.42,121c-3.04,0-6.1-.28-9.13-.56-14.03-1.28-25.12-2.29-30.88-9.62-4.02-5.11-2.64-9.76-.72-16.19,1.65-5.54,3.91-13.12,3.87-24.69-.01-3.62-.25-6.58-.45-9.2-.49-6.32-.82-10.5,3.18-14.19h0c2.86-2.65,5.66-2.93,13.12-3.7,3.3-.34,7.41-.76,12.99-1.51,4.79-.64,8.38-1.22,11.26-1.68,7.34-1.18,9.82-1.57,12.93.34,4,2.46,6.57,7.65,6.72,13.55.14,5.72-2.03,10.82-5.67,13.33-1.64,1.13-3.6,1.76-5.67,2.06.88,1.71,1.32,3.91,1.24,6.35-.12,3.29-1.28,7.34-4.05,10.08.67.02,1.28.03,1.84.04,3.18.05,5.28.08,7.75,1.6,6.29,3.86,6.73,12.28,5.99,16.65-1.32,7.86-7.64,12.41-9.54,13.62-4.63,2.94-9.66,3.73-14.77,3.73ZM265,49.49c-2.45,2.26-2.4,4.58-1.9,10.94.2,2.55.45,5.72.46,9.49.05,12.16-2.31,20.07-4.03,25.85-1.93,6.46-2.6,9.22.03,12.57,4.7,5.98,15.03,6.92,28.1,8.11,7.8.71,15.16,1.39,21.39-2.57,1.55-.98,6.69-4.68,7.74-10.9.53-3.15.35-9.82-4.14-12.57-1.54-.94-2.85-.96-5.73-1.01-2.55-.04-6-.1-11.3-.86-2.41-.1-5.12-.63-8.12-1.6-.46-.14-.84-.27-1.15-.39-.12-.04-.21-.07-.27-.09v-.02c-.89-.38-1.08-.67-1.18-.82-.31-.47-.41-1.06-.26-1.61.14-.54.51-1,1-1.26.79-.41,1.41-.2,2.08.04.3.1.59.2.87.29,1.28.35,3.57.88,6.89,1.38.17.03.33.05.5.08,2.36.06,3.93-.41,4.95-.98,2.98-1.67,4.16-5.58,4.26-8.43.09-2.59-.65-4.85-1.84-5.64-.2-.08-1.14-.3-2.4-.58-3.52-.41-6.73-1.27-8.69-1.83-2.4-.54-2.5-.7-2.89-1.29-.29-.45-.39-1-.28-1.51.12-.54.46-1.02.93-1.31.79-.47,1.38-.3,2.66.07.19.05.38.11.57.16,1.12.25,2.63.56,3.7.78l.49.1c1.72.36,3.03.63,4.06.86,4.45.53,7.75.07,9.86-1.38,2.54-1.75,4.05-5.55,3.94-9.93-.11-4.56-1.96-8.49-4.82-10.25-1.78-1.1-3.3-.9-10.2.2-2.9.46-6.52,1.04-11.36,1.69-5.64.75-9.96,1.2-13.11,1.52-7.23.74-9,.98-10.82,2.66h0Z"/>
        </g>
        <g>
          <path class="cls-2" d="M261.6,92c-2.58-6.37-1.15-9.87-4.87-12.34-4.91-3.28-12.97-.86-13.01-1.23-.02-.22,2.77-.93,6.24-.73,2.64.14,3.44.68,5.11.74,3.75.13,6.73-2.35,8.31-3.67,5.72-4.74,11.36-21.08.66-32.07-10.8-9.93-32.2-7.81-41.56-1.19-.95,1.11-1.8,1.89-2.06,2.97-4.24,53.71-17.62,57.42-15.87,63.61,2.16,7.64,17.45,11.84,26.39,7,11.69-6.2,8.52-28.86,10.1-28.83,1.4.03-3.03,22.67,7.75,28.57,7.86,4.3,22.78-.87,24.13-6.65,1.03-4.41-7.13-5.85-11.32-16.17ZM240.66,66.15c-.84-1.13.07-2.14,1.29-6.95,1.53-6.06.93-7.64,2.14-8.15,3.08-1.29,13.63,7.52,10.41,13.02-2.4,4.09-11.83,4.78-13.83,2.08Z"/>
          <path class="cls-1" d="M221.95,119.15c-3.84,0-7.62-.83-10.6-2.09-4.64-1.96-7.74-4.95-8.72-8.42-.77-2.71.41-4.88,2.2-8.15,3.48-6.36,10.71-19.6,13.6-56.16,0-.1.02-.21.05-.31.33-1.36,1.17-2.31,1.98-3.23.16-.18.33-.37.5-.57.11-.13.23-.24.37-.34,9.59-6.78,32.06-9.7,44.07,1.35.03.03.05.05.08.08,5.9,6.06,6.83,13.1,6.57,17.94-.36,6.74-3.4,13.76-7.39,17.07-1.05.87-2.8,2.32-5.05,3.25,1.43,1.7,1.81,3.69,2.21,5.77.32,1.69.69,3.6,1.63,5.92h0c2.03,5,5.05,7.72,7.47,9.9,2.42,2.18,4.7,4.24,3.94,7.48-.89,3.79-5.22,6.23-7.73,7.35-5.59,2.5-13.73,3.65-19.31.6-4.17-2.28-6.34-6.61-7.45-11.3-1.44,4.75-3.96,9.16-8.51,11.57-3,1.62-6.5,2.29-9.94,2.29ZM222.4,44.84c-2.96,37.26-10.46,50.97-14.06,57.56-1.56,2.84-2.17,4.04-1.86,5.14.64,2.25,2.98,4.37,6.43,5.83,5.62,2.38,12.65,2.36,17.09-.04,7.52-3.99,8.11-16.33,8.43-22.95.19-3.93.29-6.12,2.59-6.12h.07c.57.01,1.1.25,1.5.66.84.88.81,2.02.74,5.4-.14,6.16-.44,18.99,6.43,22.75,4.35,2.38,11.22,1.29,15.75-.74,2.98-1.33,5.13-3.14,5.47-4.61.2-.86-.59-1.67-2.73-3.6-2.58-2.33-6.13-5.52-8.5-11.37h0c-1.09-2.69-1.51-4.89-1.85-6.67-.51-2.65-.77-3.76-2.27-4.76-3.12-2.09-8.23-1.33-10.41-1.01-1.26.19-1.96.29-2.71-.29-.43-.33-.72-.85-.77-1.39-.06-.58.15-1.2.56-1.62,1.19-1.25,5.76-1.43,7.78-1.32,1.59.09,2.61.31,3.42.49.62.13,1.06.23,1.65.25.07,0,.14,0,.22,0,2.88,0,5.28-1.99,6.73-3.2,2.72-2.25,5.62-7.85,5.96-14.22.21-4.03-.55-9.88-5.41-14.89-9.98-9.12-30.27-6.98-38.82-1.12-.13.15-.25.29-.38.43-.51.57-.92,1.04-1.06,1.41ZM245.7,69.76c-1.93,0-5.11-.34-6.65-2.43h0c-1.16-1.57-.7-3.03-.07-5.05.28-.9.64-2.03,1.02-3.58.62-2.48.88-4.15,1.06-5.36.29-1.91.51-3.41,2.24-4.14,3.19-1.33,7.97,2.32,10.41,5.1,3.36,3.83,4.27,7.76,2.51,10.77-1.84,3.15-6.2,4.47-9.66,4.66-.24.01-.53.02-.86.02ZM242.27,64.95l-1.61,1.19,1.61-1.19s0,0,0,0ZM242.35,65.04c.38.32,1.7.82,3.99.7,2.95-.16,5.59-1.26,6.42-2.69.87-1.49-.2-3.54-.92-4.63-2.08-3.15-5.32-5.14-6.67-5.46-.05.28-.1.64-.15.97-.18,1.23-.46,3.08-1.13,5.75-.42,1.66-.8,2.89-1.09,3.79-.18.59-.39,1.24-.45,1.57Z"/>
        </g>
        <g>
          <path class="cls-2" d="M220.17,54.61c-2.63-8.72-10.69-15.02-20.42-16.4-13.49-1.9-29.4,1.41-39.71,9.96-20.04,16.61-10.53,49.8,4.55,58.9,5.53,3.4,13.48,3.49,22.3,2.97.54-.03,1.09-.08,1.62-.14,8.83-1.04,16.45-2.21,20.89-6.01,8.27-7.11,16.09-31.64,10.76-49.28ZM191.39,60.36c5.22,2.45,3.8,13.91,3.61,15.39-.44,3.55-1.21,9.73-5.59,11.73-3.02,1.4-6.35-.02-8.14-2.33-3.64-4.7-2.81-13.72-.34-18.86,1.88-3.92,6.61-7.79,10.45-5.93Z"/>
          <path class="cls-1" d="M180.05,112.28c-5.98,0-11.96-.7-16.51-3.51-8.89-5.37-15.8-18.36-16.78-31.6-.93-12.51,3.33-23.36,12-30.55,10.16-8.42,26.36-12.5,41.27-10.4,10.59,1.49,19.25,8.48,22.06,17.8h0c5.68,18.84-2.98,44.15-11.37,51.37-4.88,4.17-12.83,5.41-21.96,6.48-.58.07-1.16.12-1.74.15-2.26.13-4.61.24-6.95.24ZM192.07,39.68c-11.56,0-23.07,3.66-30.76,10.03-7.65,6.34-11.4,15.99-10.57,27.17.9,12.02,7.01,23.74,14.88,28.48,4.83,2.97,11.95,3.23,21.15,2.69.5-.03,1.01-.07,1.51-.13,8.47-1,15.81-2.1,19.83-5.54,7.64-6.58,15.23-30.33,10.15-47.18-2.36-7.83-9.74-13.72-18.79-15-2.44-.34-4.92-.51-7.39-.51ZM186.89,90.05c-2.95,0-5.62-1.66-7.19-3.68-4.05-5.22-3.44-14.94-.56-20.95,1.57-3.26,4.51-6.04,7.49-7.08,1.97-.69,3.92-.61,5.62.21,5.67,2.68,5.4,12.07,4.74,17.43-.47,3.79-1.34,10.84-6.74,13.31-1.13.52-2.27.75-3.37.75ZM189.27,61.88c-.42,0-.86.08-1.32.24-1.97.68-4.11,2.75-5.2,5.03-2.33,4.85-2.86,12.93.11,16.76,1.25,1.61,3.61,2.72,5.72,1.75,3.37-1.55,4.04-6.94,4.44-10.16.71-5.73.21-12.06-2.48-13.33,0,0-.02,0-.02-.01-.38-.19-.8-.28-1.25-.28Z"/>
        </g>
        <g>
          <path class="cls-2" d="M103.78,43.64c1.25-5.71,1.82-4.08,32.91-12.02s32.56-7.86,34.7-6.02,3.07,5.26,3.69,7.54c.5,1.86,1.73,6.38.34,9.63-2.99,6.96-22.07,4.83-21.97,9.41s8.32,48.43,6.83,51.16-2.57,2.96-17.04,4.04-12.66.93-14.3-.35-1.63-7.96-.35-20.65c2.24-22.13,1.5-26.04-1.16-27.47-5.34-2.88-15.59,6.98-19.9,3.86-1.64-1.19-.66-2.94-2.05-10.85-1.15-6.57-2.06-6.65-1.7-8.28Z"/>
          <path class="cls-1" d="M131.77,110.09c-2.44,0-2.85-.37-3.75-1.2-.09-.08-.19-.18-.32-.28-2.02-1.59-2.8-5.63-1.1-22.42,1.78-17.59,1.74-24.5-.12-25.51-1.82-.99-5.46.67-8.68,2.13-4.11,1.87-8.37,3.8-11.44,1.58-1.71-1.24-1.83-2.82-2-5.23-.12-1.56-.28-3.69-.84-6.89-.56-3.18-1.04-4.74-1.36-5.77-.35-1.14-.61-1.96-.32-3.29h0c1.21-5.53,2.66-5.87,16.53-9.16,4.31-1.02,10.21-2.42,17.85-4.37,32.08-8.19,33.48-8.18,36.5-5.6,2.61,2.24,3.64,6.02,4.31,8.52.57,2.12,1.91,7.06.24,10.95-2.05,4.77-8.89,5.96-14.92,7-2.43.42-6.04,1.05-6.88,1.76.11,1.87,1.25,8.91,2.46,16.34,4.34,26.77,5.15,33.76,4.12,35.64-2.11,3.83-4.31,4-18.65,5.07-6.2.46-9.6.72-11.61.72ZM130.85,106.05c.84.19,4.71-.1,12.24-.67,13.89-1.04,14.51-1.35,15.35-2.85.45-2.87-2.62-21.84-4.47-33.24-1.58-9.75-2.48-15.35-2.51-17.08-.09-3.82,4.68-4.65,10.2-5.61,4.78-.83,10.74-1.86,11.93-4.64,1.12-2.61,0-6.75-.43-8.31-.55-2.04-1.39-5.11-3.06-6.54-1.41-1.21-4.83-.74-32.9,6.44-7.67,1.96-13.59,3.36-17.91,4.39q-12.87,3.05-13.54,6.12h0c-.06.27-.06.29.23,1.24.33,1.06.88,2.83,1.48,6.27.6,3.4.77,5.74.89,7.29.07.95.15,2.02.29,2.22,1.26.92,4.73-.65,7.51-1.92,4.26-1.94,8.66-3.94,12.24-2.01,3.8,2.05,4.55,6.17,2.2,29.43-1.47,14.57-.86,18.12-.34,18.93.2.16.36.3.5.44.04.04.07.07.11.1ZM103.78,43.64h0,0Z"/>
        </g>
        <g>
          <path class="cls-2" d="M82.88,59.6c-11.98,9.5-16.5,23.95-11.92,26.93,2.45,1.59,6.19-.96,15.49.24,5.53.71,10.29,2.39,10.13,3.07-.32,1.36-19.32-4.31-28.6,2.36-6.29,4.52-7.56,14.31-2.38,19.84,5.47,5.86,16.49,5.16,30.98,4.25,13.67-.86,22.31-1.4,29.79-6.61,12.72-8.86,16.56-27.34,7.15-34.02-6.47-4.6-18.16-2.86-20.82-2.47-9.17,1.36-15.82,5.54-15.82,5.54,0,0,4.66-2.58,12.42-5.19,13.27-4.48,18.54-3.16,20.79-6.54,3.32-4.94-.08-15.22-8.19-18.65-12.51-5.3-31.13,4.99-39.02,11.25Z"/>
          <path class="cls-1" d="M82.98,118.89c-8.25,0-14.77-1.13-18.83-5.48-2.76-2.96-4.1-7.15-3.68-11.51.45-4.62,2.77-8.75,6.35-11.33,1.14-.82,2.41-1.47,3.75-1.99-.24-.11-.47-.23-.7-.38-1.13-.73-2.51-2.27-2.66-5.42-.29-6.22,4.66-17.01,14.42-24.75,6.61-5.24,26.87-17.53,41.04-11.53,4.73,2,8.46,6.27,9.99,11.41,1.16,3.89.82,7.6-.92,10.2-1.06,1.59-2.53,2.4-4.49,2.99,2.97.56,5.47,1.54,7.43,2.93,3.94,2.8,6.09,7.5,6.07,13.24-.04,8.9-5.36,18.57-13.23,24.05-7.94,5.53-17.04,6.1-30.81,6.97-4.96.31-9.57.6-13.74.6ZM81.56,90.88c-4.55,0-9.22.65-12.41,2.94-2.65,1.9-4.36,4.99-4.71,8.47-.32,3.21.64,6.27,2.62,8.38,4.83,5.17,15.67,4.48,29.39,3.62,13.57-.85,21.75-1.37,28.78-6.26,6.85-4.77,11.48-13.13,11.52-20.79.02-4.4-1.54-7.94-4.38-9.96-3.75-2.66-10.62-3.42-19.36-2.12-2.56.38-4.92.99-6.97,1.67-5.12,1.97-8.14,3.62-8.18,3.64h0c-.46.25-1.01.32-1.52.17-.78-.22-1.35-.89-1.44-1.7-.09-.78.28-1.53.95-1.94.53-.32,3.88-2.33,8.92-3.98,1.2-.46,2.5-.93,3.91-1.4,6.02-2.03,10.43-2.89,13.64-3.52,3.79-.74,5.36-1.09,6.12-2.23,1.07-1.59,1.22-4.14.42-6.84-1.19-4.01-4.08-7.33-7.72-8.87-11-4.66-28.53,4.26-37,10.98h0c-8.4,6.66-13.16,16.12-12.91,21.43.03.66.18,1.83.84,2.26.55.36,1.78.21,3.48,0,2.55-.31,6.04-.73,11.18-.07,2.71.35,10.05,1.7,11.47,3.74.37.53.5,1.16.35,1.77-.5,2.15-2.44,1.92-6.68,1.39-2.69-.33-6.45-.8-10.29-.8ZM82.88,59.6h0,0Z"/>
        </g>
      </g>
      <g>
        <path class="cls-3" d="M205.85,23.64c-2.04-.52-4.07-1.03-6.11-1.55-2.81-.71-4.01,3.63-1.2,4.34,1.41.36,2.82.71,4.22,1.07-.02.09-.05.18-.08.28-.07.23-.15.46-.23.68-.04.08-.14.31-.15.34-.09.18-.19.35-.29.51-.07.11-.14.21-.21.32-.02.03-.02.03-.03.05,0,0,0,0-.01.01-.18.21-.36.41-.56.6-.11.1-.22.2-.33.3,0,0,0,0,0,0-.01,0-.02,0-.03.02-.25.14-.49.3-.74.44,0,0-.11.05-.2.09-.09.03-.2.07-.21.07-.24.07-.49.13-.73.19-.04.01-.11.02-.17.03-.05,0-.1.01-.15.01-.33.01-.66-.01-1-.01.03,0,.05.01.09.02-.03,0-.06-.01-.09-.02,0,0,0,0,0,0-.1,0-.3-.05-.12-.02-.04,0-.08-.01-.11-.02-.27-.07-.54-.17-.81-.23-.01,0-.02,0-.03,0-.13-.06-.25-.12-.37-.18-.21-.12-.41-.25-.61-.39.06.02-.41-.34-.49-.42-.09-.09-.17-.18-.25-.27,0,0-.1-.12-.17-.21-.07-.09-.17-.24-.17-.24-.07-.11-.14-.22-.21-.33-.18-.3-.35-.65-.4-.79-.69-1.69-.97-3.3-.92-5.06.08-2.96,1.35-6.04,3.32-8.17,1.02-1.1,2.4-2.13,3.47-2.53.33-.13.68-.23,1.02-.32.17-.04.34-.08.52-.11.04,0,.06-.01.08-.01.05,0,.1-.01.16-.02.39-.02.76-.01,1.15,0,.03,0,.04,0,.07,0,.27.04.53.1.79.17,2.8.75,4-3.59,1.2-4.34-3.93-1.05-7.86.48-10.78,3.14-3.14,2.86-4.99,6.93-5.41,11.12-.39,3.87.63,8.71,3.65,11.41,2.42,2.16,5.95,3.02,9.04,1.84,4.08-1.55,6.11-5.43,6.3-9.64.04-.96-.73-1.94-1.65-2.17ZM202.83,12.11c.08,0,.06,0,0,0h0ZM198.74,31.46c-.05,0-.07,0,0,0h0Z"/>
        <path class="cls-3" d="M197.65,31.45c-.05-.01-.1-.02-.13-.02.04,0,.08.02.12.02,0,0,0,0,0,0Z"/>
        <path class="cls-3" d="M221.98,17.68c-.48-.28-1.19-.4-1.73-.23-.54.18-1.07.51-1.34,1.03-.29.55-.31,1.06-.23,1.67,0-.06-.02-.12-.02-.18.25,1.86.31,3.74.09,5.61-.12.76-.28,1.52-.51,2.25-.06.19-.12.37-.19.56-.02.04-.03.08-.05.12-.15.31-.29.62-.46.91-.15.27-.33.52-.5.78-.1.11-.19.23-.3.33-.17.17-.35.33-.53.49-.1.07-.2.13-.31.2-.08.05-.17.09-.26.14-.13.04-.26.06-.39.09-.1,0-.21,0-.31,0-.04-.01-.08-.02-.12-.03-.03-.02-.07-.04-.1-.06-.07-.07-.15-.14-.22-.22-.02-.04-.05-.07-.07-.11-.04-.07-.08-.15-.12-.22-.1-.31-.19-.63-.25-.95-.07-.7-.05-1.41.03-2.11.2-1.23.54-2.42.97-3.59.41-1.11-.45-2.51-1.57-2.77-1.27-.29-2.33.39-2.77,1.57-.94,2.56-1.49,5.32-1.02,8.04.32,1.81,1.42,3.67,3.14,4.45,1.84.83,3.92.61,5.6-.5,1.97-1.3,3.22-3.31,4-5.5,1.2-3.33,1.09-6.98.59-10.43-.07-.52-.6-1.09-1.03-1.34ZM214.65,31.38h0c-.06-.02-.05-.02,0,0ZM217.14,30.07s.04-.05.05-.06c-.02.02-.03.04-.05.06Z"/>
        <path class="cls-3" d="M244.14,17.03c-.44-.9-1.63-1.27-2.54-1.03-1.95.5-3.68,1.61-5.08,3.03-.19-.17-.38-.35-.61-.49-1.44-.91-3.16-.7-4.64-.02-.57.26-1.11.61-1.61,1-.26-.92-1.23-1.68-2.17-1.64-1.3.06-2.15.99-2.25,2.25-.31,4.06-.13,8.11.54,12.13.19,1.16,1.7,1.92,2.77,1.57,1.26-.41,1.78-1.52,1.57-2.77-.26-1.54-.42-3.18-.5-5.06.13-.08.25-.18.35-.31.67-.85,1.37-1.66,2.18-2.38.02-.02.12-.12.23-.21.02,0,.05-.03.12-.08.07-.05.15-.1.22-.15.22-.15.47-.27.71-.39.05-.02.1-.03.15-.04.02,0,.03,0,.05,0,.01.01.02.03.04.04.03.04.06.08.08.13.05.09.09.18.13.27.18.48.3.98.38,1.48.13,1.22.09,2.45-.05,3.66-.13.88-.31,1.75-.54,2.6-.3,1.14.38,2.5,1.57,2.77,1.18.27,2.44-.36,2.77-1.57.47-1.74.76-3.56.82-5.37.04-1.02-.01-2.08-.19-3.1.15-.14.29-.28.41-.45.16-.21.17-.24.05-.07.09-.11.19-.23.29-.34.15-.16.31-.32.47-.48.16-.15.33-.3.5-.44.21-.17.23-.19.07-.05.09-.06.18-.13.27-.19.11-.08.23-.14.35-.21.15.4.31.81.43,1.22.15.5.28,1,.38,1.51.05.25.09.5.13.75,0,0,0,0,0,0,.01.14.03.28.04.42.21,2.34-.05,4.71-.34,7.03-.14,1.17,1.14,2.3,2.25,2.25,1.34-.06,2.1-.99,2.25-2.25.3-2.45.58-4.94.3-7.41-.31-2.7-1.16-5.17-2.36-7.61ZM232.5,22.97s.05-.04.08-.06c-.02.02-.05.03-.08.06Z"/>
        <path class="cls-3" d="M257.86,23.02c-.19.03-.32.1,0,0h0Z"/>
        <path class="cls-3" d="M261.97,22.32c.51-.97.35-2.58-.81-3.08-3.36-1.45-6.21-.48-8.38,1.61,0-.19,0-.38.01-.57.03-1.18-1.06-2.3-2.25-2.25-1.24.06-2.22.99-2.25,2.25-.09,3.8-.18,7.59-.28,11.39-.03,1.18,1.06,2.3,2.25,2.25,1.29-.06,2.16-.99,2.25-2.25.01-.17.03-.35.05-.52.06-.33.12-.66.19-.99.16-.69.36-1.36.6-2.02.05-.14.11-.28.16-.43,0-.02.01-.03.02-.05.02-.04.03-.08.05-.12.15-.32.3-.64.47-.95.31-.58.69-1.1,1.04-1.66.02-.03.04-.06.07-.08.09-.11.18-.21.28-.32.21-.24.44-.46.68-.67.04-.04.09-.08.14-.12.08-.05.16-.12.24-.17.23-.15.46-.27.7-.39.15-.04.29-.1.45-.13.11-.03.24-.03.36-.07-.06.02-.1.03-.14.04.05,0,.1-.02.14-.02.12,0,.25,0,.37,0,.01,0,.02,0,.03,0,.13.03.26.06.38.1.14.04.74.29.11.01,1.08.47,2.46.36,3.08-.81Z"/>
        <path class="cls-3" d="M265.07,28.18s-.02.09-.02.13c0,.01,0,.02,0,.04.03-.13.04-.21.05-.25,0,.03-.02.06-.02.08Z"/>
        <path class="cls-3" d="M268.89,27.67s0-.01-.01-.03c0,.02.01.03.02.05,0,0,0-.01,0-.02Z"/>
        <path class="cls-3" d="M265.62,30.68s0,.01.01.02c.04.04.08.08.12.12-.03-.03-.07-.09-.15-.18,0,.01.02.03.02.04Z"/>
        <path class="cls-3" d="M267.94,20.89c-.8-.32-1.76.08-2.33.74-2.23.79-3.99,2.52-4.74,4.82-.69,2.15-.36,4.81.98,6.66.83,1.14,1.86,1.98,3.19,2.46,1.22.45,2.62.41,3.87.09,1.61-.41,3.02-1.36,3.92-2.76.74-1.16,1.05-2.68.92-4.04-.34-3.52-2.49-6.65-5.81-7.97ZM265.01,28.99s.02.16.04.3c-.03-.11-.05-.22-.04-.3ZM266.37,31.28s-.02-.01-.03-.02c-.06-.02-.12-.04-.18-.06.06.02.1.03.15.04-.07-.04-.14-.08-.21-.12-.03-.02-.06-.04-.09-.06-.09-.08-.17-.17-.26-.26.07.1-.04,0-.12-.12,0,0,0,0,0,0-.05-.06-.1-.13-.15-.18.05.05.08.09.12.13-.1-.16-.2-.31-.28-.48-.01-.03-.03-.05-.04-.08-.06-.19-.12-.37-.17-.57-.01-.05-.03-.12-.05-.18,0-.04,0-.08-.01-.12,0-.11-.01-.22-.02-.33,0-.18,0-.35.02-.53-.01.05-.02.1-.04.16.01-.07.03-.13.04-.2,0,0,0-.01,0-.02.01-.15.07-.34.05-.19.04-.19.09-.38.16-.57,0,0,0-.01,0-.01.02-.05.04-.09.06-.12.1-.19.21-.36.33-.54.06-.07.13-.14.19-.21.08-.08.17-.16.26-.24.19-.12.38-.25.58-.36.04-.02.15-.07.22-.1.04-.02.08-.03.1-.04.17-.06.34-.09.51-.14.09.08.18.16.27.25.09.09.18.18.26.28.03.04.11.13.16.2.03.04.05.07.06.09.07.11.14.21.21.32.14.24.28.48.4.73,0,0,0,0,0,.01-.02-.05-.04-.1-.05-.15.02.06.04.11.07.17.07.15.05.12,0,.02.02.05.04.11.06.17.09.25.17.51.23.78.02.1.04.19.06.29.01.22.03.44.02.67,0,.07,0,.15-.01.22-.05.19-.11.38-.16.57-.04.07-.08.15-.12.22,0,0-.01.02-.02.03-.05.06-.12.14-.15.17-.04.04-.15.11-.22.18-.1.06-.2.12-.31.18-.01,0-.02.01-.04.02-.22.07-.44.15-.67.2-.06.01-.12.02-.18.04-.19,0-.38,0-.57,0-.05,0-.1-.02-.15-.03-.03,0-.06-.02-.08-.03.04.03-.09,0-.21-.06ZM267.45,31.4c.08-.01.14-.02.13-.02-.02.02-.08.02-.13.02Z"/>
        <path class="cls-3" d="M266.31,31.25s.02.01.03.02c.08.03.16.05.24.08-.02-.02-.1-.05-.27-.09Z"/>
        <path class="cls-3" d="M282.45,21.12c-1.57-.39-3.23-.15-4.76.32-1.13.34-1.95,1.59-1.57,2.77.37,1.14,1.56,1.94,2.77,1.57.28-.08.56-.16.85-.23.13-.03.26-.06.4-.08.02,0,.05,0,.07-.01.21-.02.42-.03.63-.03.09,0,.17,0,.26,0,.13.03.26.06.38.09.03.01.05.02.08.04.03.02.05.03.08.05.02.02.05.05.07.07.07.11.17.24.18.27.02.03.03.06.04.09.1.33.17.67.25,1.01,0,.06.01.11.01.17.02.22.02.44.03.66,0,.35-.02.69-.04,1.03-.71-.3-1.46-.5-2.26-.57-1.55-.13-3.08.55-4.02,1.77-1.86,2.4-.81,6.28,2.34,6.93,2.22.45,4.4-.45,6.24-1.62.42-.27.74-.67.93-1.13.3-.28.54-.63.63-1.03.52-2.36.86-4.77.51-7.17-.33-2.29-1.77-4.38-4.1-4.96ZM281.63,25.56s0,0,0,0c0,0,0-.01,0-.02,0,0,0,.01,0,.02ZM279.62,32.67s-.02,0-.02,0c.02-.01.03-.01.02,0ZM279.55,32.67s-.03,0-.04,0c.04-.07.07-.08.04,0ZM279.34,32.67s0,0,0,0c0-.01-.02-.03-.02-.05.01.02.02.03.03.05ZM279.38,32.85s0,0,0,0c0,0,0,.01,0,.02,0,0,0,0,0,0,0,0,0,0,0,0,0,0,0,0,0,0,0,0,0,0,0,0-.05.02-.11.03-.18.05.06-.02.11-.04.17-.06-.16.03-.11,0,.01-.03ZM279.37,32.9s0,.02,0,.03c0,0,0-.01.01-.02,0,0,0,0,0,.01,0,0-.01.01-.02.02,0,0,0,0,0,0-.02.02-.03.03-.05.04-.01.01-.02.02-.04.04,0,0,.01-.02.02-.02-.08.06-.05-.02.07-.11ZM279.36,33.01s0,0,0,.01c-.01.02-.02.03-.03.06.01-.02.02-.04.03-.07ZM279.46,32.94s.03,0-.01-.07c0,0,0,0,0,.01,0,0,0,0,0,0h0s0,0,0,0c0,0,0,0,0,0h0s0,0,0,0c0,0,0,0,0,0,0,0,0,0,0,0,0,0,0,0,0,0,0,0,0,0,0,0,0,0,0,0,0,0,0,0,0,0,0,0,0,0,0,0,0,0h0s0,0,0,0c0,0,0,0,0,0t0,0h0s0,0,0,0h0s0,0,0,0c0,0,0,0,0,0,0,0,0,0,0,0,0,0,0,0,0,0,0,0,0,0,0,0,0,0,0,0,0,0,0,0,0,0,0,0,0,0,0,0,0,0,0,0,0,0,0,0,.02-.04.05-.07.07-.1,0,0,0,0,0,0-.01.02-.03.05-.04.08.03-.03.06-.05.09-.08-.02.02-.05.06-.08.09,0,0,0,0,0,0,0,0,0,0-.01.01.01,0,.02,0,.03,0,.01,0,.02,0,.04,0,0,0-.01,0-.02,0,.01,0,.03,0,.04,0,0,0,0,0,0,0-.04.01-.08.02-.11.03,0,0,0,0,0,0,0,0,0,0,0,0,0,0,0,0,0,0h0,0s0,0,0,0c.16.29.07.27,0,.08ZM281.74,33.82c.06.04.11.08.17.12,0,0,.01.01.02.02-.33-.21-.29-.2-.19-.14Z"/>
        <polygon class="cls-3" points="279.38 32.88 279.37 32.88 279.38 32.88 279.38 32.88"/>
        <path class="cls-3" d="M279.46,32.86s0,0,0,0c0,0,0,0,0,0h0s0,0,0,0c0,0,0,0,0,0,0,0,0,0,0,0,0,0,0,0,0,0,.03,0,.04-.01.07-.02,0,0-.01,0-.02,0-.01,0-.03,0-.04,0,0,0,0,0,0,0,0,0,0,0,0,0,0,0,0,0,0,0,0,0-.01,0-.02,0,0,0,0-.01.01-.02,0,0-.02.01-.02.02,0,0,0,0,0,0,0,0,0,0,0,0,0,0,0,0,0,0,0,0,0,0,0,0,0,0,0,0,0,0,0,0,0,0,0,0,0,0,0,0,0,0,0,0,0,0,0,0,0,0,0,0,0,0,0,0,0,0,0,0t0,0h0s0,0,0,0c0,0,0,0,0,0,0,0,0,0,0,0,0,0,0,0,0,0,0,0,0,0,0,0,0,0,0,0,0,0,0,0,0,0,0,0h0s0,0,0,0h0s0,.01,0,.02c0,0,0,0,0,0h0s0,0,0,0c0,0,0,0,0,0,0,0,0,0,0,0,0,0,0,0,0,0Z"/>
        <path class="cls-3" d="M279.37,32.95s0-.01,0-.02c-.02.03-.04.05-.07.08,0,0,.01,0,.02-.01.02-.02.03-.03.05-.05Z"/>
        <path class="cls-3" d="M303.05,9.28c-1.3,0-2.15,1.03-2.25,2.25-.33,3.94-.51,7.9-.93,11.84-2.08-1.33-4.64-.93-6.72.15-3.73,1.94-7.57,7.54-3.9,11.31,2.69,2.77,7.5,2.49,10.99,2.11.93-.1,1.97-.62,2.17-1.65.19-1.01.39-2.02.58-3.04,1.58-6.79,1.73-13.8,2.32-20.72.1-1.21-1.11-2.25-2.25-2.25ZM295,32.57s-.06,0-.09,0c0,0,0,0,0,0-.15-.02-.31-.05-.46-.08-.28-.06-.56-.12-.84-.2-.07-.02-.28-.1-.42-.15-.12-.07-.42-.22-.49-.25-.04-.02-.06-.02-.08-.03-.01-.01-.02-.02-.03-.04-.04-.05-.17-.2-.24-.26,0,0,0,0,0,0-.02-.06-.04-.12-.06-.18.01-.1.02-.25,0-.36,0-.02,0-.04.01-.06.06-.18.15-.41.19-.6,0-.02.01-.02.03-.04.09-.15.16-.31.25-.46.1-.17.22-.33.33-.5.02-.03.03-.05.04-.07.03-.03.05-.05.09-.1.27-.29.53-.58.83-.84.1-.09.2-.17.3-.25.06-.04.21-.15.33-.23.33-.22.68-.37,1.02-.57.05-.02.1-.04.16-.06.18-.05.36-.1.55-.16.04-.01.09-.02.14-.03.15,0,.31-.01.45-.02,0,0,.01,0,.02,0,.05.02.1.04.16.05-.03-.01-.05-.03-.05-.04-.03,0-.07,0-.1-.02.21-.01.24,0,.2.01.03,0,.05.02.08.04.02.01.04.03.07.05.03,0,.05.01.08.02,0-.01-.01-.02-.02-.03,0,0,.02.02.03.03.02,0,.04.01.05.01-.02,0-.03,0-.05,0,.03.03.07.06.11.09.02,0,.04.02.05.03.08.02.13.12.11.14.03.03.06.06.08.09,0,.02.01.03.03.05.06.13.14.26.21.4-.03-.03.2.53.24.68.08.28.13.57.19.86,0,.04.01.06.02.09,0,.03,0,.04,0,.08.02.21.04.42.05.63.03.41.03.82.02,1.23-.07.37-.14.73-.21,1.1-1.11.06-2.22.07-3.34-.02Z"/>
        <path class="cls-3" d="M297.44,27.14s0,0,0,0c0,0,0,0-.01,0,0,0,0,0,0,0,0,0,0,0,.01,0Z"/>
        <path class="cls-3" d="M297.36,27.12s.07.05.11.07c-.02-.02-.03-.04-.05-.06-.02,0-.05,0-.07-.01Z"/>
        <path class="cls-3" d="M297.35,27.11c-.07-.02-.12-.03-.19-.05.04.02.1.04.2.06,0,0,0,0-.01,0Z"/>
        <path class="cls-3" d="M297.71,27.4s-.06-.07-.06-.07c0,0-.05-.05-.1-.1-.02-.01-.05-.02-.07-.04.15.18.22.22.23.2Z"/>
        <path class="cls-3" d="M297.2,27.02c-.06-.02-.1-.02-.1,0,.04,0,.08,0,.1,0Z"/>
      </g>
      <g>
        <path class="cls-3" d="M336.82,100.73c0,4.71,3.82,8.53,8.53,8.53s8.53-3.82,8.53-8.53-3.82-8.53-8.53-8.53-8.53,3.82-8.53,8.53Z"/>
        <path class="cls-3" d="M366.66,100.73c0,4.71,3.82,8.53,8.53,8.53s8.53-3.82,8.53-8.53-3.82-8.53-8.53-8.53-8.53,3.82-8.53,8.53Z"/>
        <path class="cls-3" d="M341.78,87.12c-.89,0-1.66-.49-1.8-1.15l-.67-3.16c-.18-.83.68-1.58,1.8-1.58h45.8c1.4,0,2.6-.98,2.9-2.34l5.6-26.28c.03-.16.05-.33.05-.5,0-1.5-1.21-2.71-2.7-2.71h-62.86l-3.5-15.69c-.3-1.21-1.38-2.05-2.63-2.05h-7.97c-1.47,0-2.78,1.1-2.86,2.56-.08,1.56,1.16,2.85,2.7,2.85h6.01l3.48,15.61,8.12,38.01c.24,1.28,1.36,2.21,2.66,2.21h48.73c1.3,0,2.42-.93,2.66-2.21h0c.39-1.84-1.01-3.58-2.9-3.58h-42.61Z"/>
      </g>
    </g>
  </g>
</svg>