<?xml version="1.0" encoding="UTF-8" standalone="no"?>
<svg
   id="Layer_2"
   data-name="Layer 2"
   viewBox="0 0 585.89 186.18"
   version="1.1"
   sodipodi:docname="bt-top.svg"
   inkscape:version="1.3.2 (091e20e, 2023-11-25, custom)"
   xmlns:inkscape="http://www.inkscape.org/namespaces/inkscape"
   xmlns:sodipodi="http://sodipodi.sourceforge.net/DTD/sodipodi-0.dtd"
   xmlns="http://www.w3.org/2000/svg"
   xmlns:svg="http://www.w3.org/2000/svg">
  <sodipodi:namedview
     id="namedview5"
     pagecolor="#ffffff"
     bordercolor="#000000"
     borderopacity="0.25"
     inkscape:showpageshadow="2"
     inkscape:pageopacity="0.0"
     inkscape:pagecheckerboard="0"
     inkscape:deskcolor="#d1d1d1"
     inkscape:zoom="2.2103125"
     inkscape:cx="236.1657"
     inkscape:cy="83.019935"
     inkscape:window-width="1920"
     inkscape:window-height="1009"
     inkscape:window-x="-8"
     inkscape:window-y="-8"
     inkscape:window-maximized="1"
     inkscape:current-layer="g4" />
  <defs
     id="defs1">
    <inkscape:path-effect
       effect="simplify"
       id="path-effect3"
       is_visible="true"
       lpeversion="1.3"
       threshold="0.31"
       steps="10"
       smooth_angles="356.32653"
       helper_size="7.2704082"
       simplify_individual_paths="false"
       simplify_just_coalesce="false" />
    <inkscape:path-effect
       effect="offset"
       id="path-effect2"
       is_visible="true"
       lpeversion="1.2"
       linejoin_type="miter"
       unit="mm"
       offset="0.50617247"
       miter_limit="4"
       attempt_force_join="false"
       update_on_knot_move="true" />
    <inkscape:path-effect
       effect="fillet_chamfer"
       id="path-effect1"
       is_visible="true"
       lpeversion="1"
       nodesatellites_param="F,0,0,1,0,42,0,1 @ F,0,0,1,0,42,0,1 @ F,0,0,1,0,42,0,1 @ F,0,0,1,0,42,0,1 @ F,0,0,1,0,42,0,1 @ F,0,0,1,0,42,0,1 @ F,0,0,1,0,42,0,1 @ F,0,0,1,0,42,0,1 @ F,0,0,1,0,42,0,1 @ F,0,0,1,0,42,0,1 @ F,0,0,1,0,42,0,1 @ F,0,0,1,0,42,0,1 @ F,0,0,1,0,42,0,1 @ F,0,0,1,0,42,0,1 @ F,0,0,1,0,42,0,1 @ F,0,0,1,0,42,0,1 @ F,0,0,1,0,42,0,1 @ F,0,0,1,0,42,0,1 @ F,0,0,1,0,42,0,1 @ F,0,0,1,0,42,0,1 @ F,0,0,1,0,42,0,1 @ F,0,0,1,0,42,0,1 @ F,0,0,1,0,42,0,1 @ F,0,0,1,0,42,0,1 @ F,0,0,1,0,42,0,1 @ F,0,0,1,0,42,0,1 @ F,0,0,1,0,42,0,1 @ F,0,0,1,0,42,0,1 @ F,0,0,1,0,42,0,1 @ F,0,0,1,0,42,0,1 @ F,0,0,1,0,42,0,1 @ F,0,0,1,0,42,0,1 @ F,0,0,1,0,42,0,1 @ F,0,0,1,0,42,0,1 @ F,0,0,1,0,42,0,1 @ F,0,0,1,0,42,0,1 @ F,0,0,1,0,42,0,1 @ F,0,0,1,0,42,0,1 @ F,0,0,1,0,42,0,1 @ F,0,0,1,0,42,0,1 @ F,0,0,1,0,42,0,1"
       radius="42"
       unit="px"
       method="auto"
       mode="F"
       chamfer_steps="1"
       flexible="false"
       use_knot_distance="true"
       apply_no_radius="true"
       apply_with_radius="true"
       only_selected="false"
       hide_knots="false" />
    <style
       id="style1">
      .cls-1 {
        fill: #ff9100;
      }

      .cls-2 {
        fill: #003;
      }

      .cls-3 {
        fill: #ffd9b3;
      }
    </style>
  </defs>
  <g
     id="middle">
    <g
       id="g5">
      <path
         class="cls-1"
         d="M55.96,3.94C68.78.5,81.46.42,94.48.38c121.82.97,324.2-2.07,423.79,1.14,18.21,2.37,37.99,11.39,49.77,26.19,18.25,21.73,17.61,52.15,17.86,79.76-.8,23.42,3.49,59.34-19.09,73.2-5.97,3.56-12.8,4.78-19.3,5.09-126.88-.06-407.65,1.26-516.54-.5C-4.87,178.71.62,132.02,0,104.27c.26-18.9.23-37.53,6.46-55.28C14,26.85,33.31,9.69,55.78,3.99l.18-.05Z"
         id="path1" />
      <g
         id="g4">
        <path
           class="cls-3"
           d="M 378.61108,168.90026 380.54,161.26 c 0.1,-0.03 0.19,-0.09 0.24,-0.18 0.06,-0.09 0.07,-0.19 0.04,-0.3 l -9.04,-33.03 c -0.73,-2.66 -0.1,-5.51 1.67,-7.62 L 400.4,88.11 c 0.13,-0.15 0.12,-0.38 -0.02,-0.52 L 373.97,60.32 c -2.15,-2.21 -2.9,-5.42 -1.97,-8.36 l 9.94,-31.52 c 0,0 -4.74869,-14.8759788 -0.03,-0.31 -2.32939,10.727028 -3.08921,5.898339 -3.12921,-6.578252 L 339.63,10.92 C 337.91,10.55 336.38,9.67 335.2,8.37 L 327.62,0.08 C 246.63,0.3 157.71,0.88 94.48,0.38 81.46,0.43 68.78,0.5 55.96,3.94 L 55.78,3.99 C 33.31,9.69 14,26.85 6.46,48.99 0.23,66.74 0.27,85.37 0,104.27 c 0.62,27.76 -4.87,74.45 30.97,81 63.4,1.02 189.08,1.01 304.72,0.82 l 6.78939,-6.75122 c 1,-2.48 4.74956,-3.07035 7.34956,-3.71035 z"
           id="path2"
           sodipodi:nodetypes="cccccccccccccccccccccccccc" />
        <path
           id="path3"
           class="cls-2"
           d="m 334.41016,-1.8398437 c -5.01825,0.0039 -18.44412,-3.6557194 -15.05469,0.044922 3.60388,3.9347783 7.02819,8.0413273 10.80454,11.8108819 1.40964,1.407106 3.24651,2.358002 5.19354,2.776512 13.42806,2.88634 44.4068,-4.4469408 40.28512,8.654794 -3.19123,10.144087 -6.83416,20.156617 -9.58339,30.429273 -0.74708,2.791492 -0.22066,5.884113 1.3802,8.29194 0.4081,0.613828 0.8931,1.172305 1.40578,1.701693 8.41293,8.687148 33.02135,16.80533 25.23882,26.061469 -8.78909,10.453284 -18.04553,20.530409 -26.37503,31.353429 -1.83375,2.3827 -2.53345,5.59495 -1.85568,8.52855 0.17844,0.77235 0.40788,1.53134 0.61707,2.29566 2.70845,9.89585 18.08003,27.20402 8.12536,29.68759 -11.18036,2.78937 -22.49973,5.06984 -33.54369,8.35781 -2.89864,0.86297 -5.34825,3.08138 -6.52235,5.87357 -0.33192,0.78937 -0.64454,1.58657 -0.9661,2.38021 -1.56155,3.85408 -8.84307,11.56224 -4.68466,11.56224 4.23632,0 11.11863,3.92648 12.70898,0 1.17318,-2.89648 0.489,-7.92668 3.51954,-8.68945 0.75081,-0.18898 1.49998,-0.38405 2.25123,-0.57168 10.67613,-2.66648 21.47457,-4.8817 32.0325,-7.98323 2.55299,-0.74997 4.76223,-2.55572 6.04902,-4.88504 1.05809,-1.91532 1.47321,-4.17295 1.17843,-6.34461 -0.0917,-0.67553 -0.27527,-1.33346 -0.45493,-1.98995 -2.88268,-10.53349 -15.67606,-23.24159 -8.64805,-31.60049 8.91676,-10.60531 18.29765,-20.83671 26.75788,-31.809623 1.75913,-2.281586 2.47157,-5.326312 1.9291,-8.158837 -0.38505,-2.010526 -1.41131,-3.873331 -2.83749,-5.342682 -0.79138,-0.815337 -1.58119,-1.632185 -2.37163,-2.448432 -7.7667,-8.020238 -26.65182,-13.411231 -23.30013,-24.060739 3.26764,-10.382411 7.00133,-20.629112 9.81271,-31.14421 0.75213,-2.813102 0.21379,-5.930575 -1.41075,-8.349936 -1.28112,-1.907915 -3.22446,-3.351948 -5.41401,-4.054742 -0.78251,-0.251165 -1.59462,-0.390066 -2.39628,-0.5623045 -13.37234,-2.8730891 -30.88713,1.4744145 -40.11706,-8.6192758 -0.97395,-1.06510305 -1.4786,-3.1953124 -2.92187,-3.1953124 -0.27735,-10e-8 -0.55469,0 -0.83203,0 z"
           inkscape:original-d="m 334.41016,0.05078125 c -1.79675,0 -3.59389,-1.8021e-4 -5.39063,0.0097656 -0.003,1.802e-5 -0.007,-1.808e-5 -0.01,0 -1.79675,4e-8 -3.59389,-2.1628e-4 -5.39063,0.0097656 l 7.58008,8.29882805 c 1.18,1.2999987 2.72164,2.1807815 4.43164,2.5507815 l 42.0293,9.029297 c 0,0 0.17,0.04164 0.25,0.18164 0.09,0.15 0.0493,0.268594 0.0293,0.308594 L 368,51.960938 c -0.93,2.939997 -0.16929,6.139377 1.9707,8.359374 l 26.41016,27.269532 c 0.14,0.14 0.14953,0.369531 0.0195,0.519531 l -26.95117,32.021485 c -1.77,2.11 -2.39992,4.95914 -1.66992,7.61914 l 9.04101,33.0293 c 0.03,0.1 0.019,0.21078 -0.041,0.30078 -0.05,0.09 -0.14024,0.14969 -0.24024,0.17969 l -34.55859,8.59961 c -2.6,0.64999 -4.75,2.51023 -5.75,4.99023 l -4.55078,11.23047 h 4.31054 0.01 4.31055 l 3.33007,-8.2207 c 0.05,-0.11 0.14954,-0.19852 0.26954,-0.22852 v -0.0117 l 34.55078,-8.59961 c 2.21,-0.55 4.05898,-1.94039 5.20898,-3.90039 1.15,-1.96 1.44961,-4.25922 0.84961,-6.44922 l -9.03906,-33.0293 c -0.03,-0.11999 8e-5,-0.26156 0.0801,-0.35156 L 402.51,93.269551 c 2.77999,-3.299996 2.60937,-8.140237 -0.39063,-11.240234 l -26.4082,-27.269531 c -0.1,-0.1 -0.1318,-0.250626 -0.0918,-0.390625 l 9.94141,-31.519532 c 0.71,-2.249997 0.44,-4.700236 -0.75,-6.740234 -1.18,-2.039998 -3.19024,-3.488516 -5.49024,-3.978516 L 337.28906,3.0996094 c -0.08,-0.02 -0.14922,-0.059141 -0.19922,-0.1191406 z"
           inkscape:path-effect="#path-effect2;#path-effect3"
           transform="matrix(1,0,0,1.0248423,0,0.08571843)" />
      </g>
    </g>
  </g>
</svg>
