<?xml version="1.0" encoding="UTF-8"?>
<svg id="Layer_2" data-name="Layer 2" xmlns="http://www.w3.org/2000/svg" viewBox="0 0 94.95 84.69">
  <defs>
    <style>
      .cls-1 {
        fill: #fff;
      }

      .cls-2 {
        fill: #000937;
      }
    </style>
  </defs>
  <g id="front">
    <g>
      <g>
        <g>
          <path class="cls-1" d="M13.04,53.94l1.73,5.12-3.51,1.44,3.62,11.27-4.96,2.11-4.51-10.94-3.5,1.49-1.92-5.7,13.04-4.78Z"/>
          <path class="cls-1" d="M29.7,53.92c.23.62.38,1.21.46,1.75.08.55.08,1.07,0,1.58-.08.51-.23,1.01-.47,1.5-.24.49-.55,1-.95,1.51l4.7,4.04-5,3.02-3.7-4.43-1.47.59,1.6,5.06-5.15,1.88c-.62-1.83-1.25-3.66-1.87-5.47s-1.24-3.64-1.86-5.48c-.32-.92-.63-1.84-.95-2.75-.31-.91-.61-1.83-.9-2.76.48-.41.97-.78,1.46-1.12s1-.64,1.52-.91c.52-.27,1.06-.53,1.61-.76.55-.23,1.12-.46,1.71-.67.91-.33,1.83-.53,2.78-.58.94-.06,1.83.04,2.67.31s1.59.7,2.26,1.3c.67.61,1.18,1.41,1.55,2.41ZM24.47,56.25c-.12-.33-.28-.62-.47-.87s-.42-.44-.67-.58c-.25-.14-.54-.22-.84-.23-.31-.02-.64.04-1,.17-.16.06-.31.13-.46.2-.14.08-.28.16-.41.25l1.43,4.52.29-.1c.34-.12.68-.3,1-.51.32-.22.59-.47.81-.76.22-.29.36-.61.44-.96.07-.35.04-.73-.11-1.13Z"/>
          <path class="cls-1" d="M43.33,43.65l-2.27,11.25,2.64,6.71-6.15,2.24-2.31-6.78-7.62-7.28,5.83-2.99,3.8,4.47.2-5.93,5.89-1.69Z"/>
          <path class="cls-1" d="M72.08,42.34c.42,1.14.79,2.29,1.14,3.45.34,1.16.67,2.33.99,3.5l-6.05,2.53c-.32-1.46-.66-2.91-1.02-4.35-.36-1.45-.79-2.87-1.3-4.26-.03-.09-.09-.24-.18-.46-.09-.22-.19-.46-.31-.73-.12-.27-.25-.55-.4-.84-.15-.29-.29-.54-.44-.77s-.3-.41-.45-.54c-.15-.13-.28-.17-.4-.13-.28.1-.46.29-.54.56-.08.27-.11.57-.08.89.03.32.1.64.19.95.1.31.18.56.25.76.12.33.25.67.39,1,.14.33.27.67.4,1.02.45,1.24.87,2.48,1.26,3.73.39,1.25.76,2.51,1.13,3.78l-5.6,2.28c-.32-1.46-.67-2.9-1.03-4.34-.37-1.43-.8-2.85-1.31-4.25-.03-.09-.09-.24-.19-.47-.09-.23-.2-.48-.33-.76-.12-.28-.26-.57-.42-.86-.15-.3-.31-.56-.46-.8-.15-.24-.31-.42-.46-.56-.15-.14-.29-.18-.41-.13-.2.07-.34.21-.42.42-.08.21-.12.45-.11.73,0,.28.04.57.11.89.06.32.14.62.22.92.08.29.17.56.25.81.08.25.14.43.18.55l2.92,8.83-6.03,2.2c-.36-1.39-.73-2.79-1.09-4.2s-.74-2.8-1.14-4.19c-.39-1.39-.81-2.77-1.24-4.15s-.89-2.75-1.39-4.1l5.61-2.32.48,1.4c.09-.29.21-.58.35-.89.14-.31.3-.6.49-.87.19-.27.4-.52.64-.73.24-.21.52-.38.82-.49.39-.14.75-.24,1.09-.29s.65-.05.96,0,.6.17.88.35c.28.18.57.44.85.77.15-.37.32-.73.49-1.06s.37-.64.6-.92.49-.52.79-.74c.3-.22.65-.4,1.06-.55.77-.28,1.49-.37,2.14-.27.65.1,1.25.33,1.79.7.54.36,1.03.83,1.47,1.39.44.56.83,1.17,1.19,1.82.35.65.67,1.31.94,1.98s.52,1.29.72,1.85Z"/>
          <path class="cls-1" d="M85.96,35.51c.25.69.46,1.4.62,2.13-1.33.59-2.64,1.22-3.92,1.91-1.28.69-2.56,1.37-3.83,2.06.42.5.91.84,1.48,1.02.57.18,1.16.16,1.77-.06.32-.12.65-.3.98-.56.33-.26.66-.54.97-.86.31-.32.6-.64.87-.97.27-.33.49-.63.68-.88l1.41,5.64c-.22.35-.49.68-.79.98-.3.3-.63.57-.98.82-.35.25-.72.47-1.1.66-.38.19-.76.36-1.15.5-.79.29-1.55.44-2.28.47s-1.44-.06-2.11-.25c-.67-.19-1.3-.48-1.89-.86-.59-.38-1.13-.83-1.62-1.36s-.93-1.11-1.32-1.76c-.39-.64-.71-1.32-.97-2.03-.27-.74-.47-1.51-.61-2.3s-.19-1.58-.16-2.37c.02-.79.14-1.55.35-2.29.21-.74.51-1.43.91-2.07.4-.64.91-1.22,1.52-1.72.62-.5,1.35-.91,2.21-1.22.71-.26,1.39-.4,2.05-.42.66-.02,1.28.06,1.87.24.59.18,1.13.45,1.65.8.51.36.98.78,1.41,1.27.43.49.81,1.03,1.15,1.63s.63,1.22.87,1.88ZM80.94,36.64c-.08-.22-.19-.44-.32-.66-.13-.22-.29-.4-.47-.55-.18-.15-.38-.26-.6-.32-.22-.06-.46-.04-.73.05-.32.12-.57.3-.75.56s-.31.55-.39.88c-.08.32-.12.66-.12,1,0,.34.02.65.05.93l3.42-1.63-.1-.26Z"/>
          <path class="cls-1" d="M89.64,24.98l3.61,12.95-4.43,1.62-5.05-12.43,5.87-2.14ZM94.79,41.54c.13.35.18.7.15,1.06-.02.35-.11.68-.25.99-.15.31-.34.59-.6.83-.26.24-.55.43-.9.55-.35.13-.7.18-1.05.16-.35-.02-.68-.11-.99-.25-.31-.14-.59-.34-.83-.6-.24-.25-.43-.56-.56-.91-.13-.34-.18-.69-.16-1.05.02-.36.1-.69.24-1,.14-.31.34-.59.6-.83s.56-.43.91-.56c.34-.12.69-.17,1.04-.15.35.03.68.11,1,.25.31.14.59.35.84.61s.44.56.56.91Z"/>
          <path class="cls-1" d="M32.48,69.41l1.33,3.92-2.69,1.11,2.77,8.63-3.8,1.61-3.45-8.39-2.68,1.14-1.47-4.37,9.99-3.67Z"/>
          <path class="cls-1" d="M46.33,71.06c.2.56.33,1.12.4,1.68.06.56.05,1.12-.02,1.66-.08.54-.22,1.06-.43,1.56-.21.5-.48.97-.81,1.39-.33.43-.73.81-1.18,1.14s-.96.61-1.53.81c-.55.2-1.1.32-1.65.36-.55.04-1.09.01-1.62-.08-.53-.1-1.03-.26-1.51-.49s-.93-.52-1.33-.86c-.41-.35-.77-.75-1.09-1.2-.32-.45-.58-.95-.78-1.49-.19-.53-.32-1.08-.38-1.63-.06-.56-.05-1.11.03-1.65.08-.54.22-1.06.42-1.57s.47-.97.79-1.4c.32-.43.71-.81,1.15-1.15s.93-.6,1.49-.8c.89-.32,1.75-.48,2.58-.47.83,0,1.6.17,2.3.5.7.32,1.33.79,1.88,1.42s.99,1.38,1.31,2.27ZM42.34,72.78c-.1-.26-.23-.5-.39-.72-.17-.22-.36-.4-.58-.54s-.46-.23-.72-.27c-.26-.04-.53,0-.81.09-.29.1-.53.25-.71.44s-.33.4-.43.64c-.1.24-.14.5-.14.77s.05.54.15.81c.09.26.22.5.39.73.17.23.36.42.58.58.22.16.47.26.73.31.26.05.54.02.83-.08.29-.1.52-.26.71-.45.19-.2.33-.42.42-.67.09-.25.13-.52.12-.8,0-.28-.06-.56-.16-.83Z"/>
          <path class="cls-1" d="M55.76,60.94c.51,2.25,1.06,4.48,1.64,6.68.58,2.2,1.18,4.42,1.79,6.64l-3.66,1.65-.35-1.47c-.07.18-.17.36-.29.52-.12.16-.27.31-.43.44-.16.13-.33.25-.52.34-.19.1-.37.18-.55.24-.42.14-.84.21-1.26.19-.42-.02-.84-.11-1.24-.26-.4-.15-.79-.35-1.16-.61-.37-.26-.71-.54-1.02-.87-.31-.32-.58-.66-.81-1.03s-.42-.73-.55-1.11c-.2-.55-.4-1.12-.59-1.72-.19-.6-.37-1.2-.53-1.82-.16-.61-.3-1.23-.43-1.84-.12-.61-.21-1.21-.27-1.79.76-.24,1.52-.47,2.28-.72.76-.24,1.52-.51,2.26-.79.05.58.11,1.17.17,1.75.06.58.13,1.17.22,1.75.09.58.2,1.16.33,1.73.13.57.3,1.13.5,1.69.05.13.12.31.22.54s.22.46.35.67c.14.21.29.39.46.52.17.13.35.17.55.1.23-.08.4-.26.51-.53.11-.27.18-.59.19-.98.02-.39,0-.82-.06-1.3-.06-.48-.14-.97-.25-1.47-.1-.5-.23-1.01-.36-1.52-.14-.5-.27-.98-.41-1.42-.14-.44-.26-.83-.38-1.18-.12-.35-.21-.61-.28-.8-.04-.12-.09-.24-.14-.35-.05-.11-.1-.23-.16-.35.4-.13.8-.27,1.19-.4.39-.14.79-.28,1.19-.42.31-.11.61-.23.92-.34.31-.12.61-.24.92-.37Z"/>
          <path class="cls-1" d="M65.04,57.99l1.08,3.99c-.2.02-.38.05-.56.09s-.36.1-.53.16c-.43.16-.83.36-1.18.62-.35.25-.64.55-.86.89-.22.34-.36.71-.41,1.12-.05.41,0,.85.18,1.33.12.34.28.62.48.84.19.22.41.38.66.48s.52.14.82.13.61-.08.93-.19c.23-.08.45-.19.67-.32.22-.13.44-.28.65-.45s.41-.34.59-.53c.18-.18.35-.37.49-.55l1.43,4.37c-.19.21-.41.41-.65.61-.24.2-.49.38-.76.56s-.54.34-.81.48c-.28.14-.55.26-.81.36-.87.32-1.72.44-2.55.38-.83-.06-1.6-.28-2.32-.66-.71-.37-1.35-.88-1.9-1.52-.55-.64-.98-1.38-1.29-2.21-.37-1-.56-1.99-.6-2.96-.03-.97.11-1.88.43-2.72.32-.84.82-1.59,1.51-2.25s1.55-1.19,2.61-1.57c.42-.15.86-.28,1.32-.37.46-.09.92-.12,1.39-.08Z"/>
          <path class="cls-1" d="M81.25,65.87l-4.51,1.89-1.45-3.86-2.11.77,1.34,4.07-4.11,1.5-4.36-13.03,4.44-1.39,2.13,6.69,2.04-.74-2.5-6.91,4.22-1.42,4.86,12.42Z"/>
          <path class="cls-1" d="M81.78,50.64l2.77,9.93-3.4,1.24-3.87-9.52,4.5-1.64ZM85.72,63.34c.1.27.14.54.12.81-.02.27-.08.52-.19.76-.11.24-.26.45-.46.63-.2.19-.42.33-.69.42-.27.1-.54.14-.81.12-.27-.02-.52-.08-.76-.19-.24-.11-.45-.26-.64-.46-.19-.2-.33-.43-.43-.7-.1-.26-.14-.53-.12-.81.01-.28.08-.53.19-.77.11-.24.26-.45.46-.64.19-.19.43-.33.7-.43.26-.1.53-.13.8-.12.27.02.52.08.76.19.24.11.45.27.64.47.19.2.33.43.43.7Z"/>
        </g>
        <path class="cls-1" d="M27.52,9.61l-2.42-6.62c-.86-2.36-3.47-3.57-5.82-2.71s-3.57,3.47-2.71,5.82l4.75,13.02-2.71,1.65c-1.72,1.05-2.36,3.24-1.46,5.05l3.6,7.27c.46.93,1.14,1.73,1.97,2.35l5.41,3.97c1.05.77,2.41.97,3.64.52l15.57-5.68c1.31-.48,2.27-1.62,2.5-3l1.23-7.19c.22-1.26.16-2.55-.15-3.78l-1.75-6.86c-.71-2.78-3.54-4.46-6.31-3.75-.17.04-.33.09-.49.15l-1.42.52c-.23-.15-.46-.29-.7-.43-.67-.39-1.75-.93-2.78-.96-1.02-.03-2.18.43-2.92.77l-.31.15c-.5-.57-1.19-.95-1.94-1.07-.68-.12-1.37-.14-2.06-.05-.81.12-1.85.52-2.6.82l-.12.05Z"/>
      </g>
      <g>
        <polygon class="cls-2" points="28.44 9.25 31.84 21.4 27.42 9.32 28.44 9.25 28.44 9.25"/>
        <polygon class="cls-2" points="35.13 9.46 38.63 20.08 34.21 9.84 35.13 9.46 35.13 9.46"/>
        <polygon class="cls-2" points="41.77 10.03 44.5 19.3 40.94 10.34 41.77 10.03 41.77 10.03"/>
        <polygon class="cls-2" points="21.32 19.12 23.68 27.06 20.63 19.46 21.32 19.12 21.32 19.12"/>
      </g>
    </g>
  </g>
</svg>