<?xml version="1.0" encoding="UTF-8"?>
<svg id="Layer_2" data-name="Layer 2" xmlns="http://www.w3.org/2000/svg" viewBox="0 0 706.84 604.54">
  <defs>
    <style>
      .cls-1 {
        fill: #4f0241;
      }
    </style>
  </defs>
  <g id="bottom">
    <path class="cls-1" d="M353.42,604.54c-38.04-51.85-74.27-58.85-130.54-21.38-9.65-62.82-39.33-81.16-111.64-60.75,22.45-65.73,2.28-92.71-80.23-96.34,54.63-56.29,46.93-89.23-31.01-123.81,77.93-34.58,85.64-67.52,31.01-123.81,82.51-3.63,102.69-30.61,80.23-96.34,72.31,20.41,101.99,2.07,111.64-60.75,56.26,37.48,92.5,30.47,130.54-21.38,38.04,51.85,74.27,58.85,130.54,21.38,9.65,62.82,39.33,81.16,111.64,60.75-22.45,65.73-2.28,92.71,80.23,96.34-54.63,56.29-46.93,89.23,31.01,123.81-77.93,34.58-85.64,67.52-31.01,123.81-82.51,3.63-102.69,30.61-80.23,96.34-72.31-20.41-101.99-2.07-111.64,60.75-56.26-37.48-92.5-30.47-130.54,21.38Z"/>
  </g>
</svg>