<?xml version="1.0" encoding="UTF-8"?>
<svg id="Layer_2" data-name="Layer 2" xmlns="http://www.w3.org/2000/svg" viewBox="0 0 541.9 130.61">
  <defs>
    <style>
      .cls-1 {
        fill: #1384fa;
      }

      .cls-2 {
        fill: #d7e2ff;
      }
    </style>
  </defs>
  <g id="middle">
    <g>
      <path class="cls-1" d="M515.23,122.45c-7.64,3.84-16.96,5.68-27.22,6.69-18.68,1.76-38.63,1.38-57.4,1.47-102.83,0-206.79,0-310.01,0-12.92-.02-25.41,0-38.77-.16-20.8-.53-44.23-.35-60.24-11.03C-1.85,102.76-2.12,67.23,2.06,44.19,5.9,23.41,17.32,8.13,44.21,3.12,57.43.55,69.63.53,82.58.32c101.37-.74,235.49.1,346.61-.2,28.14.81,67.42-3.29,90.17,10.94,21.91,13.91,23.7,43.37,22.1,64.58-1.77,16.96-7.09,37.1-26.05,46.71l-.18.09Z"/>
      <g>
        <g>
          <path class="cls-2" d="M446.38,34.14c5.9,6.03,6.12,23.01-.83,29-6.7,5.77-18.9,1.04-18.92,1.56,0,.28,3.37,1.37,7.65,1.46,4.72.1,5.99-1.14,7.52.03,2.5,1.9,3.1,8.22.54,11.08-3.71,4.15-13.09.41-13.12.63-.02.12,2.64,1.16,6.85,1.37,8.07.39,10.65-2.84,13.01-1.31,4.17,2.69,3.53,17.68-3.99,23.96-3.34,2.79-8.22,2.73-17.78,2.52-12-.27-17.73-.32-20.25-3.63-4.18-5.5.72-12.57.89-31.38.19-20.66-5.43-28.93-.96-34.38,2.5-3.04,4.86-1.19,20.56-1.76,13.59-.49,15.97-2.09,18.84.84Z"/>
          <path class="cls-1" d="M433.25,106.03c-1.79,0-3.77-.04-5.99-.09l-.82-.02c-12.15-.27-17.69-.39-20.59-4.2-2.78-3.66-2.13-7.79-1.13-14.04.73-4.6,1.65-10.33,1.72-18.27.08-9.1-.95-15.63-1.79-20.87-1.04-6.57-1.73-10.91,1.17-14.45,2.06-2.5,4.17-2.44,9.27-2.29,2.84.08,6.73.2,12.39,0,4.14-.15,7.18-.4,9.62-.6,5.56-.46,7.86-.64,10.34,1.89h0c3.26,3.33,5.1,9.66,4.81,16.52-.27,6.42-2.36,11.76-5.73,14.66-.86.74-1.8,1.33-2.78,1.79.9,1.2,1.5,2.89,1.68,4.84.2,2.13-.14,4.18-.92,5.79.03,0,.06-.02.09-.03,1.93-.56,3.59-1.05,5.29.04,1.84,1.18,2.98,3.9,3.21,7.64.36,5.89-1.69,14.26-7.05,18.73-2.96,2.47-6.78,2.96-12.78,2.96ZM412.14,34.75c-2.57,0-3.18.26-4,1.26-2.05,2.49-1.51,5.89-.52,12.07.81,5.07,1.91,12.02,1.82,21.37-.07,8.16-1.05,14.26-1.76,18.71-.94,5.88-1.45,9.11.56,11.75,2.02,2.66,7.45,2.78,18.27,3.02l.82.02c9.58.21,13.93.21,16.78-2.17,4.56-3.8,6.3-11.08,5.98-16.24-.19-3.17-1.11-4.84-1.84-5.3-.5-.32-1.13-.18-2.82.32-1.97.58-4.95,1.46-9.46,1.23-3.19-.16-7.13-.95-7.92-1.89-.27-.32-.4-.75-.34-1.17.06-.43.3-.83.66-1.07.61-.4,1.11-.26,2.01,0,5.55,1.56,9.19,1.44,10.81-.37.95-1.06,1.42-3.01,1.23-5.08-.16-1.71-.77-3.21-1.56-3.8-.2-.15-.35-.21-.73-.2-.72.13-1.45.22-2.17.28-.96.12-2.17.23-3.74.2-3.33-.07-7.71-.85-8.68-1.87-.28-.29-.45-.73-.44-1.13.01-.45.24-.89.59-1.16.65-.5,1.21-.37,2.73-.03,1.86.42,5.55,1.26,9.23,1.01.3-.04.58-.08.84-.12.43-.06.85-.12,1.26-.15,1.76-.35,3.43-1.03,4.79-2.2,2.7-2.33,4.46-7.01,4.69-12.52.25-5.97-1.3-11.59-3.95-14.3h0c-1.45-1.48-2.52-1.44-7.96-1-2.34.19-5.55.45-9.76.6-5.76.21-9.71.09-12.59,0-1.17-.03-2.1-.06-2.86-.06Z"/>
        </g>
        <g>
          <path class="cls-2" d="M379.03,46.82c-1.53-4.88-1.66-8.81-10.72-10.27-4.69-.75-15.03-1.12-18.54,2.41-4.15,4.17-3.85,14.71-2.12,35.12,1.37,17.51,1.8,26.29,5.15,28.94,4.12,3.26,11.2,2.46,14.82-1.82,7.21-8.52-.06-30.02.23-30.08.2-.04,1.94,9.1,1.94,9.1,1.27,6.71,1.34,7.43,2.05,8.53,2.69,4.2,9.41,5.83,12.92,2.9,1.13-.95,1.38-1.91,4.21-10.01,0,0,3.19-8.64,3.38-8.58.25.08-10.38,21.91-4.82,28.13,3.24,3.63,11.72,1.88,16.77-3.35,4.1-4.25,3.65-8.47,4.83-32.47.85-17.44.51-25.57-3.89-28.48-4.18-2.72-9.41-1.55-15.19.72s-6.05,4.8-6.87,9.21-.88,10.91-1.75,10.95-.87-6.06-2.4-10.95Z"/>
          <path class="cls-1" d="M358.97,106.5c-2.58,0-5.11-.75-7.08-2.3-3.62-2.86-4.19-10.19-5.43-26.25l-.29-3.75c-1.86-21.92-1.92-31.81,2.55-36.3,4.22-4.25,15.75-3.49,19.84-2.83,9.05,1.45,10.23,5.52,11.47,9.83.14.48.28.97.44,1.47.33,1.06.59,2.15.81,3.23.12-1.05.26-2.09.44-3.05l.08-.46c.79-4.28,1.35-7.38,7.71-9.88,5.38-2.12,11.55-3.84,16.56-.58,5.03,3.33,5.46,11.51,4.57,29.81-.16,3.34-.29,6.29-.41,8.92-.74,16.53-.91,20.46-4.83,24.53-3.43,3.56-8.52,5.76-12.94,5.72-2.57-.05-4.66-.88-6.02-2.41-1.76-1.97-2.22-5.02-1.91-8.57-1.67.91-3.74,1.22-5.97.88-2.38-.37-4.59-1.42-6.26-2.94-.23,4.05-1.2,7.87-3.51,10.6-2.39,2.83-6.15,4.33-9.81,4.33ZM361.54,37.55c-4.39,0-8.9.65-10.7,2.47-3.6,3.62-3.43,13.39-1.69,33.94l.29,3.76c1.06,13.77,1.71,22.08,4.3,24.12,3.51,2.77,9.7,1.99,12.75-1.61,2.69-3.18,3.48-8.87,2.36-16.96-.04-.24-.09-.48-.14-.74l-.38-2.04c-.38-1.99-.79-4.1-1.14-5.76-.15-.6-.3-1.21-.46-1.83-.43-1.68-.51-1.98-.14-2.58.22-.35.58-.6.98-.68.39-.08.81,0,1.14.23.47.32.66.44,1.46,4.37.58,2.36,1.3,5.6,1.75,9.11.66,3.46.79,3.96,1.19,4.59,1.18,1.85,3.44,3.23,5.89,3.6,1.91.29,3.66-.09,4.8-1.04.67-.56.96-1.33,2.98-7.11l.78-2.24h.04c.17-.48.35-.97.53-1.45.94-2.71,2.64-7.33,3.33-7.84.39-.28.9-.37,1.36-.22.4.13.73.42.9.8.3.64.2.88-.56,2.7-7.08,16.95-6.35,22.98-4.5,25.05,1.01,1.13,2.65,1.39,3.85,1.41,3.58.1,7.89-1.86,10.72-4.8,3.13-3.25,3.28-6.58,4-22.58.12-2.63.25-5.59.41-8.93.8-16.43.53-24.68-3.22-27.16-3.11-2.02-7.11-1.77-13.81.87-4.8,1.89-5.11,3.57-5.86,7.63l-.08.46c-.31,1.7-.52,3.78-.7,5.61-.45,4.58-.64,6.48-2.46,6.56-1.8.09-2.04-1.71-2.5-4.95-.3-2.11-.67-4.73-1.4-7.04-.16-.52-.31-1.04-.46-1.54-1.18-4.08-1.9-6.55-9.07-7.7-1.85-.3-4.18-.48-6.53-.48ZM382.5,56.85h.01-.01Z"/>
        </g>
        <g>
          <path class="cls-2" d="M336.24,38.99c-1.96,1.6-4.71,0-11.75,1.86-2.39.63-3.6.99-4.47,1.85-2.79,2.75-1.58,7.62-.2,13.19,1.46,5.94,2.67,11.94,4.31,17.85,3.71,13.4,5.52,20.16,3.35,23.45-4.23,6.4-17.44,8.5-22.97,3.8-.9-.77-2.56-2.53-3.11-14.29-.53-11.22.39-22.18.48-23.22.94-10.92,2.1-16.01-1.27-18.47-1.47-1.07-3.11-1.15-6.09-1.32-8.51-.5-11.87,3.47-15.14,1.86-3.22-1.59-4.74-8.18-3.12-13.26,1.23-3.85,4.42-6.82,27.82-10.28,23.78-3.52,27.16-2.6,29.35-1.05,5.69,4,6.36,15.18,2.83,18.05Z"/>
          <path class="cls-1" d="M312.99,105.04c-3.84,0-7.25-1.02-9.46-2.91-1.58-1.34-3.11-4.13-3.64-15.36-.53-11.23.38-22.21.48-23.42.15-1.69.3-3.24.44-4.66.75-7.75.98-10.95-1.1-12.47-1.05-.77-2.27-.87-5.17-1.03h-.12c-4.18-.25-7.03.65-9.31,1.37-2.31.73-4.3,1.36-6.4.32-3.86-1.91-5.75-9.23-3.88-15.06,1.59-4.99,6.34-7.95,29.02-11.31,24.27-3.6,27.81-2.65,30.43-.79,3.93,2.76,5.48,8.06,5.62,12.1.13,3.79-.86,6.83-2.72,8.34-1.35,1.1-2.85,1.13-4.74,1.16-1.74.03-4.13.07-7.57.98-2.2.58-3.22.89-3.8,1.47-2.18,2.15-1.08,6.59.19,11.74.54,2.21,1.05,4.41,1.55,6.6.85,3.7,1.73,7.52,2.75,11.23,3.82,13.82,5.74,20.75,3.16,24.67-2.29,3.47-6.96,6.01-12.49,6.79-1.1.16-2.18.23-3.23.23ZM293.03,42.13c.5,0,1.03.02,1.57.05h.12c2.99.18,4.96.29,6.77,1.61,3.54,2.58,3.11,7.06,2.32,15.18-.14,1.41-.29,2.95-.43,4.63-.1,1.2-.99,11.99-.47,23.02.36,7.62,1.23,12.06,2.58,13.22,2.15,1.83,6.11,2.6,10.33,1.99,4.63-.66,8.62-2.75,10.41-5.47,1.84-2.78-.3-10.52-3.54-22.22-1.04-3.77-1.93-7.63-2.79-11.36-.5-2.18-1-4.36-1.53-6.53-1.43-5.81-2.78-11.27.61-14.62,1.15-1.14,2.63-1.57,5.14-2.23,3.79-1,6.39-1.05,8.29-1.08,1.63-.03,2.37-.06,2.9-.49,0,0,0,0,0,0,1.07-.87,1.7-3.19,1.61-5.9-.14-4.17-1.85-8-4.35-9.76-1.78-1.26-5.27-2.1-28.27,1.31-22.95,3.4-25.63,6.21-26.61,9.26-1.5,4.7.07,10.32,2.36,11.45.97.48,2.04.18,4.17-.5,2.12-.67,4.93-1.56,8.83-1.56Z"/>
        </g>
        <g>
          <path class="cls-2" d="M268.15,49.75c-3.6,4.24-2.95,7.95-2.84,25.44.12,19.32-.59,22.14,2.62,25.2,5.01,4.79,13.46,4.21,21.39,3.69s14.03-.79,17.88-5.51c4.74-5.8,3.78-15.85-.75-18.52-5.29-3-12.83,4.78-18.1,1.78-2.66-1.52-3.1-4.69-3.51-8.3s-.6-6.36,1.26-8.69c3.68-4.61,11.02-.84,15.42-5.41,3.99-4.15,3.96-13.37-.89-17.42-4.61-3.86-11.9-1.67-18.58.33-4.9,1.47-10.19,3.05-13.89,7.41Z"/>
          <path class="cls-1" d="M281.75,105.92c-5.63,0-11.09-.83-14.87-4.44-3.09-2.96-3.09-5.72-3.07-17.35,0-2.5.01-5.45-.01-8.92-.02-2.48-.04-4.69-.07-6.66-.14-12.06-.19-15.7,3.26-19.77,3.98-4.69,9.61-6.38,14.58-7.87,6.94-2.08,14.77-4.43,20-.05,2.51,2.1,4.07,5.55,4.28,9.46.22,4-1.01,7.8-3.28,10.15-2.58,2.69-5.94,2.93-8.9,3.14-2.67.19-4.98.36-6.43,2.16-1.47,1.84-1.33,4.2-.94,7.59.41,3.61.82,6.06,2.76,7.16,2.03,1.15,4.82.11,7.78-.99,3.31-1.23,7.07-2.63,10.32-.79,2.19,1.29,3.77,3.95,4.38,7.32.86,4.83-.37,9.98-3.2,13.46-4.17,5.1-10.75,5.53-18.36,6.02l-.76.05c-2.44.16-4.98.32-7.48.32ZM293.95,41.38c-3.46,0-7.51,1.21-11.48,2.4-4.82,1.44-9.77,2.93-13.18,6.94h0c-2.63,3.1-2.7,5.76-2.55,17.79.02,1.97.05,4.18.07,6.67.02,3.49.02,6.44.01,8.95-.02,11.63.06,13.19,2.14,15.18,4.5,4.3,12.42,3.79,20.08,3.29l.76-.05c7.2-.46,12.89-.83,16.23-4.92,2.26-2.77,3.27-7.1,2.57-11.03-.45-2.5-1.51-4.42-2.92-5.25-2.02-1.14-4.81-.1-7.78,1-3.31,1.23-7.06,2.63-10.31.78-3.41-1.94-3.86-5.92-4.26-9.43-.37-3.21-.78-6.85,1.58-9.8,2.26-2.83,5.6-3.07,8.55-3.29,2.66-.19,5.17-.37,6.96-2.23,1.67-1.74,2.61-4.77,2.44-7.91-.17-3.08-1.33-5.75-3.21-7.32-1.55-1.3-3.51-1.79-5.71-1.79ZM268.15,49.75h0,0Z"/>
        </g>
        <g>
          <g>
            <path class="cls-2" d="M252.03,81.95c-.06,0-.18,3.84-.99,10.36.89-5.59,1.06-10.36.99-10.36Z"/>
            <path class="cls-1" d="M251.04,93.81c-.07,0-.14,0-.21-.01-.81-.12-1.38-.86-1.28-1.67.57-4.58.8-7.79.9-9.33.08-1.23.11-1.56.6-1.98.31-.27.71-.4,1.12-.36.41.04.78.24,1.04.56.15.18.23.61.26,1.18h.03c0,.06-.01.14-.02.25.11,3.14-.95,10.01-.96,10.1-.12.74-.75,1.26-1.48,1.26Z"/>
          </g>
          <g>
            <path class="cls-2" d="M266.61,72.05c-.33-12.11,2.27-19.05-2.65-22.73-2.54-1.9-5.91-2.06-11.6-2.32-6.12-.28-10.62-.49-13.75,1.7-4.99,3.49-1.98,9.87-3.65,22.73-2.18,16.86-9.41,21.78-5.43,27.73,3.65,5.46,13.83,7.43,18.03,4.28,1.94-1.45,2.45-4.68,3.48-11.13.82-6.52.93-10.37.99-10.36.07,0-.11,4.77-.99,10.36-1.12,8.93-1.98,10.29-.83,11.91,2.88,4.03,14.7,4.58,19.49-.52,5.05-5.38-2.54-11.93-3.08-31.65ZM252.67,77.1c.53-4.91.53-9.82,0-14.72,1.05,4.91,1.05,9.82,0,14.72Z"/>
            <path class="cls-1" d="M259.22,108.88c-.48,0-.95-.02-1.4-.05-4.05-.27-7.35-1.67-8.83-3.75-.14-.19-.26-.39-.36-.58-.06.05-.11.09-.17.13-2.18,1.63-5.65,2.19-9.51,1.53-4.62-.79-8.61-3.1-10.67-6.18-2.6-3.89-1.22-7.4.69-12.26,1.57-4,3.53-8.99,4.5-16.49.61-4.68.58-8.54.56-11.63-.04-5.51-.06-9.49,3.72-12.14,3.55-2.49,8.22-2.27,14.68-1.97,5.94.27,9.52.44,12.43,2.62,4.07,3.04,3.82,7.79,3.47,14.35-.15,2.78-.32,5.92-.22,9.55.25,9.01,2.02,15.28,3.31,19.85,1.54,5.44,2.65,9.38-.63,12.87-2.89,3.08-7.64,4.15-11.57,4.15ZM253.48,82.45c.11,3.14-.95,10.01-.96,10.1-.35,2.78-.68,4.88-.92,6.42-.52,3.25-.57,3.82-.16,4.38.93,1.31,3.52,2.29,6.59,2.5,4.34.29,8.5-.95,10.58-3.17,2.03-2.17,1.48-4.49-.07-10-1.33-4.73-3.16-11.2-3.42-20.58h0c-.1-3.74.07-6.95.22-9.79.35-6.55.4-9.79-2.27-11.79-2.17-1.62-5.41-1.77-10.77-2.02-5.87-.27-10.11-.47-12.82,1.43-2.39,1.67-2.47,4.17-2.44,9.66.02,3.19.05,7.16-.58,12.04-1.02,7.88-3.14,13.27-4.69,17.21-1.93,4.92-2.65,7.01-.99,9.5,1.59,2.38,4.91,4.25,8.68,4.89,2.96.51,5.72.13,7.2-.98,1.45-1.09,1.97-4.31,2.9-10.17.57-4.53.79-7.74.9-9.28.08-1.23.11-1.56.6-1.98.31-.27.71-.4,1.12-.36.41.04.78.24,1.04.56.15.18.23.61.26,1.18h.03c0,.06-.01.14-.02.25ZM252.67,78.6c-.08,0-.16,0-.24-.02-.79-.13-1.34-.85-1.25-1.64.51-4.78.51-9.62,0-14.4-.09-.79.47-1.51,1.25-1.64.79-.12,1.54.39,1.7,1.17,1.09,5.09,1.09,10.26,0,15.35-.15.7-.77,1.18-1.47,1.18Z"/>
          </g>
        </g>
        <g>
          <path class="cls-2" d="M173.14,46.52c-.52-2.23-3-11.29-11.42-15.68-13.47-7.02-33.82,2.23-34.61,9.72-.41,3.88,4.73,4.46,6.38,10.98,1.87,7.34-3.69,10.36-3.7,20.07,0,2.72,0,9.64,4.7,14.74,7.43,8.04,23.97,8.7,30.91,2.2,3.06-2.87,1.73-4.77,4.7-20.7,2.64-14.14,4.29-15.91,3.02-21.33ZM154.29,71.37c-.15,1.28-.35.97-.49-.7-.15-1.85-.16-4.77-.19-9.07-.02-4.51-.04-8.1.11-10.47.11-1.69.29-2.51.45-1.63.23,1.33.29,5.9.32,8.33.01,1.02.13,10.66-.2,13.54Z"/>
          <path class="cls-1" d="M151.92,94.45c-.38,0-.76,0-1.14-.02-7.03-.25-13.53-2.9-17.38-7.07-5.11-5.53-5.1-12.96-5.1-15.76,0-4.89,1.31-8.15,2.47-11.03,1.19-2.95,2.13-5.29,1.27-8.67-.75-2.96-2.32-4.53-3.71-5.92-1.47-1.47-2.99-2.99-2.71-5.58.34-3.24,3.43-6.64,8.47-9.35,7.67-4.12,19.4-6.19,28.33-1.54,8.75,4.56,11.54,13.91,12.19,16.67h0c.93,3.96.42,6.14-.79,11.43-.6,2.61-1.35,5.85-2.22,10.52-1.09,5.83-1.59,9.73-1.95,12.57-.63,4.93-.87,6.77-3.2,8.95-3.3,3.09-8.54,4.82-14.52,4.82ZM150.71,29.84c-5.47,0-11,1.6-15.2,3.86-4.03,2.17-6.68,4.86-6.9,7.02-.12,1.12.48,1.78,1.85,3.15,1.49,1.49,3.54,3.54,4.49,7.3,1.1,4.34-.11,7.35-1.39,10.53-1.11,2.75-2.25,5.6-2.26,9.91,0,2.71,0,9.06,4.31,13.72,3.32,3.6,9.04,5.88,15.28,6.1,5.56.19,10.62-1.29,13.5-3.99,1.49-1.4,1.66-2.35,2.27-7.14.37-2.88.88-6.82,1.98-12.73.88-4.72,1.67-8.14,2.24-10.64,1.17-5.08,1.56-6.79.8-10.07-.57-2.44-3.03-10.72-10.66-14.69-3.15-1.64-6.72-2.33-10.32-2.33ZM154.09,73.66s-.02,0-.03,0c-1.52-.03-1.66-1.67-1.75-2.86-.16-1.91-.17-4.81-.19-9.19-.02-4.55-.04-8.15.12-10.58.12-1.77.22-3.31,1.73-3.39.32-.02,1.42.05,1.69,1.6.23,1.33.3,5.12.34,8.57.02,1.78.12,10.82-.21,13.73h0c-.06.53-.24,2.12-1.69,2.12Z"/>
        </g>
        <g>
          <path class="cls-2" d="M255.01,31.8c4.11,4.18,3.87,12.38.33,15-2.2,1.62-6.12,1.45-10.24,1.26-3.89-.18-6.14-.89-7.66.44-1.36,1.2-1.06,4.07-1.06,4.07,0,0-.29,14.12-1.41,21.56-1.11,7.46-1.93,10.65-3.65,19.61-1.25,4.66-2.21,6.42-4.4,7.72-4.98,2.95-13.42,3.55-16.32.39-2.83-3.07-2.9-6.57,1.82-20.7,5.1-15.23,7.93-25.75,3.02-30.89-5.03-5.27-10.35-2.21-14.04-7.75-2.56-3.85-.89-10.61,3.23-13.8,4.9-3.79,10.01-.17,26.51.77,15.03.86,19.98-1.62,23.86,2.32Z"/>
          <path class="cls-1" d="M217.26,105.44c-3.19,0-6.11-.78-7.76-2.57-3.49-3.78-3.19-8.14,1.5-22.2,4.62-13.8,7.8-24.72,3.36-29.38-2.12-2.23-4.27-2.75-6.54-3.29-2.67-.64-5.43-1.31-7.66-4.66-2.95-4.43-1.22-12.12,3.56-15.82,3.56-2.75,7.18-2.17,13.19-1.2,3.63.58,8.14,1.31,14.33,1.66,5.4.31,9.45.18,12.7.08,5.74-.18,9.21-.29,12.14,2.69h0c2.42,2.46,3.73,6.41,3.42,10.31-.24,3.05-1.43,5.58-3.27,6.94-2.62,1.94-6.79,1.75-11.19,1.55-1.03-.05-1.95-.13-2.77-.2-2.16-.19-3.22-.26-3.83.27-.5.44-.64,1.9-.55,2.79,0,.06,0,.12,0,.18-.01.58-.31,14.3-1.43,21.75-.76,5.1-1.38,8.2-2.24,12.49-.41,2.02-.86,4.3-1.41,7.18,0,.04-.01.07-.02.11-1.21,4.52-2.28,6.96-5.09,8.62-2.85,1.69-6.81,2.69-10.43,2.69ZM209.97,28.51c-1.77,0-3.1.38-4.41,1.39-3.51,2.72-4.98,8.66-2.9,11.78,1.58,2.38,3.47,2.83,5.86,3.41,2.47.6,5.28,1.27,8.01,4.14,5.61,5.88,2.43,17.14-2.68,32.41-4.75,14.25-4.27,16.9-2.14,19.21,2.24,2.43,9.81,2.08,14.46-.67,1.58-.93,2.45-2.08,3.71-6.76.55-2.87,1-5.14,1.41-7.16.85-4.25,1.47-7.32,2.22-12.34,1.05-6.97,1.37-20.1,1.4-21.29-.06-.68-.2-3.69,1.57-5.25,1.61-1.41,3.58-1.23,6.08-1.01.78.07,1.65.15,2.63.19,3.7.16,7.51.34,9.28-.97,1.12-.83,1.89-2.61,2.06-4.77.24-3.06-.75-6.12-2.57-7.98-1.91-1.94-4.04-1.98-9.91-1.79-3.31.1-7.43.23-12.97-.08-6.34-.36-10.94-1.1-14.63-1.69-2.77-.45-4.81-.77-6.47-.77Z"/>
        </g>
        <g>
          <path class="cls-2" d="M182.93,72.51c-.07,0,.93,5.04,1.67,13.15,1.18,12.91.12,15.63,2.8,18.4,3.66,3.78,11.69,4.93,17,2.2,6.13-3.16,4.5-9.36,9.33-27.9,4.37-16.77,7.72-22.39,3.62-27.96-3-4.07-8.53-5.84-12.02-6.95-2.18-.7-10.68-3.43-12.96-.62-1.62,2,1.39,4.96,3.27,14.02,1.08,4.84,1.11,7.71.96,7.73-.05,0,.3-5.67-1.86-12.1-1.09-3.24-2.3-7.01-5.85-10.09-4.38-3.8-11.83-6.1-15.08-3.57-2.13,1.66-1.66,4.76-1.49,8.66.23,5.26-1,11.03-3.48,22.58-3.84,17.92-12.22,23.62-8.29,29.07,1.95,2.7,5.85,3.88,10.44,5.26,4.99,1.51,8.28,2.5,10.77,1.08,3.99-2.27,3.53-9.33,2.84-19.79-.47-7.12-1.59-13.16-1.67-13.15Z"/>
          <path class="cls-1" d="M197.65,109.26c-4.34,0-8.72-1.46-11.33-4.15-.43-.45-.79-.89-1.07-1.35-.62,1.3-1.51,2.3-2.75,3-3.05,1.73-6.59.67-11.94-.95-4.82-1.45-8.98-2.71-11.22-5.82-2.65-3.66-.87-7.34,1.59-12.43,1.99-4.11,4.71-9.74,6.44-17.83,2.44-11.41,3.67-17.13,3.45-22.2-.02-.45-.04-.9-.07-1.33-.19-3.42-.36-6.64,2.14-8.58,3.97-3.09,12.14-.57,16.98,3.63.38.33.73.67,1.07,1.01.08-.13.17-.25.27-.37,1.99-2.45,6.62-2.41,14.56.13,3.57,1.14,9.5,3.04,12.8,7.5,3.6,4.88,2.2,9.71-.6,19.32-.83,2.84-1.77,6.07-2.77,9.91-1.6,6.14-2.48,10.88-3.18,14.69-1.45,7.81-2.17,11.73-6.91,14.17-2.19,1.13-4.81,1.67-7.43,1.67ZM186.11,85.7c.37,4.06.51,7.06.63,9.47.25,5.15.36,6.42,1.74,7.85,3.24,3.34,10.64,4.27,15.23,1.91,3.27-1.69,3.89-4.24,5.34-12.05.71-3.86,1.6-8.65,3.23-14.9,1.01-3.89,1.96-7.13,2.79-10,2.68-9.2,3.79-13.01,1.07-16.7-2.72-3.68-7.86-5.33-11.27-6.42-9.25-2.96-11.07-1.44-11.34-1.1-.32.39,0,1.38.68,3.21.82,1.67,1.38,3.32,1.87,4.81l.07.2c.75,2.22,1.61,5.6,1.86,9.8.18,1.62.2,3.11-.2,3.66-.25.35-.66.58-1.09.62-.42.04-.84-.11-1.16-.4-.49-.45-.48-.98-.48-1.4,0-.74-.02-1.45-.06-2.14-.13-1.18-.38-2.84-.86-4.96-.82-3.94-1.86-6.7-2.61-8.72-.03-.09-.07-.18-.1-.27-.82-1.64-1.92-3.25-3.56-4.67-4.15-3.6-10.8-5.38-13.17-3.52-1.2.93-1.16,2.81-.98,6.05.02.44.05.89.07,1.36.24,5.45-1.01,11.3-3.51,22.96-1.81,8.44-4.62,14.26-6.67,18.51-2.46,5.09-3.4,7.24-1.86,9.37,1.65,2.29,5.36,3.4,9.66,4.7,4.61,1.39,7.66,2.31,9.6,1.21,3.16-1.79,2.73-8.68,2.1-18.22,0-.04,0-.09-.01-.14-.54-5.9-1.22-10.18-1.51-12.01-.22-1.36-.26-1.65.14-2.17.25-.33.62-.54,1.03-.59.4-.05.82.08,1.14.34.17.14.33.52.49,1.07h.04c0,.05.02.15.04.27.93,3.58,1.63,12.74,1.64,12.85,0,.05,0,.09,0,.14Z"/>
        </g>
        <g>
          <path class="cls-2" d="M119.26,38.85c1.53-.32,8.31-1.51,11.87,3.03,2.99,3.8,3.43,9.78,2.57,13.8-2.93,10.4-14.9,9.59-14.95,17.29-.82,5.04,1.96,11.08,5.8,12.74,5.76,2.39,10.85-5.24,17.06-2.74,6.24,2.34,9.48,13.72,4.9,19.6-7.28,10.27-42.59,11.3-52.27-9.96-12.95-21.63,7.05-50.43,25.01-53.76Z"/>
          <path class="cls-1" d="M126.09,111.16c-1.52,0-3.07-.07-4.64-.22-13.59-1.29-23.99-7.72-28.54-17.63-5.53-9.3-5.76-20.66-.64-32.01,5.5-12.18,16.47-22.02,26.69-23.92,2.15-.45,9.36-1.49,13.34,3.57,3.3,4.19,3.81,10.57,2.86,15.04-1.69,6.01-6.04,8.66-9.53,10.8-3.43,2.09-5.37,3.42-5.39,6.19,0,.08,0,.15-.02.23-.7,4.32,1.69,9.73,4.92,11.12,2.2.91,4.43-.13,7-1.33,2.94-1.38,6.27-2.93,10.03-1.42,3.29,1.24,6.04,4.66,7.31,9.16,1.36,4.81.69,9.58-1.79,12.76-3.35,4.72-11.88,7.67-21.61,7.67ZM122.93,39.97c-1.46,0-2.71.21-3.37.35-.01,0-.02,0-.03,0-9.31,1.73-19.39,10.86-24.52,22.21-2.73,6.06-6.3,17.91.52,29.31.03.05.05.1.08.15,5.79,12.72,20.2,15.4,26.13,15.97,10.38.98,20.29-1.64,23.55-6.25,1.9-2.45,2.39-6.32,1.31-10.16-1-3.53-3.11-6.28-5.51-7.18-2.58-1.04-4.94.06-7.67,1.34-2.81,1.32-6,2.81-9.44,1.38-4.48-1.93-7.59-8.57-6.73-14.25.09-4.49,3.51-6.59,6.82-8.61,3.36-2.05,6.84-4.18,8.18-8.96.76-3.56.38-9.05-2.31-12.46-1.8-2.29-4.68-2.84-7.02-2.84ZM119.26,38.85h0,0Z"/>
        </g>
      </g>
    </g>
  </g>
</svg>