<?xml version="1.0" encoding="UTF-8"?>
<svg id="Layer_2" data-name="Layer 2" xmlns="http://www.w3.org/2000/svg" viewBox="0 0 71.95 113.57">
  <defs>
    <style>
      .cls-1 {
        fill: #faa501;
      }

      .cls-2 {
        fill: #003;
      }

      .cls-3 {
        fill: #c06;
      }
    </style>
  </defs>
  <g id="middle">
    <g>
      <g>
        <path class="cls-1" d="M71.95,70.11l-11.68-1.81-4.94-.97.99-8.3-21.29,2.78v1.61l-7.63.93-11.45-3.38-14,2.03-1.95,34.7,21.82.93c-.21-1.33-.86-5.57-.86-5.57l10.61.65-.77,4.25,8.32,1.97-2.01,6.93,14.32,6.71,10.7-4.6-3.57-5.89c.28-.6,13.4-32.97,13.4-32.97Z"/>
        <path class="cls-1" d="M36.57,66.28c-.28,0-.56,0-.86-.02-.3,0-.58.02-.86.02h-.05c-.28,0-.56,0-.86-.02-.3,0-.58.02-.86.02h-.05c-5.71-.02-11.32-1.63-16.22-4.66-5.04-3.11-8.96-7.48-11.33-12.65-1.96-4.08-3.03-8.76-3.26-14.31-.17-3.75-.15-6.88.08-9.85v-.02c.25-3.12.83-7.2,3.17-11.05,2.31-3.83,5.97-6.85,10.23-8.49,0-.36.02-.8.14-1.33v-.05c.44-1.72,1.86-3.15,3.62-3.65h.02C20.27,0,21,0,21.71,0c.1,0,.2,0,.31,0h.03c.27,0,.54,0,.82,0,.42,0,.85,0,1.27,0,.44,0,.87,0,1.3,0,.88,0,1.57,0,2.18.01h.02c1.43.03,2.46.49,3.48.99l.04.02c.58.3,1.21.64,1.81,1.11l.05.04c.51.41.93.87,1.26,1.37h1.28c.52-1.56,1.86-2.84,3.51-3.31h.02C39.89,0,40.62,0,41.33,0c.1,0,.2,0,.31,0h.03c.27,0,.54,0,.82,0,.42,0,.85,0,1.27,0,.44,0,.87,0,1.3,0,.88,0,1.57,0,2.18.01h.02c1.43.03,2.46.49,3.48.99l.04.02c.58.3,1.21.64,1.81,1.11l.05.04c1.07.85,1.76,1.96,1.99,3.19v.07s.03.1.03.11c3.97,1.69,7.38,4.61,9.55,8.21,1.86,3.06,2.58,6.22,2.91,8.63,2.63,2.56,3.54,6.77,3.83,10.04.37,4.14-.11,8.59-1.24,11.62-1.39,3.72-3.28,5.21-6.2,6.33-2.41,4.56-6.07,8.44-10.65,11.26-4.91,3.02-10.52,4.64-16.22,4.66h-.05Z"/>
      </g>
      <g>
        <path class="cls-3" d="M54.87,45.5c1.8-3.72,2.49-7.73,2.66-11.87.14-3.02.16-6.08-.07-9.09-.23-2.88-.75-5.76-2.27-8.26-1.84-3.07-4.94-5.34-8.43-6.29-2.45-.67-4.85-.77-7.46-.82-1.94-.03-4.12-.03-6.26-.03-2.14,0-4.33,0-6.26.03-2.61.06-5.01.16-7.46.82-3.49.95-6.59,3.22-8.43,6.29-1.52,2.49-2.05,5.37-2.27,8.26-.23,3.01-.2,6.07-.07,9.09.17,4.14.87,8.16,2.66,11.87,3.81,8.34,12.69,13.62,21.83,13.65,9.14-.04,18.02-5.31,21.83-13.65Z"/>
        <ellipse class="cls-3" cx="63.82" cy="34.69" rx="2.2" ry="7.05"/>
      </g>
      <g>
        <g>
          <path class="cls-2" d="M64.41,23.07c-.28-2.61-.9-5.73-2.66-8.62-2.17-3.62-5.76-6.39-9.9-7.68,0-.59.02-1.22-.04-1.67-.11-.58-.47-1.08-.96-1.48h-.02c-.41-.33-.89-.59-1.37-.84-.78-.39-1.42-.68-2.28-.7-1.75-.03-3.74,0-5.54-.01-.79,0-1.3-.02-1.82.12-.78.22-1.43.86-1.61,1.59-.09.39-.06.67-.07,1.19,0,.2,0,.41,0,.64h-.05c-.31,0-.63,0-.94,0-.29,0-.57,0-.84,0-.25,0-.51,0-.76,0-.16,0-.31,0-.47,0-.09,0-.18,0-.27,0-.09,0-.18,0-.27,0-.25,0-.51,0-.76,0-.16,0-.31,0-.47,0-.29,0-.6,0-.91,0-.06,0-.12,0-.18,0,0-.19-.02-.36-.04-.51-.11-.58-.47-1.08-.96-1.48h-.02c-.41-.33-.89-.59-1.37-.84-.78-.39-1.42-.68-2.28-.7-1.75-.03-3.74,0-5.54-.01-.79,0-1.3-.02-1.82.12-.78.22-1.43.86-1.61,1.59-.09.39-.06.67-.07,1.19,0,.47,0,1,0,1.58-.04.01-.09.02-.13.03-4.4,1.2-8.23,4.07-10.51,7.86-2.03,3.34-2.55,6.99-2.77,9.8h0c-.22,2.86-.24,5.88-.07,9.52.22,5.16,1.2,9.48,2.99,13.21,2.14,4.67,5.68,8.62,10.25,11.44,4.46,2.75,9.56,4.21,14.74,4.23h.01s.01,0,.01,0c.29,0,.58,0,.87-.02.29.01.58.02.87.02h.01s.01,0,.01,0c.29,0,.58,0,.87-.02.29.01.58.02.87.02h.01s.01,0,.01,0c5.18-.02,10.28-1.49,14.74-4.23,4.46-2.75,7.95-6.59,10.1-11.12.1-.04.19-.07.29-.11,2.81-.97,4.15-1.91,5.28-4.94,1.9-5.08,1.83-16.18-2.61-19.19ZM33.04,59.15c-9.14-.04-18.02-5.31-21.83-13.65-1.8-3.72-2.49-7.73-2.66-11.87-.14-3.02-.16-6.08.07-9.09.23-2.88.75-5.76,2.27-8.26,1.84-3.07,4.94-5.34,8.43-6.29,2.45-.67,4.85-.77,7.46-.82,1.94-.03,4.12-.03,6.26-.03,2.14,0,4.33,0,6.26.03,2.61.06,5.01.16,7.46.82,3.49.95,6.59,3.22,8.43,6.29,1.52,2.49,2.05,5.37,2.27,8.26.23,3.01.2,6.07.07,9.09-.17,4.14-.87,8.16-2.66,11.87-3.81,8.34-12.69,13.62-21.83,13.65ZM63.82,41.74c-1.21,0-2.2-3.16-2.2-7.05s.98-7.05,2.2-7.05,2.2,3.16,2.2,7.05-.98,7.05-2.2,7.05Z"/>
          <polygon class="cls-2" points="28.51 17.46 17.33 23.56 21.52 36.49 13.14 36.92 16.79 43.08 23.03 40.99 24.43 45.25 31.72 42.07 28.51 17.46"/>
          <polygon class="cls-2" points="51.22 38.73 47.67 34.57 49.41 24.65 35.86 32.03 35.11 39.51 42.93 38.94 51.22 38.73"/>
          <path class="cls-2" d="M28.73,50.21c5.63,8.87,17.84,1.13,12.22-7.75l-12.22,7.75Z"/>
        </g>
        <g>
          <g>
            <path class="cls-2" d="M4.69,65.44v29.31h3.5l.24-7.75,3.97.16,1.42,8.18,4.76.32-4.84-31.33-9.05,1.1ZM8.67,82.81l.4-11.27.84-.08,1.91,11.69-3.15-.33Z"/>
            <polygon class="cls-2" points="23.31 80.73 27.76 90.71 31.81 90.97 30.77 66.8 26.02 67.28 26.91 77.7 21.28 67.76 17.01 68.11 20.04 90.26 23.44 90.42 23.31 80.73"/>
            <polygon class="cls-2" points="39.48 97.13 39.24 72.24 33.66 72.94 34.36 95.18 39.48 97.13"/>
            <polygon class="cls-2" points="41.86 89.91 47.36 90.26 47.73 69.95 52.22 69.8 52.81 62.21 37.78 64.22 37.78 70.28 42.13 70.13 41.86 89.91"/>
            <polygon class="cls-2" points="61.23 71.58 56.22 85.5 54.58 85.3 56.43 74.1 51.1 73.55 49.77 87.76 54.25 90.97 54.25 90.97 51.34 99.07 57.45 98.74 66.74 73.25 61.23 71.58"/>
          </g>
          <polygon class="cls-2" points="50.6 94.02 41.95 92.82 41.81 105.26 46.06 107.94 47.59 104.84 43.97 103.36 44.04 102.27 46.12 103.39 47.42 101.02 44.23 99.51 44.33 98.34 48.45 100.18 50.6 94.02"/>
          <path class="cls-2" d="M56.33,104.46l-.57-2.18s-1.9,1.55-1.92,1.57l-2.14-2.96-2.61,2.67,2.46,2.03-3.93,2.59,4.73.78,1.45-1.69,1.81,1.44,1.77-.63s-2.22-2.61-2.25-2.66c.06-.06,1.21-.97,1.21-.97Z"/>
        </g>
      </g>
    </g>
  </g>
</svg>