<?xml version="1.0" encoding="UTF-8"?>
<svg id="Layer_2" data-name="Layer 2" xmlns="http://www.w3.org/2000/svg" viewBox="0 0 585.89 186.18">
  <defs>
    <style>
      .cls-1 {
        fill: #ff9100;
      }

      .cls-2 {
        fill: #003;
      }

      .cls-3 {
        fill: #ffd9b3;
      }
    </style>
  </defs>
  <g id="middle">
    <g>
      <path class="cls-1" d="M55.96,3.94C68.78.5,81.46.42,94.48.38c121.82.97,324.2-2.07,423.79,1.14,18.21,2.37,37.99,11.39,49.77,26.19,18.25,21.73,17.61,52.15,17.86,79.76-.8,23.42,3.49,59.34-19.09,73.2-5.97,3.56-12.8,4.78-19.3,5.09-126.88-.06-407.65,1.26-516.54-.5C-4.87,178.71.62,132.02,0,104.27c.26-18.9.23-37.53,6.46-55.28C14,26.85,33.31,9.69,55.78,3.99l.18-.05Z"/>
      <g>
        <path class="cls-3" d="M341.98,169.86l34.56-8.6c.1-.03.19-.09.24-.18.06-.09.07-.19.04-.3l-9.04-33.03c-.73-2.66-.1-5.51,1.67-7.62l26.95-32.02c.13-.15.12-.38-.02-.52l-26.41-27.27c-2.15-2.21-2.9-5.42-1.97-8.36l9.94-31.52s.05-.16-.03-.31c-.09-.15-.21-.18-.25-.18l-42.03-9.03c-1.72-.37-3.25-1.25-4.43-2.55L323.62.08c-80.99.22-165.91.8-229.14.3-13.02.05-25.7.12-38.52,3.56l-.18.05C33.31,9.69,14,26.85,6.46,48.99.23,66.74.27,85.37,0,104.27c.62,27.76-4.87,74.45,30.97,81,63.4,1.02,185.08,1.01,300.72.82l4.55-11.23c1-2.48,3.15-4.35,5.75-4.99Z"/>
        <path class="cls-2" d="M343.91,177.62l34.55-8.6c2.21-.55,4.06-1.94,5.21-3.9s1.45-4.26.85-6.45l-9.04-33.03c-.03-.12,0-.26.08-.35l26.95-32.02c2.78-3.3,2.61-8.14-.39-11.24l-26.41-27.27c-.1-.1-.13-.25-.09-.39l9.94-31.52c.71-2.25.44-4.7-.75-6.74-1.18-2.04-3.19-3.49-5.49-3.98l-42.03-9.03c-.08-.02-.15-.06-.2-.12l-2.68-2.93c-1.8,0-3.6,0-5.4.01l5.13,5.62c.62.67,1.43,1.14,2.32,1.33l42.03,9.03c2.53.54,4.04,3.14,3.26,5.61l-9.94,31.52c-.48,1.54-.09,3.21,1.03,4.37l26.41,27.27c1.57,1.62,1.65,4.16.2,5.88l-26.95,32.02c-.93,1.1-1.26,2.59-.88,3.98l9.04,33.03c.65,2.38-.78,4.82-3.17,5.42l-34.55,8.6c-1.36.34-2.48,1.31-3.01,2.61l-3.94,9.73c1.44,0,2.88,0,4.32,0l3.33-8.22c.05-.11.15-.2.27-.23Z"/>
        <path class="cls-2" d="M342.95,173.74l34.55-8.6c2.39-.59,3.82-3.04,3.17-5.42l-9.04-33.03c-.38-1.39-.05-2.88.88-3.98l26.95-32.02c1.45-1.72,1.36-4.26-.2-5.88l-26.41-27.27c-1.12-1.16-1.52-2.84-1.03-4.37l9.94-31.52c.78-2.47-.74-5.07-3.26-5.61l-42.03-9.03c-.89-.19-1.7-.66-2.32-1.33l-5.13-5.62c-1.8,0-3.6,0-5.4.01l7.58,8.3c1.18,1.3,2.72,2.18,4.43,2.55l42.03,9.03s.17.04.25.18c.09.15.05.27.03.31l-9.94,31.52c-.93,2.94-.17,6.14,1.97,8.36l26.41,27.27c.14.14.15.37.02.52l-26.95,32.02c-1.77,2.11-2.4,4.96-1.67,7.62l9.04,33.03c.03.1.02.21-.04.3-.05.09-.14.15-.24.18l-34.56,8.6c-2.6.65-4.75,2.51-5.75,4.99l-4.55,11.23c1.44,0,2.88,0,4.32,0l3.94-9.73c.53-1.3,1.65-2.27,3.01-2.61Z"/>
      </g>
    </g>
  </g>
</svg>