<?xml version="1.0" encoding="UTF-8"?>
<svg id="Layer_2" data-name="Layer 2" xmlns="http://www.w3.org/2000/svg" viewBox="0 0 66.05 56.74">
  <defs>
    <style>
      .cls-1 {
        fill: #000937;
      }
    </style>
  </defs>
  <g id="front">
    <g>
      <path class="cls-1" d="M3.13,33.45l20.74,3.66c2.27-8.64,4.76-22.49,4.24-37.11L9.76,1.14c.03,8.97-1.75,17.89-1.75,17.89l-5.16-.66-2.85,7.13,6.02,3.19c-.75,1.78-1.69,3.36-2.89,4.75Z"/>
      <path class="cls-1" d="M18.11,48.53c-.25.9-.3.93-.64,1.77,4.52.66,10.98,1.51,17.83,1.65,0,0,.9,5.5,7.69,4.71,6.79-.78,4.65-8.24,4.65-8.24-13.84,2.21-23.91.97-29.53.11Z"/>
      <path class="cls-1" d="M57.6,14.34l-19.22,4.19c.36,5.94-.08,11.54-.79,16.77l19.4-.19v.02s9.06-.28,9.06-.28l-7.76-4.61c-.14-5.4-.22-10.59-.69-15.91Z"/>
    </g>
  </g>
</svg>