<?xml version="1.0" encoding="UTF-8"?>
<svg id="Layer_2" data-name="Layer 2" xmlns="http://www.w3.org/2000/svg" viewBox="0 0 233.72 211.94">
  <defs>
    <style>
      .cls-1 {
        fill: #ff9100;
      }

      .cls-2 {
        fill: #c80057;
      }

      .cls-3 {
        fill: none;
      }

      .cls-4 {
        fill: #000937;
      }

      .cls-5 {
        fill: #4f0241;
      }

      .cls-6 {
        fill: #a10031;
      }
    </style>
  </defs>
  <g id="front">
    <g>
      <path class="cls-3" d="M185.84,123.8c.15-.06.29-.12.42-.18.89-.43,1.77-.87,2.65-1.32-.88.45-1.76.89-2.65,1.32-.13.06-.27.12-.42.18Z"/>
      <path class="cls-3" d="M126.4,115.66c.31.29.62.56.92.82.67.58,1.36,1.13,2.06,1.66-.7-.53-1.39-1.08-2.06-1.66-.3-.26-.61-.54-.92-.82Z"/>
      <path class="cls-3" d="M184.86,124.13c-.35.11-.7.21-1.02.32.32-.11.68-.21,1.02-.32Z"/>
      <path class="cls-3" d="M196.82,146.48h0c-1.08,3.07-2.17,6.03-3.35,8.93,1.18-2.89,2.26-5.86,3.35-8.93Z"/>
      <path class="cls-3" d="M224.98,128.09c-.12.14-.28.22-.5.21-.15-.01-.32-.04-.51-.08.18.04.35.07.51.08.22.01.38-.07.5-.21Z"/>
      <path class="cls-4" d="M232.37,171.77l-5.61-11.17c-1.55-3.09-4.19-5.24-7.2-6.26-3.05,4.66-5.71,9.54-8.2,14.52,4.08,5.16,6.04,11.26,6.24,11.88.93,3.02,2.49,8.11.81,13.75l9.75-6.59c5.25-3.55,7.05-10.45,4.21-16.11Z"/>
      <path class="cls-4" d="M100.55,160.59c.02-1.12.04-2.23.06-3.35.01-4.15-.28-8.3-1.35-12.27v-17.36l3.79-.64-1.07-3.02-9.83,7.71c.73,5.52,3.55,16.53,3.55,16.53,0,0,.3,16.42-1.37,20.32-.15.36-.38.77-.69,1.21l6.66-3.18c.04-1.18.09-2.36.14-3.54.04-.8.07-1.61.1-2.41Z"/>
      <path class="cls-2" d="M95.7,148.2s-2.82-11.01-3.55-16.53c-.12-.9-.18-1.65-.17-2.19,1.34-.85,5.23-14.04-2.69-22.12-4.07-4.15-9.19-5.77-13.84-6.26,1.5-5.53.29-12.5-3.22-18.67-.37-4.26-1.45-8.35-3.21-12.17-2.13-4.61-5.04-10.92-10.93-12.02-3.32-.62-6.75.57-8.69,2.02-.7.53-1.23,1.1-1.59,1.7-4.84-4.05-11.51-7.09-18.62-6.62-5.9.39-10.48,3.1-13.59,5.69-3.79.4-7.08,1.65-9.57,3.69C2.16,67.9.2,72.83.02,76.07c-.1,1.77.29,3.16,1.12,4.06-.7,2.57-.57,5.56.52,7.79-.49.66-.84,1.38-1.02,2.17-.38,1.71-.16,5.32,5.65,10.36l.57.5.65-.39c8.46-5.01,18.79-5.21,26.95-.54,5.31,3.04,8.46,7.38,10.31,11.12-.69.75-1.36,1.57-1.99,2.45-2.04,2.86-3.3,5.37-1.46,13.72,1.83,8.35,6.86,9.8,7.69,10.08-.41,3.96,2.5,13.95,6.96,23.82,4.68,10.37,8.8,14.95,12.08,17.19,16.96-.94,23.41-5.6,25.59-8.68.31-.44.53-.85.69-1.21,1.67-3.91,1.37-20.32,1.37-20.32ZM22.45,63.3c8.69,1.24,17.22,5.91,22.45,12.14-1.15,1.01-2,1.92-2.47,2.46-.22.25-.43.51-.64.77-4.69-4.76-15.02-7.27-22.57-7.2-4.08.03-13.43.13-17.03,6.16-.08-.41-.12-.9-.09-1.44.16-2.88,2.02-7.19,5.25-9.84,3.49-2.86,8.85-3.94,15.08-3.05ZM50.55,67.85c.82,1.1,1.46,2.19,1.92,3.23-2.25.64-4.27,1.81-5.92,3.04-5.56-6.63-14.6-11.59-23.79-12.91-1.18-.17-2.33-.27-3.45-.3,2.64-1.73,6.01-3.2,10.04-3.47,8.81-.59,17.18,4.99,21.22,10.41ZM50.66,61.95c1.51-1.14,4.36-2.13,7.04-1.63,4.82.9,7.47,6.64,9.4,10.83,1.07,2.32,1.87,4.75,2.39,7.25-3.91-4.88-8.81-7.76-13.44-7.81-.41,0-.81.01-1.21.05-.51-1.64-1.43-2.81-2.4-3.75-.07-.1-.14-.19-.21-.29-.8-1.07-1.74-2.13-2.79-3.15.13-.46.55-1,1.21-1.5ZM3.71,79.21c2.72-5.53,11.7-5.6,15.54-5.64.1,0,.19,0,.29,0,8.08,0,17.32,2.79,21.01,6.85-1.95,3.04-2.85,6.08-3.25,8.34-4.53-3.24-9.62-5.27-14.82-5.9-6.29-.76-14.85.2-19.2,3.46-.72-2.07-.65-4.93.42-7.11ZM2.69,90.54c.98-4.36,11.3-6.59,19.54-5.59,5.38.65,10.64,2.92,15.22,6.55l1.53,1.21.18-1.94c.23-2.46,1.16-7.23,4.87-11.49,1.35-1.55,6.19-6.6,11.9-6.6.04,0,.07,0,.11,0,4.51.05,9.42,3.33,13.12,8.78,4.52,6.65,6.03,14.64,3.85,20.37-2.42,6.34-9.1,9.85-11.96,11.34-3.72,1.95-7.77,3.12-12.04,3.48-.92-3.85-4.04-13.07-13.49-18.47-4.25-2.43-9.03-3.64-13.87-3.64s-9.98,1.27-14.53,3.81c-4.74-4.32-4.58-7.06-4.41-7.82Z"/>
      <path class="cls-4" d="M52.24,66.6c.07.1.14.19.21.29.97.94,1.89,2.11,2.4,3.75.4-.04.8-.05,1.21-.05,4.63.05,9.53,2.94,13.44,7.81-.53-2.5-1.32-4.93-2.39-7.25-1.93-4.19-4.58-9.93-9.4-10.83-2.68-.5-5.52.5-7.04,1.63-.66.49-1.08,1.04-1.21,1.5,1.05,1.02,1.99,2.08,2.79,3.15Z"/>
      <path class="cls-4" d="M19.3,60.91c1.12.04,2.27.13,3.45.3,9.2,1.31,18.23,6.28,23.79,12.91,1.65-1.22,3.67-2.4,5.92-3.04-.46-1.04-1.1-2.13-1.92-3.23-4.04-5.42-12.41-10.99-21.22-10.41-4.03.27-7.4,1.74-10.04,3.47Z"/>
      <path class="cls-4" d="M2.12,76.19c-.03.54,0,1.03.09,1.44,3.6-6.03,12.95-6.13,17.03-6.16,7.55-.07,17.88,2.44,22.57,7.2.2-.26.41-.51.64-.77.47-.54,1.32-1.46,2.47-2.46-5.23-6.23-13.76-10.9-22.45-12.14-6.23-.89-11.59.2-15.08,3.05-3.23,2.65-5.09,6.95-5.25,9.84Z"/>
      <path class="cls-4" d="M3.29,86.32c4.35-3.27,12.91-4.22,19.2-3.46,5.2.63,10.29,2.66,14.82,5.9.4-2.26,1.29-5.3,3.25-8.34-3.68-4.06-12.93-6.85-21.01-6.85-.1,0-.19,0-.29,0-3.84.03-12.83.11-15.54,5.64-1.07,2.18-1.14,5.04-.42,7.11Z"/>
      <path class="cls-4" d="M7.11,98.36c4.55-2.54,9.57-3.81,14.53-3.81s9.62,1.21,13.87,3.64c9.45,5.41,12.57,14.62,13.49,18.47,4.28-.36,8.32-1.53,12.04-3.48,2.85-1.5,9.53-5,11.96-11.34,2.19-5.73.68-13.72-3.85-20.37-3.71-5.45-8.61-8.73-13.12-8.78-.04,0-.07,0-.11,0-5.71,0-10.55,5.04-11.9,6.6-3.71,4.26-4.65,9.03-4.87,11.49l-.18,1.94-1.53-1.21c-4.57-3.64-9.83-5.9-15.22-6.55-8.23-1-18.56,1.23-19.54,5.59-.17.76-.33,3.49,4.41,7.82ZM59.81,104.18c-3.79,0-6.86-4.24-6.86-9.47s3.07-9.47,6.86-9.47,6.86,4.24,6.86,9.47-3.07,9.47-6.86,9.47Z"/>
      <ellipse class="cls-1" cx="59.81" cy="94.71" rx="6.86" ry="9.47"/>
      <path class="cls-2" d="M157.95,171.64c-2.33.24-6.82.91-11.25,3.08,5.13-2.29,10.4-2.98,11.25-3.08Z"/>
      <path class="cls-2" d="M100.55,160.59c-.03.81-.06,1.61-.1,2.41-.06,1.18-.1,2.36-.14,3.54-.04,1.09-.07,2.18-.09,3.26,0,.36,0,.71,0,1.07,0,.08-.02.15-.02.22-.05,2.5-.06,5-.05,7.5h.09c.11-5.99.22-12,.33-18.01Z"/>
      <path class="cls-4" d="M114.02,98.28c.02.1.05.19.09.3.04.1.1.21.15.34.16.37.33.75.52,1.13.37.76.78,1.54,1.22,2.33.22.4.46.79.7,1.19,1.45,2.39,3.19,4.83,5.03,7.07.31.37.62.74.93,1.1.62.72,1.25,1.41,1.88,2.07.63.66,1.25,1.28,1.87,1.85.31.29.62.56.92.82.67.58,1.36,1.13,2.06,1.66.53.4,1.06.79,1.6,1.17,1.42,1.01,2.88,1.96,4.33,2.93h0c9.9,6.49,25.92,7.63,34.37,6.13l13.69-3.76c.14-.05.3-.11.46-.16.32-.11.68-.21,1.02-.32.17-.05.34-.11.51-.16.17-.06.33-.11.48-.17.15-.06.29-.12.42-.18.89-.43,1.77-.87,2.65-1.32,1.76-.9,3.51-1.83,5.27-2.74.88-.46,1.76-.91,2.64-1.34.31,0,.61.01.92.03.92.07,1.83.22,2.74.39.3.06.61.12.91.17.91.17,1.82.34,2.73.42.48.04,1.1.09,1.81.14.18.01.36.02.54.03.37.02.76.04,1.15.06.2,0,.4.02.6.03.46.02.92.04,1.38.05.46.01.91.03,1.34.03,1.07.02,2.03,0,2.66-.06.45-.04.81-.14,1.13-.29.22-.1.41-.22.61-.36.29-.22.56-.48.87-.79.01-.22.06-.39.14-.5.02-.05.03-.1.05-.15l1.05-1.8.09.02,1.61-3.2h0c4.66-9.05,8.67-18.86,10.66-28.85.34-1.72,1.31-7.1.6-8.53l-1.39-3.88.12-.53h0c1.66-6.15,1.16-17.29-1.75-22.43-1.3-2.28-7.93-9.64-10.07-11.05,0,0,0,0,0,0-.66-.56-1.39-1.12-2.17-1.68-.6-.44-1.25-.88-1.92-1.33l1.82-3.57c2.98-5.85.65-13-5.2-15.97l-6.06-3.08c-5.85-2.98-13-.65-15.97,5.2l-1.94,3.81c-.07-.03-.13-.06-.2-.09,0,0,0,0,0,0-.66-.32-1.34-.59-2.02-.85-.05-.02-.11-.05-.16-.07-.03,0-.06-.02-.09-.03-1.36-.37-2.72-.74-4.07-1.1l.23-.7c2.06-6.23-1.33-12.95-7.56-15l-6.45-2.13c-6.23-2.06-12.95,1.33-15,7.56l-1.5,4.55c-13.87.75-22.42,6.82-28.5,19.83-.51,1.1-1.92,5.79-2.38,6.07-.22.13-.65.02-.86.16-6.06,4.17-10.73,16.61-12.34,23.6-.96,4.2-2.56,15.12,1.2,18.1,1.08.86,2.56,1.37,3.82,2.1.04.04.1.07.17.09l.58,2.68h0c.23,1.6.57,3.54.88,4.94.17.78.93,3.78,1.33,4.75h0l.93,2.75.13.4s0,.07,0,.11ZM215.98,104.14c1.38-5.92,4.05-13.05,7-18.35.34-.61,2.76-4.61,3.3-4.39.25.42.32.82.36,1.3.52,5.97-5.91,22.97-9.74,27.59-.21.25-1.48,1.85-1.86,1.23-.35-.57.69-6.34.93-7.37ZM115.34,55.42l1.06-3.65c.18-.41.35-.82.48-1.21.28-.85.47-1.86.7-2.82l.52-1.77c2.97-8.81,7.04-19.74,15.26-24.75,11.71-7.13,28.76-2.72,41.07,1.18,13.9,4.4,33.91,11.8,37.3,27.8,1.89,8.91-.94,17.28-3.74,25.64-.76,2.27-1.54,4.43-2.38,6.64l-.91,2.09-.14.32-3.63,8.39c-3.75,7.44-7.11,12.57-13.79,18.18-19.57,16.43-48.16,14.16-64.36-6.04-2.64-3.3-4.79-6.97-6.56-10.8l-.24-.82c-.03-.4-.24-.86-.33-1.12-1.03-3.08-1.74-4.97-2.37-8.24-2.09-10.98-.57-18.53,2.04-29.04Z"/>
      <path class="cls-2" d="M115.67,92.7c.09.26.29.72.33,1.12l.24.82c1.78,3.82,3.92,7.5,6.56,10.8,16.2,20.21,44.78,22.48,64.36,6.04,6.68-5.61,10.05-10.74,13.79-18.18l3.63-8.39-.12-.14.26-.18.91-2.09c.83-2.2,1.61-4.37,2.38-6.64,2.8-8.36,5.63-16.73,3.74-25.64-3.39-16-23.4-23.4-37.3-27.8-12.31-3.9-29.36-8.31-41.07-1.18-8.22,5.01-12.29,15.94-15.26,24.75l-.52,1.77c-.23.95-.42,1.96-.7,2.82-.13.39-.3.8-.48,1.21l-1.06,3.65c-2.61,10.51-4.13,18.06-2.04,29.04.62,3.27,1.34,5.16,2.37,8.24Z"/>
      <path class="cls-5" d="M225.29,127.47c-.04.13-.09.26-.16.38-.04.07-.08.14-.13.2-.01.01-.02.03-.03.04-.12.14-.28.22-.5.21-.15-.01-.32-.04-.51-.08-.18-.04-.37-.09-.57-.15-.6-.18-1.28-.43-1.94-.63-.22-.07-.44-.12-.65-.17-.43-.1-.83-.15-1.2-.12h0c-.06,0-.16.03-.29.07-.07.02-.15.05-.23.08-.25.09-.55.22-.87.36-.09.04-.19.08-.28.12-.47.21-.93.42-1.24.57-.1.05-.19.09-.26.12-.47.22-.93.46-1.38.7-.91.48-1.81.99-2.69,1.52-.88.53-1.75,1.08-2.62,1.64-.43.28-.86.57-1.29.85-.86.57-1.71,1.16-2.56,1.74-.85.58-1.7,1.17-2.55,1.75-.43.29-.85.58-1.28.86-.86.57-1.72,1.13-2.6,1.67-1.31.81-2.65,1.59-4.03,2.29-.74.38-1.48.74-2.24,1.09-1.3.6-2.63,1.16-3.97,1.71-1.02.41-2.04.82-3.06,1.22-1.59.62-3.18,1.23-4.76,1.86-1.57.63-3.13,1.28-4.63,1.97-.04.06-.07.11-.09.16-.02.05-.03.09-.03.12,0,.04,0,.07.02.09.06.13.29.15.55.18,3.11.32,5.81-1.01,8.64-1.99,7.35-3.58,18.34-8.85,19.96-9.12.12-.1.21-.09.29-.01,2.01.04.33,4.78.33,4.78l4.92,3.85c3.65-2.18,9.34-7.12,10.84-9.96,1.13-2.13,1.22-3.94,1.83-5.99.31-1.04,1.64-3.46,1.36-4.23-.01.03-.02.07-.04.11-.01.04-.03.08-.04.12Z"/>
      <path class="cls-5" d="M206.22,143.75c.1-.05.18-.11.2-.18l-.19.06s0,.08,0,.12Z"/>
      <path class="cls-4" d="M179.96,178.91c.15.24.39.45.65.56.01,0,.03,0,.04.01-.22-.2-.45-.39-.69-.57Z"/>
      <path class="cls-4" d="M187.57,163.81c.62.01,1.2-.02,1.75-.09-.39.01-.97.02-1.72.04,0,.02-.02.04-.03.06Z"/>
      <path class="cls-4" d="M191.1,160.79c.85-1.77,1.63-3.57,2.37-5.39,1.18-2.89,2.26-5.86,3.35-8.93l-2.93.78c-.14.4-.27.81-.4,1.23-.47,1.47-.91,3-1.39,4.47-.21.66-.43,1.3-.66,1.92-.54,1.45-1.14,2.93-1.79,4.42-.57,1.32-1.19,2.65-1.82,3.96,1.02.12,1.62.22,1.88.3.48-.92.94-1.84,1.39-2.76Z"/>
      <path class="cls-2" d="M216.91,110.28c3.83-4.62,10.26-21.62,9.74-27.59-.04-.48-.11-.88-.36-1.3-.54-.22-2.96,3.79-3.3,4.39-2.96,5.3-5.62,12.43-7,18.35-.24,1.03-1.28,6.8-.93,7.37.38.61,1.65-.98,1.86-1.23Z"/>
      <polygon class="cls-6" points="204.57 84.91 204.71 84.59 204.45 84.77 204.57 84.91"/>
      <path class="cls-5" d="M162.21,135.07s-14.28.62-24.17-3.36-15.1-12.25-15.1-12.25c0,0-6.04,14.09,9.06,21.78,15.1,7.69,30.21-6.17,30.21-6.17Z"/>
      <path class="cls-2" d="M217.6,180.73c-.19-.62-2.16-6.72-6.24-11.88,2.49-4.97,5.14-9.86,8.2-14.52.07-.11.14-.22.21-.33l-8.43-6.59-4.92-3.85c-.01.08-.1.13-.2.18,0-.04,0-.08,0-.12l.19-.06s1.68-4.74-.33-4.78c-.08-.08-.17-.08-.29.01-1.62.28-12.61,5.54-19.96,9.12-2.83.98-5.52,2.31-8.64,1.99-.26-.03-.49-.05-.55-.18-.01-.03-.02-.06-.02-.09,0-.04.01-.08.03-.12.02-.05.05-.1.09-.16,1.51-.69,3.06-1.34,4.63-1.97,1.57-.63,3.17-1.24,4.76-1.86,1.03-.4,2.05-.81,3.06-1.22,1.34-.55,2.68-1.11,3.97-1.71.76-.35,1.51-.71,2.24-1.09,1.38-.7,2.71-1.48,4.03-2.29.88-.54,1.74-1.1,2.6-1.67.43-.29.86-.57,1.28-.86.85-.58,1.7-1.17,2.55-1.75.85-.58,1.7-1.17,2.56-1.74.43-.29.86-.57,1.29-.85.86-.56,1.73-1.11,2.62-1.64.88-.53,1.78-1.04,2.69-1.52.46-.24.92-.47,1.38-.7.07-.03.15-.07.26-.12.31-.15.77-.36,1.24-.57.09-.04.19-.08.28-.12.32-.14.62-.27.87-.36.08-.03.16-.06.23-.08.13-.04.23-.07.29-.07h0c.36-.03.77.03,1.2.12.21.05.43.11.65.17.66.2,1.33.45,1.94.63.2.06.39.11.57.15.18.04.35.07.51.08.22.01.38-.07.5-.21.01-.01.02-.03.03-.04.05-.06.09-.13.13-.2.06-.12.11-.25.16-.38.01-.04.03-.08.04-.12.01-.04.03-.08.04-.11,0,0,0,0,0,0,0,0,0,0,0,0,.06-1.15-3.67-6.09-6.39-8.51-.05-.05-.09-.08-.13-.12-.01,0-.02-.02-.03-.03-.02-.01-.04-.03-.05-.04,0,0,0,0,0,0-1.13-.97-2.06-1.46-2.4-.96-.08.11-.13.28-.14.5-.3.31-.58.57-.87.79-.19.14-.39.27-.61.36-.32.15-.69.25-1.13.29-.64.06-1.59.07-2.66.06-.43,0-.88-.02-1.34-.03-.46-.01-.92-.03-1.38-.05-.2,0-.4-.02-.6-.03-.4-.02-.78-.04-1.15-.06-.19-.01-.37-.02-.54-.03-.71-.05-1.33-.09-1.81-.14-.91-.08-1.82-.25-2.73-.42-.3-.06-.61-.12-.91-.17-.91-.17-1.82-.32-2.74-.39-.31-.02-.61-.03-.92-.03-.88.44-1.76.89-2.64,1.34-1.76.91-3.51,1.84-5.27,2.74-.88.45-1.76.89-2.65,1.32-.13.06-.27.12-.42.18-.15.06-.31.11-.48.17-.17.06-.34.11-.51.16-.35.11-.7.21-1.02.32-.16.05-.32.11-.46.16l-13.69,3.76c-8.45,1.49-24.47.36-34.37-6.13h0c-1.45-.96-2.91-1.92-4.33-2.93-.54-.38-1.08-.77-1.6-1.17-.7-.53-1.39-1.08-2.06-1.66-.3-.26-.61-.54-.92-.82-.62-.57-1.25-1.19-1.87-1.85-.63-.66-1.26-1.35-1.88-2.07-.31-.36-.62-.73-.93-1.1-1.84-2.24-3.58-4.68-5.03-7.07-.24-.4-.47-.8-.7-1.19-.45-.79-.86-1.57-1.22-2.33-.18-.38-.36-.76-.52-1.13-.06-.13-.11-.24-.15-.34-.04-.1-.08-.2-.09-.3,0-.04,0-.07,0-.11l-.13-.4c-1.96,1.12-12.64,7.4-14.06,12.86-1.57,6.02,2.11,13.17,2.11,13.17l.05.14,1.07,3.02-3.79.64v17.36c1.07,3.97,1.36,8.12,1.35,12.27,0-.13,0-.27,0-.4,57.74,3.82,80.78,5.62,87.22,6.41.63-1.31,1.24-2.64,1.82-3.96.65-1.49,1.25-2.97,1.79-4.42.23-.62.45-1.26.66-1.92.47-1.47.92-3,1.39-4.47.13-.41.27-.82.4-1.23l2.93-.78h0c-1.08,3.07-2.17,6.03-3.35,8.93-.74,1.82-1.52,3.61-2.37,5.39-.44.93-.91,1.85-1.39,2.76.11.03.16.06.16.08,0,.05-.2.07-.56.08-.55.07-1.13.11-1.75.09,0-.02.02-.04.03-.06-2.24.05-5.97.21-10.5,1.04-7.91,1.45-14.35,4.24-19.14,6.85,2.5.15,12.86.99,21.12,7.98.11.09.21.18.32.27.03.03.07.06.1.09.96.82,1.85,1.71,2.67,2.66,9.34,10.48,6.97,22.21,6.5,23.86,2.78,2.01,6.54,3.37,11.18,2.8,7.89.76,14.67-6.54,17.33-11.72.54-1.04.93-2.08,1.23-3.09,1.68-5.64.12-10.73-.81-13.75ZM132,141.24c-15.1-7.69-9.06-21.78-9.06-21.78,0,0,5.22,8.26,15.1,12.25s24.17,3.36,24.17,3.36c0,0-15.1,13.86-30.21,6.17ZM179.96,178.91c.24.18.47.38.69.57-.01,0-.03,0-.04-.01-.26-.11-.5-.32-.65-.56Z"/>
      <path class="cls-4" d="M179.4,179.89s.07.06.1.09c-.03-.03-.07-.06-.1-.09Z"/>
      <path class="cls-4" d="M182.17,182.64c.89,1.03,1.7,2.13,2.41,3.31-.07.31-.16.61-.27.9-.46,1.19-1.28,2.18-2.47,2.86-3.66,2.07-9.36.27-12.73-4.02-3.01-3.83-3.13-8.35-.52-10.75.29-.27.62-.52.98-.73,3.61,1.41,6.81,3.18,9.51,5.41-8.26-6.99-18.63-7.83-21.12-7.98,0,0,0,0,0,0,0,0,0,0,0,0-.85.1-6.12.79-11.25,3.08-2.97,1.46-5.91,3.58-8.15,6.73-.61.86-1.21,1.84-1.74,2.94-2.63,8.7,5.66,18.75,15.89,23.95-6.51-4.07-4.56-13.89,2.32-17.45,2.29-1.25,5-1.68,7.43-1.14-2.46.35-4.7,1.2-6.57,2.54-6.05,4.42-7.51,12.37-.87,17.12-.03-.01-.06-.02-.09-.03.88.38,1.78.72,2.67,1.02,5.69,1.89,11.53,1.8,16.59.95-.06-.41-.1-.79-.15-1.13l-.19-1.18c-.16-.73-.05-1.51-.29-2.31-.5-1.63-1.5-3.13-2.65-4.44l.13-.16c2.96,1.49,6.74,6.13,3.92,9.09,7.02-1.3,12.42-3.97,13.66-4.56.01-.03.03-.09.05-.15.47-1.65,2.84-13.38-6.5-23.86ZM147.06,187.02c-4.86,3.47-6.58,9.92-2.66,14.84-6.53-3.87-4.46-13.15,1.77-16.24,1.92-1.02,4.04-1.52,6.12-1.5-1.92.84-3.7,1.72-5.23,2.89Z"/>
      <path class="cls-2" d="M155.89,192.3c1.87-1.34,4.1-2.19,6.57-2.54-2.43-.54-5.14-.11-7.43,1.14-6.88,3.55-8.83,13.38-2.32,17.45.65.41,1.4.76,2.22,1.04.03.01.06.02.09.03-6.64-4.75-5.18-12.7.87-17.12Z"/>
      <path class="cls-2" d="M152.29,184.13c-2.08-.02-4.21.48-6.12,1.5-6.23,3.08-8.3,12.37-1.77,16.24-3.91-4.92-2.2-11.37,2.66-14.84,1.54-1.17,3.32-2.05,5.23-2.89Z"/>
      <path class="cls-2" d="M171.05,202.13l-.13.16c1.15,1.31,2.15,2.81,2.65,4.44.24.8.14,1.58.29,2.31l.19,1.18c.05.35.09.72.15,1.13.01.09.02.17.04.26,0,0,.19.09.19.09.21-.16.38-.32.55-.49,2.82-2.96-.96-7.59-3.92-9.09Z"/>
      <path class="cls-1" d="M168.59,174.93c-2.61,2.4-2.48,6.92.52,10.75,3.37,4.29,9.07,6.1,12.73,4.02,1.19-.67,2.01-1.67,2.47-2.86.11-.29.2-.59.27-.9-.71-1.18-1.52-2.28-2.41-3.31-.82-.95-1.71-1.84-2.67-2.66-.03-.03-.07-.06-.1-.09-.11-.09-.21-.18-.32-.27-2.7-2.23-5.9-4.01-9.51-5.41-.36.21-.69.46-.98.73Z"/>
      <path class="cls-5" d="M138.55,181.45c2.25-3.15,5.19-5.27,8.15-6.73,4.43-2.18,8.92-2.85,11.25-3.08,0,0,0,0,0,0,0,0,0,0,0,0,4.79-2.61,11.23-5.4,19.14-6.85,4.53-.83,8.26-.98,10.5-1.04.75-.02,1.33-.02,1.72-.04.36-.01.55-.04.56-.08,0-.02-.05-.05-.16-.08-.26-.08-.87-.17-1.88-.3-6.44-.78-29.48-2.58-87.22-6.41,0,.13,0,.27,0,.4-.02,1.12-.04,2.23-.06,3.35-.11,6.01-.22,12.01-.33,18.02l-.02,1.19c12.2,1.54,24.4,3.09,36.59,4.63,0-.01.01-.03.02-.04.53-1.1,1.12-2.08,1.74-2.94Z"/>
      <path class="cls-5" d="M76.17,104.84c8.75,0,5.33,11.06-20.15,13.3,9.31-3.08,13.27-8.06,20.15-13.3Z"/>
    </g>
  </g>
</svg>